<svg width="39" height="58" viewBox="0 0 39 58" fill="none" xmlns="http://www.w3.org/2000/svg">
<g filter="url(#filter0_d_7635_201816)">
<path d="M18.6069 7.55393C18.9761 6.81536 20.0297 6.81536 20.3989 7.55393L25.3939 17.5471C25.7985 18.3565 25.0081 19.2453 24.1573 18.9376L19.5029 17.2544L14.8485 18.9376C13.9978 19.2453 13.2074 18.3565 13.612 17.5471L18.6069 7.55393Z" fill="#757575"/>
<path d="M12.7177 17.0995C11.9101 18.7158 13.4871 20.4929 15.1873 19.8778L19.5 18.3163L23.8127 19.8778C25.5129 20.4929 27.0899 18.7158 26.2823 17.0995L21.2893 7.10635C20.5518 5.63121 18.4482 5.63122 17.7107 7.10635L12.7177 17.0995ZM14.8476 18.9374C13.9972 19.2451 13.2074 18.3562 13.6118 17.5468L18.6049 7.55361L18.681 7.42373C19.1021 6.81805 20.049 6.86158 20.3951 7.55361L25.3882 17.5468C25.7926 18.3562 25.0028 19.2451 24.1524 18.9374L19.5 17.2538L14.8476 18.9374Z" fill="white"/>
<path d="M19.9615 26.0029C26.3341 26.0029 31.5 31.3755 31.5 38.0029C31.5 44.6303 26.3341 50.0029 19.9615 50.0029H19.0385C12.6659 50.0029 7.5 44.6303 7.5 38.0029C7.5 31.3755 12.6659 26.0029 19.0385 26.0029H19.9615Z" fill="white"/>
<path d="M6.5 38.0029C6.5 30.8607 12.0769 25.0031 19.0381 25.0029V26.0029C12.6657 26.0031 7.5 31.3756 7.5 38.0029L7.50391 38.3125C7.65928 44.6938 12.6045 49.8371 18.7402 49.999L19.0381 50.0029H19.9619L20.2598 49.999C26.3955 49.8371 31.3407 44.6938 31.4961 38.3125L31.5 38.0029C31.5 31.4792 26.4945 26.1713 20.2598 26.0068L19.9619 26.0029V25.0029C26.9231 25.0031 32.5 30.8607 32.5 38.0029C32.5 45.1452 26.9231 51.0027 19.9619 51.0029H19.0381C12.0769 51.0027 6.5 45.1452 6.5 38.0029ZM19.9619 25.0029V26.0029H19.0381V25.0029H19.9619Z" fill="#757575"/>
<path d="M24.2939 30C25.2328 30 25.9941 30.7613 25.9941 31.7002V33.5762H27.5V35.835H25.9941V43.9297C25.9939 44.0331 25.9101 44.1169 25.8066 44.1172C25.7028 44.1172 25.6182 44.2018 25.6182 44.3057V44.9951C25.6182 45.2376 25.4212 45.4346 25.1787 45.4346H23.2354C22.9592 45.4346 22.7354 45.2107 22.7354 44.9346V44.2168C22.7351 44.1619 22.6907 44.1174 22.6357 44.1172H16.3652C16.3103 44.1174 16.2658 44.1619 16.2656 44.2168V44.9346C16.2656 45.2107 16.0418 45.4346 15.7656 45.4346H13.8223C13.5797 45.4346 13.3828 45.2376 13.3828 44.9951V44.3057C13.3828 44.2146 13.3183 44.1387 13.2324 44.1211L13.1562 44.1133C13.0704 44.0957 13.0059 44.0198 13.0059 43.9287V35.835H11.5V33.5762H13.0059V31.7002C13.0059 30.7613 13.7672 30 14.7061 30H24.2939ZM14.6396 40.541V41.6709H16.8984V40.541H14.6396ZM22.1104 40.541V41.6709H24.3691V40.541H22.1104ZM14.0059 38.5H24.9941V33.5752H14.0059V38.5Z" fill="#C4C4C4"/>
<path d="M24.2939 30C25.2328 30 25.9941 30.7613 25.9941 31.7002V33.5762H27.5V35.835H25.9941V43.9297C25.9939 44.0331 25.9101 44.1169 25.8066 44.1172C25.7028 44.1172 25.6182 44.2018 25.6182 44.3057V44.9951C25.6182 45.2376 25.4212 45.4346 25.1787 45.4346H23.2354C22.9592 45.4346 22.7354 45.2107 22.7354 44.9346V44.2168C22.7351 44.1619 22.6907 44.1174 22.6357 44.1172H16.3652C16.3103 44.1174 16.2658 44.1619 16.2656 44.2168V44.9346C16.2656 45.2107 16.0418 45.4346 15.7656 45.4346H13.8223C13.5797 45.4346 13.3828 45.2376 13.3828 44.9951V44.3057C13.3828 44.2146 13.3183 44.1387 13.2324 44.1211L13.1562 44.1133C13.0704 44.0957 13.0059 44.0198 13.0059 43.9287V35.835H11.5V33.5762H13.0059V31.7002C13.0059 30.7613 13.7672 30 14.7061 30H24.2939ZM14.6396 40.541V41.6709H16.8984V40.541H14.6396ZM22.1104 40.541V41.6709H24.3691V40.541H22.1104ZM14.0059 38.5H24.9941V33.5752H14.0059V38.5Z" fill="#757575"/>
</g>
<defs>
<filter id="filter0_d_7635_201816" x="-5.5" y="-5" width="50" height="68" filterUnits="userSpaceOnUse" color-interpolation-filters="sRGB">
<feFlood flood-opacity="0" result="BackgroundImageFix"/>
<feColorMatrix in="SourceAlpha" type="matrix" values="0 0 0 0 0 0 0 0 0 0 0 0 0 0 0 0 0 0 127 0" result="hardAlpha"/>
<feOffset/>
<feGaussianBlur stdDeviation="3"/>
<feComposite in2="hardAlpha" operator="out"/>
<feColorMatrix type="matrix" values="0 0 0 0 0 0 0 0 0 0 0 0 0 0 0 0 0 0 0.4 0"/>
<feBlend mode="normal" in2="BackgroundImageFix" result="effect1_dropShadow_7635_201816"/>
<feBlend mode="normal" in="SourceGraphic" in2="effect1_dropShadow_7635_201816" result="shape"/>
</filter>
</defs>
</svg>
