<svg width="38" height="38" viewBox="0 0 38 38" fill="none" xmlns="http://www.w3.org/2000/svg">
<g filter="url(#filter0_d_5857_22820)">
<path d="M19.4615 7C25.8341 7 31 12.3726 31 19C31 25.6274 25.8341 31 19.4615 31H18.5385C12.1659 31 7 25.6274 7 19C7 12.3726 12.1659 7 18.5385 7H19.4615Z" fill="white"/>
<path d="M31.037 19C31.037 12.3726 25.8634 7 19.4815 7H18.5185C12.1366 7 6.96296 12.3726 6.96296 19C6.96296 25.6274 12.1366 31 18.5185 31H19.4815C25.8634 31 31.037 25.6274 31.037 19ZM32 19C32 26.1797 26.3953 32 19.4815 32H18.5185C11.6047 32 6 26.1797 6 19C6 11.8203 11.6047 6 18.5185 6H19.4815C26.3953 6 32 11.8203 32 19Z" fill="#1D6CEB"/>
<path d="M12 22.7895C12 23.5347 12.3413 24.1958 12.875 24.6589V26.1579C12.875 26.6211 13.2687 27 13.75 27H14.625C15.1106 27 15.5 26.6211 15.5 26.1579V25.3158H22.5V26.1579C22.5 26.6211 22.8894 27 23.375 27H24.25C24.7312 27 25.125 26.6211 25.125 26.1579V24.6589C25.6587 24.1958 26 23.5347 26 22.7895V14.3684C26 11.4211 22.8675 11 19 11C15.1325 11 12 11.4211 12 14.3684V22.7895ZM15.0625 23.6316C14.3363 23.6316 13.75 23.0674 13.75 22.3684C13.75 21.6695 14.3363 21.1053 15.0625 21.1053C15.7887 21.1053 16.375 21.6695 16.375 22.3684C16.375 23.0674 15.7887 23.6316 15.0625 23.6316ZM22.9375 23.6316C22.2113 23.6316 21.625 23.0674 21.625 22.3684C21.625 21.6695 22.2113 21.1053 22.9375 21.1053C23.6637 21.1053 24.25 21.6695 24.25 22.3684C24.25 23.0674 23.6637 23.6316 22.9375 23.6316ZM24.25 18.5789H13.75V14.3684H24.25V18.5789Z" fill="#1D6CEB"/>
</g>
<defs>
<filter id="filter0_d_5857_22820" x="-6" y="-6" width="50" height="50" filterUnits="userSpaceOnUse" color-interpolation-filters="sRGB">
<feFlood flood-opacity="0" result="BackgroundImageFix"/>
<feColorMatrix in="SourceAlpha" type="matrix" values="0 0 0 0 0 0 0 0 0 0 0 0 0 0 0 0 0 0 127 0" result="hardAlpha"/>
<feOffset/>
<feGaussianBlur stdDeviation="3"/>
<feComposite in2="hardAlpha" operator="out"/>
<feColorMatrix type="matrix" values="0 0 0 0 0 0 0 0 0 0 0 0 0 0 0 0 0 0 0.4 0"/>
<feBlend mode="normal" in2="BackgroundImageFix" result="effect1_dropShadow_5857_22820"/>
<feBlend mode="normal" in="SourceGraphic" in2="effect1_dropShadow_5857_22820" result="shape"/>
</filter>
</defs>
</svg>
