<svg width="57" height="38" viewBox="0 0 57 38" fill="none" xmlns="http://www.w3.org/2000/svg">
<g filter="url(#filter0_d_5857_22828)">
<path d="M7.55613 18.1069C6.81755 18.4761 6.81755 19.5297 7.55613 19.8989L17.5493 24.8939C18.3587 25.2985 19.2475 24.5081 18.9398 23.6573L17.2566 19.0029L18.9398 14.3485C19.2475 13.4978 18.3587 12.7074 17.5493 13.112L7.55613 18.1069Z" fill="#1D6CEB"/>
<path d="M17.102 12.2177C18.7182 11.4101 20.4953 12.9871 19.8803 14.6873L18.3188 19L19.8803 23.3127C20.4953 25.0129 18.7182 26.5899 17.102 25.7823L7.10879 20.7893C5.63366 20.0518 5.63366 17.9482 7.10879 17.2107L17.102 12.2177ZM18.9398 14.3476C19.2475 13.4972 18.3586 12.7074 17.5492 13.1118L7.55606 18.1049L7.42617 18.181C6.82049 18.6021 6.86402 19.549 7.55606 19.8951L17.5492 24.8882C18.3586 25.2926 19.2475 24.5028 18.9398 23.6524L17.2563 19L18.9398 14.3476Z" fill="white"/>
<path d="M38.4691 7C44.8416 7 50.0076 12.3726 50.0076 19C50.0076 25.6274 44.8416 31 38.4691 31H37.546C31.1735 31 26.0076 25.6274 26.0076 19C26.0076 12.3726 31.1735 7 37.546 7H38.4691Z" fill="white"/>
<path d="M25.0076 19C25.0076 11.8578 30.5844 6.00021 37.5457 6V7C31.1733 7.00021 26.0076 12.3727 26.0076 19L26.0115 19.3096C26.1669 25.6908 31.112 30.8342 37.2478 30.9961L37.5457 31H38.4695L38.7673 30.9961C44.9031 30.8342 49.8483 25.6908 50.0037 19.3096L50.0076 19C50.0076 12.4763 45.002 7.16841 38.7673 7.00391L38.4695 7V6C45.4307 6.00021 51.0076 11.8578 51.0076 19C51.0076 26.1422 45.4307 31.9998 38.4695 32H37.5457C30.5844 31.9998 25.0076 26.1422 25.0076 19ZM38.4695 6V7H37.5457V6H38.4695Z" fill="#1D6CEB"/>
<path d="M31.0076 22.7895C31.0076 23.5347 31.3488 24.1958 31.8826 24.6589V26.1579C31.8826 26.6211 32.2763 27 32.7576 27H33.6326C34.1182 27 34.5076 26.6211 34.5076 26.1579V25.3158H41.5076V26.1579C41.5076 26.6211 41.8969 27 42.3826 27H43.2576C43.7388 27 44.1326 26.6211 44.1326 26.1579V24.6589C44.6663 24.1958 45.0076 23.5347 45.0076 22.7895V14.3684C45.0076 11.4211 41.8751 11 38.0076 11C34.1401 11 31.0076 11.4211 31.0076 14.3684V22.7895ZM34.0701 23.6316C33.3438 23.6316 32.7576 23.0674 32.7576 22.3684C32.7576 21.6695 33.3438 21.1053 34.0701 21.1053C34.7963 21.1053 35.3826 21.6695 35.3826 22.3684C35.3826 23.0674 34.7963 23.6316 34.0701 23.6316ZM41.9451 23.6316C41.2188 23.6316 40.6326 23.0674 40.6326 22.3684C40.6326 21.6695 41.2188 21.1053 41.9451 21.1053C42.6713 21.1053 43.2576 21.6695 43.2576 22.3684C43.2576 23.0674 42.6713 23.6316 41.9451 23.6316ZM43.2576 18.5789H32.7576V14.3684H43.2576V18.5789Z" fill="#1D6CEB"/>
</g>
<defs>
<filter id="filter0_d_5857_22828" x="-5.5" y="-6" width="68" height="50" filterUnits="userSpaceOnUse" color-interpolation-filters="sRGB">
<feFlood flood-opacity="0" result="BackgroundImageFix"/>
<feColorMatrix in="SourceAlpha" type="matrix" values="0 0 0 0 0 0 0 0 0 0 0 0 0 0 0 0 0 0 127 0" result="hardAlpha"/>
<feOffset/>
<feGaussianBlur stdDeviation="3"/>
<feComposite in2="hardAlpha" operator="out"/>
<feColorMatrix type="matrix" values="0 0 0 0 0 0 0 0 0 0 0 0 0 0 0 0 0 0 0.4 0"/>
<feBlend mode="normal" in2="BackgroundImageFix" result="effect1_dropShadow_5857_22828"/>
<feBlend mode="normal" in="SourceGraphic" in2="effect1_dropShadow_5857_22828" result="shape"/>
</filter>
</defs>
</svg>
