<svg width="38" height="57" viewBox="0 0 38 57" fill="none" xmlns="http://www.w3.org/2000/svg">
<g filter="url(#filter0_d_7635_201803)">
<path d="M18.1069 49.4461C18.4761 50.1846 19.5297 50.1846 19.8989 49.4461L24.8939 39.4529C25.2985 38.6435 24.5081 37.7547 23.6573 38.0624L19.0029 39.7456L14.3485 38.0624C13.4978 37.7547 12.7074 38.6435 13.112 39.4529L18.1069 49.4461Z" fill="#757575"/>
<path d="M12.2177 39.9005C11.4101 38.2842 12.9871 36.5071 14.6873 37.1222L19 38.6837L23.3127 37.1222C25.0129 36.5071 26.5899 38.2842 25.7823 39.9005L20.7893 49.8937C20.0518 51.3688 17.9482 51.3688 17.2107 49.8937L12.2177 39.9005ZM14.3476 38.0626C13.4972 37.7549 12.7074 38.6438 13.1118 39.4532L18.1049 49.4464L18.181 49.5763C18.6021 50.182 19.549 50.1384 19.8951 49.4464L24.8882 39.4532C25.2926 38.6438 24.5028 37.7549 23.6524 38.0626L19 39.7462L14.3476 38.0626Z" fill="white"/>
<path d="M19.4615 7.00293C25.8341 7.00293 31 12.3755 31 19.0029C31 25.6303 25.8341 31.0029 19.4615 31.0029H18.5385C12.1659 31.0029 7 25.6303 7 19.0029C7 12.3755 12.1659 7.00293 18.5385 7.00293H19.4615Z" fill="white"/>
<path d="M6 19.0029C6 11.8607 11.5769 6.00314 18.5381 6.00293V7.00293C12.1657 7.00314 7 12.3756 7 19.0029L7.00391 19.3125C7.15928 25.6938 12.1045 30.8371 18.2402 30.999L18.5381 31.0029H19.4619L19.7598 30.999C25.8955 30.8371 30.8407 25.6938 30.9961 19.3125L31 19.0029C31 12.4792 25.9945 7.17134 19.7598 7.00684L19.4619 7.00293V6.00293C26.4231 6.00314 32 11.8607 32 19.0029C32 26.1452 26.4231 32.0027 19.4619 32.0029H18.5381C11.5769 32.0027 6 26.1452 6 19.0029ZM19.4619 6.00293V7.00293H18.5381V6.00293H19.4619Z" fill="#757575"/>
<path d="M23.7939 11C24.7328 11 25.4941 11.7613 25.4941 12.7002V14.5762H27V16.835H25.4941V24.9297C25.4939 25.0331 25.4101 25.1169 25.3066 25.1172C25.2028 25.1172 25.1182 25.2018 25.1182 25.3057V25.9951C25.1182 26.2376 24.9212 26.4346 24.6787 26.4346H22.7354C22.4592 26.4346 22.2354 26.2107 22.2354 25.9346V25.2168C22.2351 25.1619 22.1907 25.1174 22.1357 25.1172H15.8652C15.8103 25.1174 15.7658 25.1619 15.7656 25.2168V25.9346C15.7656 26.2107 15.5418 26.4346 15.2656 26.4346H13.3223C13.0797 26.4346 12.8828 26.2376 12.8828 25.9951V25.3057C12.8828 25.2146 12.8183 25.1387 12.7324 25.1211L12.6562 25.1133C12.5704 25.0957 12.5059 25.0198 12.5059 24.9287V16.835H11V14.5762H12.5059V12.7002C12.5059 11.7613 13.2672 11 14.2061 11H23.7939ZM14.1396 21.541V22.6709H16.3984V21.541H14.1396ZM21.6104 21.541V22.6709H23.8691V21.541H21.6104ZM13.5059 19.5H24.4941V14.5752H13.5059V19.5Z" fill="#C4C4C4"/>
<path d="M23.7939 11C24.7328 11 25.4941 11.7613 25.4941 12.7002V14.5762H27V16.835H25.4941V24.9297C25.4939 25.0331 25.4101 25.1169 25.3066 25.1172C25.2028 25.1172 25.1182 25.2018 25.1182 25.3057V25.9951C25.1182 26.2376 24.9212 26.4346 24.6787 26.4346H22.7354C22.4592 26.4346 22.2354 26.2107 22.2354 25.9346V25.2168C22.2351 25.1619 22.1907 25.1174 22.1357 25.1172H15.8652C15.8103 25.1174 15.7658 25.1619 15.7656 25.2168V25.9346C15.7656 26.2107 15.5418 26.4346 15.2656 26.4346H13.3223C13.0797 26.4346 12.8828 26.2376 12.8828 25.9951V25.3057C12.8828 25.2146 12.8183 25.1387 12.7324 25.1211L12.6562 25.1133C12.5704 25.0957 12.5059 25.0198 12.5059 24.9287V16.835H11V14.5762H12.5059V12.7002C12.5059 11.7613 13.2672 11 14.2061 11H23.7939ZM14.1396 21.541V22.6709H16.3984V21.541H14.1396ZM21.6104 21.541V22.6709H23.8691V21.541H21.6104ZM13.5059 19.5H24.4941V14.5752H13.5059V19.5Z" fill="#757575"/>
</g>
<defs>
<filter id="filter0_d_7635_201803" x="-6" y="-5.5" width="50" height="68" filterUnits="userSpaceOnUse" color-interpolation-filters="sRGB">
<feFlood flood-opacity="0" result="BackgroundImageFix"/>
<feColorMatrix in="SourceAlpha" type="matrix" values="0 0 0 0 0 0 0 0 0 0 0 0 0 0 0 0 0 0 127 0" result="hardAlpha"/>
<feOffset/>
<feGaussianBlur stdDeviation="3"/>
<feComposite in2="hardAlpha" operator="out"/>
<feColorMatrix type="matrix" values="0 0 0 0 0 0 0 0 0 0 0 0 0 0 0 0 0 0 0.4 0"/>
<feBlend mode="normal" in2="BackgroundImageFix" result="effect1_dropShadow_7635_201803"/>
<feBlend mode="normal" in="SourceGraphic" in2="effect1_dropShadow_7635_201803" result="shape"/>
</filter>
</defs>
</svg>
