<svg width="39" height="58" viewBox="0 0 39 58" fill="none" xmlns="http://www.w3.org/2000/svg">
<g filter="url(#filter0_d_5857_22900)">
<path d="M18.6069 7.55393C18.9761 6.81536 20.0297 6.81536 20.3989 7.55393L25.3939 17.5471C25.7985 18.3565 25.0081 19.2453 24.1573 18.9376L19.5029 17.2544L14.8485 18.9376C13.9978 19.2453 13.2074 18.3565 13.612 17.5471L18.6069 7.55393Z" fill="#1D6CEB"/>
<path d="M12.7177 17.0995C11.9101 18.7158 13.4871 20.4929 15.1873 19.8778L19.5 18.3163L23.8127 19.8778C25.5129 20.4929 27.0899 18.7158 26.2823 17.0995L21.2893 7.10635C20.5518 5.63121 18.4482 5.63122 17.7107 7.10635L12.7177 17.0995ZM14.8476 18.9374C13.9972 19.2451 13.2074 18.3562 13.6118 17.5468L18.6049 7.55361L18.681 7.42373C19.1021 6.81805 20.049 6.86158 20.3951 7.55361L25.3882 17.5468C25.7926 18.3562 25.0028 19.2451 24.1524 18.9374L19.5 17.2538L14.8476 18.9374Z" fill="white"/>
<path d="M19.9615 26.0029C26.3341 26.0029 31.5 31.3755 31.5 38.0029C31.5 44.6303 26.3341 50.0029 19.9615 50.0029H19.0385C12.6659 50.0029 7.5 44.6303 7.5 38.0029C7.5 31.3755 12.6659 26.0029 19.0385 26.0029H19.9615Z" fill="white"/>
<path d="M6.5 38.0029C6.5 30.8607 12.0769 25.0031 19.0381 25.0029V26.0029C12.6657 26.0031 7.5 31.3756 7.5 38.0029L7.50391 38.3125C7.65928 44.6938 12.6045 49.8371 18.7402 49.999L19.0381 50.0029H19.9619L20.2598 49.999C26.3955 49.8371 31.3407 44.6938 31.4961 38.3125L31.5 38.0029C31.5 31.4792 26.4945 26.1713 20.2598 26.0068L19.9619 26.0029V25.0029C26.9231 25.0031 32.5 30.8607 32.5 38.0029C32.5 45.1452 26.9231 51.0027 19.9619 51.0029H19.0381C12.0769 51.0027 6.5 45.1452 6.5 38.0029ZM19.9619 25.0029V26.0029H19.0381V25.0029H19.9619Z" fill="#1D6CEB"/>
<path d="M12.5 41.7924C12.5 42.5377 12.8413 43.1987 13.375 43.6619V45.1608C13.375 45.624 13.7687 46.0029 14.25 46.0029H15.125C15.6106 46.0029 16 45.624 16 45.1608V44.3187H23V45.1608C23 45.624 23.3894 46.0029 23.875 46.0029H24.75C25.2312 46.0029 25.625 45.624 25.625 45.1608V43.6619C26.1587 43.1987 26.5 42.5377 26.5 41.7924V33.3714C26.5 30.424 23.3675 30.0029 19.5 30.0029C15.6325 30.0029 12.5 30.424 12.5 33.3714V41.7924ZM15.5625 42.6345C14.8363 42.6345 14.25 42.0703 14.25 41.3714C14.25 40.6724 14.8363 40.1082 15.5625 40.1082C16.2887 40.1082 16.875 40.6724 16.875 41.3714C16.875 42.0703 16.2887 42.6345 15.5625 42.6345ZM23.4375 42.6345C22.7113 42.6345 22.125 42.0703 22.125 41.3714C22.125 40.6724 22.7113 40.1082 23.4375 40.1082C24.1637 40.1082 24.75 40.6724 24.75 41.3714C24.75 42.0703 24.1637 42.6345 23.4375 42.6345ZM24.75 37.5819H14.25V33.3714H24.75V37.5819Z" fill="#1D6CEB"/>
</g>
<defs>
<filter id="filter0_d_5857_22900" x="-5.5" y="-5" width="50" height="68" filterUnits="userSpaceOnUse" color-interpolation-filters="sRGB">
<feFlood flood-opacity="0" result="BackgroundImageFix"/>
<feColorMatrix in="SourceAlpha" type="matrix" values="0 0 0 0 0 0 0 0 0 0 0 0 0 0 0 0 0 0 127 0" result="hardAlpha"/>
<feOffset/>
<feGaussianBlur stdDeviation="3"/>
<feComposite in2="hardAlpha" operator="out"/>
<feColorMatrix type="matrix" values="0 0 0 0 0 0 0 0 0 0 0 0 0 0 0 0 0 0 0.4 0"/>
<feBlend mode="normal" in2="BackgroundImageFix" result="effect1_dropShadow_5857_22900"/>
<feBlend mode="normal" in="SourceGraphic" in2="effect1_dropShadow_5857_22900" result="shape"/>
</filter>
</defs>
</svg>
