<svg width="48" height="48" viewBox="0 0 48 48" fill="none" xmlns="http://www.w3.org/2000/svg">
<g filter="url(#filter0_d_7635_201850)">
<path d="M19.0385 7.48828C12.6659 7.48828 7.5 12.8609 7.5 19.4883C7.5 26.1157 12.6659 31.4883 19.0385 31.4883H19.9615C26.3341 31.4883 31.5 26.1157 31.5 19.4883C31.5 12.8609 26.3341 7.48828 19.9615 7.48828H19.0385Z" fill="white"/>
<path d="M32.5 19.4883C32.5 12.346 26.9231 6.48849 19.9619 6.48828V7.48828C26.3343 7.48849 31.5 12.861 31.5 19.4883L31.4961 19.7979C31.3407 26.1791 26.3955 31.3225 20.2598 31.4844L19.9619 31.4883H19.0381L18.7402 31.4844C12.6045 31.3225 7.65928 26.1791 7.50391 19.7979L7.5 19.4883C7.5 12.9646 12.5055 7.65669 18.7402 7.49219L19.0381 7.48828V6.48828C12.0769 6.48849 6.5 12.346 6.5 19.4883C6.5 26.6305 12.0769 32.4881 19.0381 32.4883H19.9619C26.9231 32.4881 32.5 26.6305 32.5 19.4883ZM19.0381 6.48828V7.48828H19.9619V6.48828H19.0381Z" fill="#757575"/>
<path d="M24.2939 11.4883C25.2328 11.4883 25.9941 12.2496 25.9941 13.1885V15.0645H27.5V17.3232H25.9941V25.418C25.9939 25.5214 25.9101 25.6052 25.8066 25.6055C25.7028 25.6055 25.6182 25.6901 25.6182 25.7939V26.4834C25.6182 26.7259 25.4212 26.9229 25.1787 26.9229H23.2354C22.9592 26.9229 22.7354 26.699 22.7354 26.4229V25.7051C22.7351 25.6502 22.6907 25.6057 22.6357 25.6055H16.3652C16.3103 25.6057 16.2658 25.6502 16.2656 25.7051V26.4229C16.2656 26.699 16.0418 26.9229 15.7656 26.9229H13.8223C13.5797 26.9229 13.3828 26.7259 13.3828 26.4834V25.7939C13.3828 25.7029 13.3183 25.627 13.2324 25.6094L13.1562 25.6016C13.0704 25.5839 13.0059 25.508 13.0059 25.417V17.3232H11.5V15.0645H13.0059V13.1885C13.0059 12.2496 13.7672 11.4883 14.7061 11.4883H24.2939ZM14.6396 22.0293V23.1592H16.8984V22.0293H14.6396ZM22.1104 22.0293V23.1592H24.3691V22.0293H22.1104ZM14.0059 19.9883H24.9941V15.0635H14.0059V19.9883Z" fill="#C4C4C4"/>
<path d="M24.2939 11.4883C25.2328 11.4883 25.9941 12.2496 25.9941 13.1885V15.0645H27.5V17.3232H25.9941V25.418C25.9939 25.5214 25.9101 25.6052 25.8066 25.6055C25.7028 25.6055 25.6182 25.6901 25.6182 25.7939V26.4834C25.6182 26.7259 25.4212 26.9229 25.1787 26.9229H23.2354C22.9592 26.9229 22.7354 26.699 22.7354 26.4229V25.7051C22.7351 25.6502 22.6907 25.6057 22.6357 25.6055H16.3652C16.3103 25.6057 16.2658 25.6502 16.2656 25.7051V26.4229C16.2656 26.699 16.0418 26.9229 15.7656 26.9229H13.8223C13.5797 26.9229 13.3828 26.7259 13.3828 26.4834V25.7939C13.3828 25.7029 13.3183 25.627 13.2324 25.6094L13.1562 25.6016C13.0704 25.5839 13.0059 25.508 13.0059 25.417V17.3232H11.5V15.0645H13.0059V13.1885C13.0059 12.2496 13.7672 11.4883 14.7061 11.4883H24.2939ZM14.6396 22.0293V23.1592H16.8984V22.0293H14.6396ZM22.1104 22.0293V23.1592H24.3691V22.0293H22.1104ZM14.0059 19.9883H24.9941V15.0635H14.0059V19.9883Z" fill="#757575"/>
<path d="M40.9514 39.6806C41.2126 40.4639 40.4676 41.209 39.6843 40.9478L29.0861 37.4135C28.2277 37.1272 28.1581 35.9399 28.9772 35.5559L33.4586 33.455L35.5595 28.9736C35.9436 28.1544 37.1309 28.224 37.4172 29.0824L40.9514 39.6806Z" fill="#757575"/>
<path d="M38.3659 28.7665C37.7941 27.0526 35.4224 26.9111 34.6551 28.5482L32.7097 32.7019L28.556 34.6472C26.9189 35.4146 27.0604 37.7863 28.7743 38.3581L39.3711 41.8938C40.9357 42.4154 42.4232 40.9279 41.9016 39.3633L38.3659 28.7665ZM35.5595 28.9736C35.9436 28.1544 37.1309 28.224 37.4172 29.0824L40.953 39.6793L40.991 39.825C41.1216 40.551 40.4212 41.1898 39.6871 40.9452L29.0903 37.4096C28.232 37.1232 28.1619 35.9362 28.9808 35.5524L33.461 33.4532L35.5595 28.9736Z" fill="white"/>
</g>
<defs>
<filter id="filter0_d_7635_201850" x="-6" y="-6" width="60" height="60" filterUnits="userSpaceOnUse" color-interpolation-filters="sRGB">
<feFlood flood-opacity="0" result="BackgroundImageFix"/>
<feColorMatrix in="SourceAlpha" type="matrix" values="0 0 0 0 0 0 0 0 0 0 0 0 0 0 0 0 0 0 127 0" result="hardAlpha"/>
<feOffset/>
<feGaussianBlur stdDeviation="3"/>
<feComposite in2="hardAlpha" operator="out"/>
<feColorMatrix type="matrix" values="0 0 0 0 0 0 0 0 0 0 0 0 0 0 0 0 0 0 0.4 0"/>
<feBlend mode="normal" in2="BackgroundImageFix" result="effect1_dropShadow_7635_201850"/>
<feBlend mode="normal" in="SourceGraphic" in2="effect1_dropShadow_7635_201850" result="shape"/>
</filter>
</defs>
</svg>
