<svg width="57" height="38" viewBox="0 0 57 38" fill="none" xmlns="http://www.w3.org/2000/svg">
<g filter="url(#filter0_d_6350_119527)">
<path d="M49.4488 18.1069C50.1873 18.4761 50.1873 19.5297 49.4488 19.8989L39.4556 24.8939C38.6462 25.2985 37.7574 24.5081 38.0651 23.6573L39.7483 19.0029L38.0651 14.3485C37.7574 13.4978 38.6462 12.7074 39.4556 13.112L49.4488 18.1069Z" fill="#1D6CEB"/>
<path d="M39.9031 12.2177C38.2868 11.4101 36.5097 12.9871 37.1247 14.6873L38.6863 19L37.1247 23.3127C36.5097 25.0129 38.2868 26.5899 39.9031 25.7823L49.8962 20.7893C51.3713 20.0518 51.3713 17.9482 49.8962 17.2107L39.9031 12.2177ZM38.0652 14.3476C37.7575 13.4972 38.6464 12.7074 39.4558 13.1118L49.4489 18.1049L49.5788 18.181C50.1845 18.6021 50.141 19.549 49.4489 19.8951L39.4558 24.8882C38.6464 25.2926 37.7575 24.5028 38.0652 23.6524L39.7488 19L38.0652 14.3476Z" fill="white"/>
<path d="M18.5385 7C12.1659 7 7 12.3726 7 19C7 25.6274 12.1659 31 18.5385 31H19.4615C25.8341 31 31 25.6274 31 19C31 12.3726 25.8341 7 19.4615 7H18.5385Z" fill="white"/>
<path d="M32 19C32 11.8578 26.4231 6.00021 19.4619 6V7C25.8343 7.00021 31 12.3727 31 19L30.9961 19.3096C30.8407 25.6908 25.8955 30.8342 19.7598 30.9961L19.4619 31H18.5381L18.2402 30.9961C12.1045 30.8342 7.15928 25.6908 7.00391 19.3096L7 19C7 12.4763 12.0055 7.16841 18.2402 7.00391L18.5381 7V6C11.5769 6.00021 6 11.8578 6 19C6 26.1422 11.5769 31.9998 18.5381 32H19.4619C26.4231 31.9998 32 26.1422 32 19ZM18.5381 6V7H19.4619V6H18.5381Z" fill="#1D6CEB"/>
<path d="M26 22.7895C26 23.5347 25.6587 24.1958 25.125 24.6589V26.1579C25.125 26.6211 24.7313 27 24.25 27H23.375C22.8894 27 22.5 26.6211 22.5 26.1579V25.3158H15.5V26.1579C15.5 26.6211 15.1106 27 14.625 27H13.75C13.2688 27 12.875 26.6211 12.875 26.1579V24.6589C12.3413 24.1958 12 23.5347 12 22.7895V14.3684C12 11.4211 15.1325 11 19 11C22.8675 11 26 11.4211 26 14.3684V22.7895ZM22.9375 23.6316C23.6637 23.6316 24.25 23.0674 24.25 22.3684C24.25 21.6695 23.6637 21.1053 22.9375 21.1053C22.2113 21.1053 21.625 21.6695 21.625 22.3684C21.625 23.0674 22.2113 23.6316 22.9375 23.6316ZM15.0625 23.6316C15.7887 23.6316 16.375 23.0674 16.375 22.3684C16.375 21.6695 15.7887 21.1053 15.0625 21.1053C14.3363 21.1053 13.75 21.6695 13.75 22.3684C13.75 23.0674 14.3363 23.6316 15.0625 23.6316ZM13.75 18.5789H24.25V14.3684H13.75V18.5789Z" fill="#1D6CEB"/>
</g>
<defs>
<filter id="filter0_d_6350_119527" x="-5.495" y="-6" width="68" height="50" filterUnits="userSpaceOnUse" color-interpolation-filters="sRGB">
<feFlood flood-opacity="0" result="BackgroundImageFix"/>
<feColorMatrix in="SourceAlpha" type="matrix" values="0 0 0 0 0 0 0 0 0 0 0 0 0 0 0 0 0 0 127 0" result="hardAlpha"/>
<feOffset/>
<feGaussianBlur stdDeviation="3"/>
<feComposite in2="hardAlpha" operator="out"/>
<feColorMatrix type="matrix" values="0 0 0 0 0 0 0 0 0 0 0 0 0 0 0 0 0 0 0.4 0"/>
<feBlend mode="normal" in2="BackgroundImageFix" result="effect1_dropShadow_6350_119527"/>
<feBlend mode="normal" in="SourceGraphic" in2="effect1_dropShadow_6350_119527" result="shape"/>
</filter>
</defs>
</svg>
