<svg width="48" height="48" viewBox="0 0 48 48" fill="none" xmlns="http://www.w3.org/2000/svg">
<g filter="url(#filter0_d_6350_119536)">
<path d="M28.9698 7.48828C35.3424 7.48828 40.5083 12.8609 40.5083 19.4883C40.5083 26.1157 35.3424 31.4883 28.9698 31.4883H28.0468C21.6742 31.4883 16.5083 26.1157 16.5083 19.4883C16.5083 12.8609 21.6742 7.48828 28.0468 7.48828H28.9698Z" fill="white"/>
<path d="M15.5083 19.4883C15.5083 12.346 21.0852 6.48849 28.0464 6.48828V7.48828C21.674 7.48849 16.5083 12.861 16.5083 19.4883L16.5122 19.7979C16.6676 26.1791 21.6128 31.3225 27.7485 31.4844L28.0464 31.4883H28.9702L29.2681 31.4844C35.4038 31.3225 40.349 26.1791 40.5044 19.7979L40.5083 19.4883C40.5083 12.9646 35.5028 7.65669 29.2681 7.49219L28.9702 7.48828V6.48828C35.9314 6.48849 41.5083 12.346 41.5083 19.4883C41.5083 26.6305 35.9314 32.4881 28.9702 32.4883H28.0464C21.0852 32.4881 15.5083 26.6305 15.5083 19.4883ZM28.9702 6.48828V7.48828H28.0464V6.48828H28.9702Z" fill="#1D6CEB"/>
<path d="M21.5083 23.2778C21.5083 24.023 21.8496 24.6841 22.3833 25.1472V26.6462C22.3833 27.1093 22.7771 27.4883 23.2583 27.4883H24.1333C24.6189 27.4883 25.0083 27.1093 25.0083 26.6462V25.8041H32.0083V26.6462C32.0083 27.1093 32.3977 27.4883 32.8833 27.4883H33.7583C34.2396 27.4883 34.6333 27.1093 34.6333 26.6462V25.1472C35.1671 24.6841 35.5083 24.023 35.5083 23.2778V14.8567C35.5083 11.9093 32.3758 11.4883 28.5083 11.4883C24.6408 11.4883 21.5083 11.9093 21.5083 14.8567V23.2778ZM24.5708 24.1199C23.8446 24.1199 23.2583 23.5556 23.2583 22.8567C23.2583 22.1578 23.8446 21.5935 24.5708 21.5935C25.2971 21.5935 25.8833 22.1578 25.8833 22.8567C25.8833 23.5556 25.2971 24.1199 24.5708 24.1199ZM32.4458 24.1199C31.7196 24.1199 31.1333 23.5556 31.1333 22.8567C31.1333 22.1578 31.7196 21.5935 32.4458 21.5935C33.1721 21.5935 33.7583 22.1578 33.7583 22.8567C33.7583 23.5556 33.1721 24.1199 32.4458 24.1199ZM33.7583 19.0672H23.2583V14.8567H33.7583V19.0672Z" fill="#1D6CEB"/>
<path d="M7.05638 39.6806C6.79517 40.4639 7.5402 41.209 8.32349 40.9478L18.9217 37.4135C19.7801 37.1272 19.8497 35.9399 19.0306 35.5559L14.5492 33.455L12.4483 28.9736C12.0642 28.1544 10.8769 28.224 10.5906 29.0824L7.05638 39.6806Z" fill="#1D6CEB"/>
<path d="M9.64187 28.7665C10.2137 27.0526 12.5854 26.9111 13.3528 28.5482L15.2981 32.7019L19.4518 34.6472C21.0889 35.4146 20.9474 37.7863 19.2335 38.3581L8.63668 41.8938C7.07213 42.4154 5.58464 40.9279 6.10624 39.3633L9.64187 28.7665ZM12.4483 28.9736C12.0642 28.1544 10.8769 28.224 10.5906 29.0824L7.05477 39.6793L7.01677 39.825C6.88623 40.551 7.58662 41.1898 8.32068 40.9452L18.9175 37.4096C19.7758 37.1232 19.8459 35.9362 19.027 35.5524L14.5468 33.4532L12.4483 28.9736Z" fill="white"/>
</g>
<defs>
<filter id="filter0_d_6350_119536" x="-5.9917" y="-6" width="60" height="60" filterUnits="userSpaceOnUse" color-interpolation-filters="sRGB">
<feFlood flood-opacity="0" result="BackgroundImageFix"/>
<feColorMatrix in="SourceAlpha" type="matrix" values="0 0 0 0 0 0 0 0 0 0 0 0 0 0 0 0 0 0 127 0" result="hardAlpha"/>
<feOffset/>
<feGaussianBlur stdDeviation="3"/>
<feComposite in2="hardAlpha" operator="out"/>
<feColorMatrix type="matrix" values="0 0 0 0 0 0 0 0 0 0 0 0 0 0 0 0 0 0 0.4 0"/>
<feBlend mode="normal" in2="BackgroundImageFix" result="effect1_dropShadow_6350_119536"/>
<feBlend mode="normal" in="SourceGraphic" in2="effect1_dropShadow_6350_119536" result="shape"/>
</filter>
</defs>
</svg>
