<svg width="56" height="65" viewBox="0 0 56 65" fill="none" xmlns="http://www.w3.org/2000/svg">
<g filter="url(#filter0_d_7065_10217)">
<path d="M45.5996 28.6213C45.5996 38.4352 33.9436 50.2456 29.391 54.4843C28.3651 55.4394 26.8341 55.4394 25.8083 54.4843C21.2556 50.2456 9.59961 38.4352 9.59961 28.6213C9.59961 18.1164 17.6585 9.60059 27.5996 9.60059C37.5407 9.60059 45.5996 18.1164 45.5996 28.6213Z" fill="#1D6CEB"/>
<path d="M45.6002 28.6209C45.6002 18.1161 37.5413 9.6002 27.6002 9.6002C17.6591 9.6002 9.6002 18.1161 9.6002 28.6209L9.6084 29.0826C9.96264 38.8022 21.3269 50.3117 25.8084 54.4842C26.7702 55.3797 28.1767 55.4355 29.1939 54.6518L29.392 54.4842C33.8735 50.3117 45.2378 38.8022 45.592 29.0826L45.6002 28.6209ZM48.0002 28.6209C48.0002 34.3481 44.667 40.2926 41.133 45.0705C37.5252 49.9483 33.3532 54.0749 31.0268 56.2408C29.0795 58.0535 26.1209 58.0535 24.1736 56.2408C21.8472 54.0749 17.6752 49.9483 14.0674 45.0705C10.5334 40.2926 7.2002 34.3481 7.2002 28.6209C7.2002 16.917 16.2106 7.2002 27.6002 7.2002C38.9898 7.2002 48.0002 16.917 48.0002 28.6209Z" fill="white"/>
<path d="M35.8282 36.3718H34.2854V19.4004H20.914V36.3718H19.3711V37.4004H35.8282V36.3718ZM30.5825 22.589H31.6111V30.4781H30.5825V22.589ZM27.0854 22.589H28.114V30.4781H27.0854V22.589ZM23.5882 22.589H24.6168V30.4781H23.5882V22.589ZM26.0568 33.2861H29.1425V36.3718H26.0568V33.2861Z" fill="white"/>
</g>
<defs>
<filter id="filter0_d_7065_10217" x="-7.2" y="-7.2" width="69.6002" height="79.1998" filterUnits="userSpaceOnUse" color-interpolation-filters="sRGB">
<feFlood flood-opacity="0" result="BackgroundImageFix"/>
<feColorMatrix in="SourceAlpha" type="matrix" values="0 0 0 0 0 0 0 0 0 0 0 0 0 0 0 0 0 0 127 0" result="hardAlpha"/>
<feOffset/>
<feGaussianBlur stdDeviation="3.6"/>
<feComposite in2="hardAlpha" operator="out"/>
<feColorMatrix type="matrix" values="0 0 0 0 0 0 0 0 0 0 0 0 0 0 0 0 0 0 0.4 0"/>
<feBlend mode="normal" in2="BackgroundImageFix" result="effect1_dropShadow_7065_10217"/>
<feBlend mode="normal" in="SourceGraphic" in2="effect1_dropShadow_7065_10217" result="shape"/>
</filter>
</defs>
</svg>
