<svg width="48" height="48" viewBox="0 0 48 48" fill="none" xmlns="http://www.w3.org/2000/svg">
<g filter="url(#filter0_d_7635_201860)">
<path d="M19.0385 16.5117C12.6659 16.5117 7.5 21.8843 7.5 28.5117C7.5 35.1391 12.6659 40.5117 19.0385 40.5117H19.9615C26.3341 40.5117 31.5 35.1391 31.5 28.5117C31.5 21.8843 26.3341 16.5117 19.9615 16.5117H19.0385Z" fill="white"/>
<path d="M32.5 28.5117C32.5 21.3695 26.9231 15.5119 19.9619 15.5117V16.5117C26.3343 16.5119 31.5 21.8844 31.5 28.5117L31.4961 28.8213C31.3407 35.2026 26.3955 40.3459 20.2598 40.5078L19.9619 40.5117H19.0381L18.7402 40.5078C12.6045 40.3459 7.65928 35.2026 7.50391 28.8213L7.5 28.5117C7.5 21.988 12.5055 16.6801 18.7402 16.5156L19.0381 16.5117V15.5117C12.0769 15.5119 6.5 21.3695 6.5 28.5117C6.5 35.654 12.0769 41.5115 19.0381 41.5117H19.9619C26.9231 41.5115 32.5 35.654 32.5 28.5117ZM19.0381 15.5117V16.5117H19.9619V15.5117H19.0381Z" fill="#757575"/>
<path d="M24.2939 20.5117C25.2328 20.5117 25.9941 21.273 25.9941 22.2119V24.0879H27.5V26.3467H25.9941V34.4414C25.9939 34.5448 25.9101 34.6286 25.8066 34.6289C25.7028 34.6289 25.6182 34.7136 25.6182 34.8174V35.5068C25.6182 35.7494 25.4212 35.9463 25.1787 35.9463H23.2354C22.9592 35.9463 22.7354 35.7224 22.7354 35.4463V34.7285C22.7351 34.6736 22.6907 34.6291 22.6357 34.6289H16.3652C16.3103 34.6291 16.2658 34.6736 16.2656 34.7285V35.4463C16.2656 35.7224 16.0418 35.9463 15.7656 35.9463H13.8223C13.5797 35.9463 13.3828 35.7494 13.3828 35.5068V34.8174C13.3828 34.7263 13.3183 34.6504 13.2324 34.6328L13.1562 34.625C13.0704 34.6074 13.0059 34.5315 13.0059 34.4404V26.3467H11.5V24.0879H13.0059V22.2119C13.0059 21.273 13.7672 20.5117 14.7061 20.5117H24.2939ZM14.6396 31.0527V32.1826H16.8984V31.0527H14.6396ZM22.1104 31.0527V32.1826H24.3691V31.0527H22.1104ZM14.0059 29.0117H24.9941V24.0869H14.0059V29.0117Z" fill="#C4C4C4"/>
<path d="M24.2939 20.5117C25.2328 20.5117 25.9941 21.273 25.9941 22.2119V24.0879H27.5V26.3467H25.9941V34.4414C25.9939 34.5448 25.9101 34.6286 25.8066 34.6289C25.7028 34.6289 25.6182 34.7136 25.6182 34.8174V35.5068C25.6182 35.7494 25.4212 35.9463 25.1787 35.9463H23.2354C22.9592 35.9463 22.7354 35.7224 22.7354 35.4463V34.7285C22.7351 34.6736 22.6907 34.6291 22.6357 34.6289H16.3652C16.3103 34.6291 16.2658 34.6736 16.2656 34.7285V35.4463C16.2656 35.7224 16.0418 35.9463 15.7656 35.9463H13.8223C13.5797 35.9463 13.3828 35.7494 13.3828 35.5068V34.8174C13.3828 34.7263 13.3183 34.6504 13.2324 34.6328L13.1562 34.625C13.0704 34.6074 13.0059 34.5315 13.0059 34.4404V26.3467H11.5V24.0879H13.0059V22.2119C13.0059 21.273 13.7672 20.5117 14.7061 20.5117H24.2939ZM14.6396 31.0527V32.1826H16.8984V31.0527H14.6396ZM22.1104 31.0527V32.1826H24.3691V31.0527H22.1104ZM14.0059 29.0117H24.9941V24.0869H14.0059V29.0117Z" fill="#757575"/>
<path d="M40.9514 8.31935C41.2126 7.53606 40.4676 6.79103 39.6843 7.05223L29.0861 10.5865C28.2277 10.8728 28.1581 12.0601 28.9772 12.4441L33.4586 14.545L35.5595 19.0264C35.9436 19.8456 37.1309 19.776 37.4172 18.9176L40.9514 8.31935Z" fill="#757575"/>
<path d="M38.3659 19.2335C37.7941 20.9474 35.4224 21.0889 34.6551 19.4518L32.7097 15.2981L28.556 13.3528C26.9189 12.5854 27.0604 10.2137 28.7743 9.64187L39.3711 6.10624C40.9357 5.58464 42.4232 7.07214 41.9016 8.63669L38.3659 19.2335ZM35.5595 19.0264C35.9436 19.8456 37.1309 19.776 37.4172 18.9176L40.953 8.32068L40.991 8.175C41.1216 7.44898 40.4212 6.81015 39.6871 7.05477L29.0903 10.5904C28.232 10.8768 28.1619 12.0638 28.9808 12.4476L33.461 14.5468L35.5595 19.0264Z" fill="white"/>
</g>
<defs>
<filter id="filter0_d_7635_201860" x="-6" y="-6" width="60" height="60" filterUnits="userSpaceOnUse" color-interpolation-filters="sRGB">
<feFlood flood-opacity="0" result="BackgroundImageFix"/>
<feColorMatrix in="SourceAlpha" type="matrix" values="0 0 0 0 0 0 0 0 0 0 0 0 0 0 0 0 0 0 127 0" result="hardAlpha"/>
<feOffset/>
<feGaussianBlur stdDeviation="3"/>
<feComposite in2="hardAlpha" operator="out"/>
<feColorMatrix type="matrix" values="0 0 0 0 0 0 0 0 0 0 0 0 0 0 0 0 0 0 0.4 0"/>
<feBlend mode="normal" in2="BackgroundImageFix" result="effect1_dropShadow_7635_201860"/>
<feBlend mode="normal" in="SourceGraphic" in2="effect1_dropShadow_7635_201860" result="shape"/>
</filter>
</defs>
</svg>
