<svg width="57" height="38" viewBox="0 0 57 38" fill="none" xmlns="http://www.w3.org/2000/svg">
<g filter="url(#filter0_d_7635_201791)">
<path d="M49.449 18.1069C50.1876 18.4761 50.1876 19.5297 49.449 19.8989L39.4558 24.8939C38.6464 25.2985 37.7576 24.5081 38.0653 23.6573L39.7485 19.0029L38.0653 14.3485C37.7576 13.4978 38.6464 12.7074 39.4558 13.112L49.449 18.1069Z" fill="#757575"/>
<path d="M39.9034 12.2177C38.2871 11.4101 36.5101 12.9871 37.1251 14.6873L38.6866 19L37.1251 23.3127C36.5101 25.0129 38.2871 26.5899 39.9034 25.7823L49.8966 20.7893C51.3717 20.0518 51.3717 17.9482 49.8966 17.2107L39.9034 12.2177ZM38.0655 14.3476C37.7578 13.4972 38.6467 12.7074 39.4562 13.1118L49.4493 18.1049L49.5792 18.181C50.1849 18.6021 50.1414 19.549 49.4493 19.8951L39.4562 24.8882C38.6467 25.2926 37.7578 24.5028 38.0655 23.6524L39.7491 19L38.0655 14.3476Z" fill="white"/>
<path d="M18.5385 7C12.1659 7 7 12.3726 7 19C7 25.6274 12.1659 31 18.5385 31H19.4615C25.8341 31 31 25.6274 31 19C31 12.3726 25.8341 7 19.4615 7H18.5385Z" fill="white"/>
<path d="M32 19C32 11.8578 26.4231 6.00021 19.4619 6V7C25.8343 7.00021 31 12.3727 31 19L30.9961 19.3096C30.8407 25.6908 25.8955 30.8342 19.7598 30.9961L19.4619 31H18.5381L18.2402 30.9961C12.1045 30.8342 7.15928 25.6908 7.00391 19.3096L7 19C7 12.4763 12.0055 7.16841 18.2402 7.00391L18.5381 7V6C11.5769 6.00021 6 11.8578 6 19C6 26.1422 11.5769 31.9998 18.5381 32H19.4619C26.4231 31.9998 32 26.1422 32 19ZM18.5381 6V7H19.4619V6H18.5381Z" fill="#757575"/>
<path d="M23.7988 11C24.7377 11 25.499 11.7613 25.499 12.7002V14.5762H27.0049V16.835H25.499V24.9297C25.4988 25.0331 25.415 25.1169 25.3115 25.1172C25.2077 25.1172 25.123 25.2018 25.123 25.3057V25.9951C25.123 26.2376 24.9261 26.4346 24.6836 26.4346H22.7402C22.4641 26.4346 22.2402 26.2107 22.2402 25.9346V25.2168C22.24 25.1619 22.1955 25.1174 22.1406 25.1172H15.8701C15.8152 25.1174 15.7707 25.1619 15.7705 25.2168V25.9346C15.7705 26.2107 15.5466 26.4346 15.2705 26.4346H13.3271C13.0846 26.4346 12.8877 26.2376 12.8877 25.9951V25.3057C12.8877 25.2146 12.8231 25.1387 12.7373 25.1211L12.6611 25.1133C12.5753 25.0957 12.5107 25.0198 12.5107 24.9287V16.835H11.0049V14.5762H12.5107V12.7002C12.5107 11.7613 13.2721 11 14.2109 11H23.7988ZM14.1445 21.541V22.6709H16.4033V21.541H14.1445ZM21.6152 21.541V22.6709H23.874V21.541H21.6152ZM13.5107 19.5H24.499V14.5752H13.5107V19.5Z" fill="#C4C4C4"/>
<path d="M23.7988 11C24.7377 11 25.499 11.7613 25.499 12.7002V14.5762H27.0049V16.835H25.499V24.9297C25.4988 25.0331 25.415 25.1169 25.3115 25.1172C25.2077 25.1172 25.123 25.2018 25.123 25.3057V25.9951C25.123 26.2376 24.9261 26.4346 24.6836 26.4346H22.7402C22.4641 26.4346 22.2402 26.2107 22.2402 25.9346V25.2168C22.24 25.1619 22.1955 25.1174 22.1406 25.1172H15.8701C15.8152 25.1174 15.7707 25.1619 15.7705 25.2168V25.9346C15.7705 26.2107 15.5466 26.4346 15.2705 26.4346H13.3271C13.0846 26.4346 12.8877 26.2376 12.8877 25.9951V25.3057C12.8877 25.2146 12.8231 25.1387 12.7373 25.1211L12.6611 25.1133C12.5753 25.0957 12.5107 25.0198 12.5107 24.9287V16.835H11.0049V14.5762H12.5107V12.7002C12.5107 11.7613 13.2721 11 14.2109 11H23.7988ZM14.1445 21.541V22.6709H16.4033V21.541H14.1445ZM21.6152 21.541V22.6709H23.874V21.541H21.6152ZM13.5107 19.5H24.499V14.5752H13.5107V19.5Z" fill="#757575"/>
</g>
<defs>
<filter id="filter0_d_7635_201791" x="-5.49512" y="-6" width="68" height="50" filterUnits="userSpaceOnUse" color-interpolation-filters="sRGB">
<feFlood flood-opacity="0" result="BackgroundImageFix"/>
<feColorMatrix in="SourceAlpha" type="matrix" values="0 0 0 0 0 0 0 0 0 0 0 0 0 0 0 0 0 0 127 0" result="hardAlpha"/>
<feOffset/>
<feGaussianBlur stdDeviation="3"/>
<feComposite in2="hardAlpha" operator="out"/>
<feColorMatrix type="matrix" values="0 0 0 0 0 0 0 0 0 0 0 0 0 0 0 0 0 0 0.4 0"/>
<feBlend mode="normal" in2="BackgroundImageFix" result="effect1_dropShadow_7635_201791"/>
<feBlend mode="normal" in="SourceGraphic" in2="effect1_dropShadow_7635_201791" result="shape"/>
</filter>
</defs>
</svg>
