<svg width="48" height="48" viewBox="0 0 48 48" fill="none" xmlns="http://www.w3.org/2000/svg">
<g filter="url(#filter0_d_6350_119450)">
<path d="M19.0383 16.5117C12.6658 16.5117 7.49988 21.8843 7.49988 28.5117C7.49988 35.1391 12.6658 40.5117 19.0383 40.5117H19.9614C26.3339 40.5117 31.4999 35.1391 31.4999 28.5117C31.4999 21.8843 26.3339 16.5117 19.9614 16.5117H19.0383Z" fill="white"/>
<path d="M32.4999 28.5117C32.4999 21.3695 26.923 15.5119 19.9618 15.5117V16.5117C26.3341 16.5119 31.4999 21.8844 31.4999 28.5117L31.496 28.8213C31.3406 35.2026 26.3954 40.3459 20.2596 40.5078L19.9618 40.5117H19.038L18.7401 40.5078C12.6043 40.3459 7.65916 35.2026 7.50378 28.8213L7.49988 28.5117C7.49988 21.988 12.5054 16.6801 18.7401 16.5156L19.038 16.5117V15.5117C12.0767 15.5119 6.49988 21.3695 6.49988 28.5117C6.49988 35.654 12.0767 41.5115 19.038 41.5117H19.9618C26.923 41.5115 32.4999 35.654 32.4999 28.5117ZM19.038 15.5117V16.5117H19.9618V15.5117H19.038Z" fill="#1D6CEB"/>
<path d="M26.4999 32.3012C26.4999 33.0465 26.1586 33.7075 25.6249 34.1707V35.6696C25.6249 36.1328 25.2311 36.5117 24.7499 36.5117H23.8749C23.3893 36.5117 22.9999 36.1328 22.9999 35.6696V34.8275H15.9999V35.6696C15.9999 36.1328 15.6105 36.5117 15.1249 36.5117H14.2499C13.7686 36.5117 13.3749 36.1328 13.3749 35.6696V34.1707C12.8411 33.7075 12.4999 33.0465 12.4999 32.3012V23.8801C12.4999 20.9328 15.6324 20.5117 19.4999 20.5117C23.3674 20.5117 26.4999 20.9328 26.4999 23.8801V32.3012ZM23.4374 33.1433C24.1636 33.1433 24.7499 32.5791 24.7499 31.8801C24.7499 31.1812 24.1636 30.617 23.4374 30.617C22.7111 30.617 22.1249 31.1812 22.1249 31.8801C22.1249 32.5791 22.7111 33.1433 23.4374 33.1433ZM15.5624 33.1433C16.2886 33.1433 16.8749 32.5791 16.8749 31.8801C16.8749 31.1812 16.2886 30.617 15.5624 30.617C14.8361 30.617 14.2499 31.1812 14.2499 31.8801C14.2499 32.5791 14.8361 33.1433 15.5624 33.1433ZM14.2499 28.0907H24.7499V23.8801H14.2499V28.0907Z" fill="#1D6CEB"/>
<path d="M40.9518 8.31935C41.213 7.53606 40.468 6.79103 39.6847 7.05223L29.0865 10.5865C28.228 10.8728 28.1585 12.0601 28.9776 12.4441L33.459 14.545L35.5599 19.0264C35.9439 19.8456 37.1313 19.776 37.4175 18.9176L40.9518 8.31935Z" fill="#1D6CEB"/>
<path d="M38.3663 19.2335C37.7944 20.9474 35.4227 21.0889 34.6554 19.4518L32.7101 15.2981L28.5564 13.3528C26.9193 12.5854 27.0608 10.2137 28.7747 9.64187L39.3715 6.10624C40.936 5.58464 42.4235 7.07214 41.9019 8.63669L38.3663 19.2335ZM35.5599 19.0264C35.9439 19.8456 37.1313 19.776 37.4175 18.9176L40.9534 8.32068L40.9914 8.175C41.122 7.44898 40.4216 6.81015 39.6875 7.05477L29.0907 10.5904C28.2324 10.8768 28.1623 12.0638 28.9812 12.4476L33.4614 14.5468L35.5599 19.0264Z" fill="white"/>
</g>
<defs>
<filter id="filter0_d_6350_119450" x="-6" y="-6" width="60" height="60" filterUnits="userSpaceOnUse" color-interpolation-filters="sRGB">
<feFlood flood-opacity="0" result="BackgroundImageFix"/>
<feColorMatrix in="SourceAlpha" type="matrix" values="0 0 0 0 0 0 0 0 0 0 0 0 0 0 0 0 0 0 127 0" result="hardAlpha"/>
<feOffset/>
<feGaussianBlur stdDeviation="3"/>
<feComposite in2="hardAlpha" operator="out"/>
<feColorMatrix type="matrix" values="0 0 0 0 0 0 0 0 0 0 0 0 0 0 0 0 0 0 0.4 0"/>
<feBlend mode="normal" in2="BackgroundImageFix" result="effect1_dropShadow_6350_119450"/>
<feBlend mode="normal" in="SourceGraphic" in2="effect1_dropShadow_6350_119450" result="shape"/>
</filter>
</defs>
</svg>
