<svg width="48" height="48" viewBox="0 0 48 48" fill="none" xmlns="http://www.w3.org/2000/svg">
<g filter="url(#filter0_d_7635_201839)">
<path d="M28.9694 7.48828C35.3419 7.48828 40.5078 12.8609 40.5078 19.4883C40.5078 26.1157 35.3419 31.4883 28.9694 31.4883H28.0463C21.6738 31.4883 16.5078 26.1157 16.5078 19.4883C16.5078 12.8609 21.6738 7.48828 28.0463 7.48828H28.9694Z" fill="white"/>
<path d="M15.5078 19.4883C15.5078 12.346 21.0847 6.48849 28.0459 6.48828V7.48828C21.6736 7.48849 16.5078 12.861 16.5078 19.4883L16.5117 19.7979C16.6671 26.1791 21.6123 31.3225 27.748 31.4844L28.0459 31.4883H28.9697L29.2676 31.4844C35.4033 31.3225 40.3485 26.1791 40.5039 19.7979L40.5078 19.4883C40.5078 12.9646 35.5023 7.65669 29.2676 7.49219L28.9697 7.48828V6.48828C35.931 6.48849 41.5078 12.346 41.5078 19.4883C41.5078 26.6305 35.931 32.4881 28.9697 32.4883H28.0459C21.0847 32.4881 15.5078 26.6305 15.5078 19.4883ZM28.9697 6.48828V7.48828H28.0459V6.48828H28.9697Z" fill="#757575"/>
<path d="M33.3018 11.4883C34.2406 11.4883 35.002 12.2496 35.002 13.1885V15.0645H36.5078V17.3232H35.002V25.418C35.0017 25.5214 34.9179 25.6052 34.8145 25.6055C34.7106 25.6055 34.626 25.6901 34.626 25.7939V26.4834C34.626 26.7259 34.429 26.9229 34.1865 26.9229H32.2432C31.967 26.9229 31.7432 26.699 31.7432 26.4229V25.7051C31.743 25.6502 31.6985 25.6057 31.6436 25.6055H25.373C25.3181 25.6057 25.2736 25.6502 25.2734 25.7051V26.4229C25.2734 26.699 25.0496 26.9229 24.7734 26.9229H22.8301C22.5876 26.9229 22.3906 26.7259 22.3906 26.4834V25.7939C22.3906 25.7029 22.3261 25.627 22.2402 25.6094L22.1641 25.6016C22.0782 25.5839 22.0137 25.508 22.0137 25.417V17.3232H20.5078V15.0645H22.0137V13.1885C22.0137 12.2496 22.775 11.4883 23.7139 11.4883H33.3018ZM23.6475 22.0293V23.1592H25.9062V22.0293H23.6475ZM31.1182 22.0293V23.1592H33.377V22.0293H31.1182ZM23.0137 19.9883H34.002V15.0635H23.0137V19.9883Z" fill="#C4C4C4"/>
<path d="M33.3018 11.4883C34.2406 11.4883 35.002 12.2496 35.002 13.1885V15.0645H36.5078V17.3232H35.002V25.418C35.0017 25.5214 34.9179 25.6052 34.8145 25.6055C34.7106 25.6055 34.626 25.6901 34.626 25.7939V26.4834C34.626 26.7259 34.429 26.9229 34.1865 26.9229H32.2432C31.967 26.9229 31.7432 26.699 31.7432 26.4229V25.7051C31.743 25.6502 31.6985 25.6057 31.6436 25.6055H25.373C25.3181 25.6057 25.2736 25.6502 25.2734 25.7051V26.4229C25.2734 26.699 25.0496 26.9229 24.7734 26.9229H22.8301C22.5876 26.9229 22.3906 26.7259 22.3906 26.4834V25.7939C22.3906 25.7029 22.3261 25.627 22.2402 25.6094L22.1641 25.6016C22.0782 25.5839 22.0137 25.508 22.0137 25.417V17.3232H20.5078V15.0645H22.0137V13.1885C22.0137 12.2496 22.775 11.4883 23.7139 11.4883H33.3018ZM23.6475 22.0293V23.1592H25.9062V22.0293H23.6475ZM31.1182 22.0293V23.1592H33.377V22.0293H31.1182ZM23.0137 19.9883H34.002V15.0635H23.0137V19.9883Z" fill="#757575"/>
<path d="M7.05638 39.6806C6.79517 40.4639 7.5402 41.209 8.32349 40.9478L18.9217 37.4135C19.7801 37.1272 19.8497 35.9399 19.0306 35.5559L14.5492 33.455L12.4483 28.9736C12.0642 28.1544 10.8769 28.224 10.5906 29.0824L7.05638 39.6806Z" fill="#757575"/>
<path d="M9.64187 28.7665C10.2137 27.0526 12.5854 26.9111 13.3528 28.5482L15.2981 32.7019L19.4518 34.6472C21.0889 35.4146 20.9474 37.7863 19.2335 38.3581L8.63668 41.8938C7.07213 42.4154 5.58464 40.9279 6.10624 39.3633L9.64187 28.7665ZM12.4483 28.9736C12.0642 28.1544 10.8769 28.224 10.5906 29.0824L7.05477 39.6793L7.01677 39.825C6.88623 40.551 7.58662 41.1898 8.32068 40.9452L18.9175 37.4096C19.7758 37.1232 19.8459 35.9362 19.027 35.5524L14.5468 33.4532L12.4483 28.9736Z" fill="white"/>
</g>
<defs>
<filter id="filter0_d_7635_201839" x="-5.99219" y="-6" width="60" height="60" filterUnits="userSpaceOnUse" color-interpolation-filters="sRGB">
<feFlood flood-opacity="0" result="BackgroundImageFix"/>
<feColorMatrix in="SourceAlpha" type="matrix" values="0 0 0 0 0 0 0 0 0 0 0 0 0 0 0 0 0 0 127 0" result="hardAlpha"/>
<feOffset/>
<feGaussianBlur stdDeviation="3"/>
<feComposite in2="hardAlpha" operator="out"/>
<feColorMatrix type="matrix" values="0 0 0 0 0 0 0 0 0 0 0 0 0 0 0 0 0 0 0.4 0"/>
<feBlend mode="normal" in2="BackgroundImageFix" result="effect1_dropShadow_7635_201839"/>
<feBlend mode="normal" in="SourceGraphic" in2="effect1_dropShadow_7635_201839" result="shape"/>
</filter>
</defs>
</svg>
