<svg width="48" height="48" viewBox="0 0 48 48" fill="none" xmlns="http://www.w3.org/2000/svg">
<g filter="url(#filter0_d_7635_201828)">
<path d="M28.9694 16.5117C35.3419 16.5117 40.5078 21.8843 40.5078 28.5117C40.5078 35.1391 35.3419 40.5117 28.9694 40.5117H28.0463C21.6738 40.5117 16.5078 35.1391 16.5078 28.5117C16.5078 21.8843 21.6738 16.5117 28.0463 16.5117H28.9694Z" fill="white"/>
<path d="M15.5078 28.5117C15.5078 21.3695 21.0847 15.5119 28.0459 15.5117V16.5117C21.6736 16.5119 16.5078 21.8844 16.5078 28.5117L16.5117 28.8213C16.6671 35.2026 21.6123 40.3459 27.748 40.5078L28.0459 40.5117H28.9697L29.2676 40.5078C35.4033 40.3459 40.3485 35.2026 40.5039 28.8213L40.5078 28.5117C40.5078 21.988 35.5023 16.6801 29.2676 16.5156L28.9697 16.5117V15.5117C35.931 15.5119 41.5078 21.3695 41.5078 28.5117C41.5078 35.654 35.931 41.5115 28.9697 41.5117H28.0459C21.0847 41.5115 15.5078 35.654 15.5078 28.5117ZM28.9697 15.5117V16.5117H28.0459V15.5117H28.9697Z" fill="#757575"/>
<path d="M33.3018 20.5117C34.2406 20.5117 35.002 21.273 35.002 22.2119V24.0879H36.5078V26.3467H35.002V34.4414C35.0017 34.5448 34.9179 34.6286 34.8145 34.6289C34.7106 34.6289 34.626 34.7136 34.626 34.8174V35.5068C34.626 35.7494 34.429 35.9463 34.1865 35.9463H32.2432C31.967 35.9463 31.7432 35.7224 31.7432 35.4463V34.7285C31.743 34.6736 31.6985 34.6291 31.6436 34.6289H25.373C25.3181 34.6291 25.2736 34.6736 25.2734 34.7285V35.4463C25.2734 35.7224 25.0496 35.9463 24.7734 35.9463H22.8301C22.5876 35.9463 22.3906 35.7494 22.3906 35.5068V34.8174C22.3906 34.7263 22.3261 34.6504 22.2402 34.6328L22.1641 34.625C22.0782 34.6074 22.0137 34.5315 22.0137 34.4404V26.3467H20.5078V24.0879H22.0137V22.2119C22.0137 21.273 22.775 20.5117 23.7139 20.5117H33.3018ZM23.6475 31.0527V32.1826H25.9062V31.0527H23.6475ZM31.1182 31.0527V32.1826H33.377V31.0527H31.1182ZM23.0137 29.0117H34.002V24.0869H23.0137V29.0117Z" fill="#C4C4C4"/>
<path d="M33.3018 20.5117C34.2406 20.5117 35.002 21.273 35.002 22.2119V24.0879H36.5078V26.3467H35.002V34.4414C35.0017 34.5448 34.9179 34.6286 34.8145 34.6289C34.7106 34.6289 34.626 34.7136 34.626 34.8174V35.5068C34.626 35.7494 34.429 35.9463 34.1865 35.9463H32.2432C31.967 35.9463 31.7432 35.7224 31.7432 35.4463V34.7285C31.743 34.6736 31.6985 34.6291 31.6436 34.6289H25.373C25.3181 34.6291 25.2736 34.6736 25.2734 34.7285V35.4463C25.2734 35.7224 25.0496 35.9463 24.7734 35.9463H22.8301C22.5876 35.9463 22.3906 35.7494 22.3906 35.5068V34.8174C22.3906 34.7263 22.3261 34.6504 22.2402 34.6328L22.1641 34.625C22.0782 34.6074 22.0137 34.5315 22.0137 34.4404V26.3467H20.5078V24.0879H22.0137V22.2119C22.0137 21.273 22.775 20.5117 23.7139 20.5117H33.3018ZM23.6475 31.0527V32.1826H25.9062V31.0527H23.6475ZM31.1182 31.0527V32.1826H33.377V31.0527H31.1182ZM23.0137 29.0117H34.002V24.0869H23.0137V29.0117Z" fill="#757575"/>
<path d="M7.05638 8.31935C6.79517 7.53606 7.5402 6.79103 8.32349 7.05223L18.9217 10.5865C19.7801 10.8728 19.8497 12.0601 19.0306 12.4441L14.5492 14.545L12.4483 19.0264C12.0642 19.8456 10.8769 19.776 10.5906 18.9176L7.05638 8.31935Z" fill="#757575"/>
<path d="M9.64187 19.2335C10.2137 20.9474 12.5854 21.0889 13.3528 19.4518L15.2981 15.2981L19.4518 13.3528C21.0889 12.5854 20.9474 10.2137 19.2335 9.64187L8.63668 6.10624C7.07213 5.58464 5.58464 7.07214 6.10624 8.63669L9.64187 19.2335ZM12.4483 19.0264C12.0642 19.8456 10.8769 19.776 10.5906 18.9176L7.05477 8.32068L7.01677 8.175C6.88623 7.44898 7.58662 6.81015 8.32068 7.05477L18.9175 10.5904C19.7758 10.8768 19.8459 12.0638 19.027 12.4476L14.5468 14.5468L12.4483 19.0264Z" fill="white"/>
</g>
<defs>
<filter id="filter0_d_7635_201828" x="-5.99219" y="-6" width="60" height="60" filterUnits="userSpaceOnUse" color-interpolation-filters="sRGB">
<feFlood flood-opacity="0" result="BackgroundImageFix"/>
<feColorMatrix in="SourceAlpha" type="matrix" values="0 0 0 0 0 0 0 0 0 0 0 0 0 0 0 0 0 0 127 0" result="hardAlpha"/>
<feOffset/>
<feGaussianBlur stdDeviation="3"/>
<feComposite in2="hardAlpha" operator="out"/>
<feColorMatrix type="matrix" values="0 0 0 0 0 0 0 0 0 0 0 0 0 0 0 0 0 0 0.4 0"/>
<feBlend mode="normal" in2="BackgroundImageFix" result="effect1_dropShadow_7635_201828"/>
<feBlend mode="normal" in="SourceGraphic" in2="effect1_dropShadow_7635_201828" result="shape"/>
</filter>
</defs>
</svg>
