<svg width="45" height="52" viewBox="0 0 45 52" fill="none" xmlns="http://www.w3.org/2000/svg">
<g filter="url(#filter0_d_7065_10226)">
<path d="M36.4797 22.8962C36.4797 30.7474 27.1549 40.1957 23.5128 43.5866C22.6921 44.3507 21.4673 44.3507 20.6466 43.5866C17.0045 40.1957 7.67969 30.7474 7.67969 22.8962C7.67969 14.4924 14.1268 7.67969 22.0797 7.67969C30.0326 7.67969 36.4797 14.4924 36.4797 22.8962Z" fill="#757575"/>
<path d="M36.4798 22.8963C36.4798 14.4925 30.0327 7.67977 22.0798 7.67977C14.1269 7.67977 7.67977 14.4925 7.67977 22.8963L7.68633 23.2657C7.96972 31.0413 17.0611 40.249 20.6463 43.587C21.4158 44.3033 22.541 44.348 23.3548 43.721L23.5132 43.587C27.0984 40.249 36.1898 31.0413 36.4732 23.2657L36.4798 22.8963ZM38.3998 22.8963C38.3998 27.4781 35.7332 32.2337 32.906 36.056C30.0198 39.9583 26.6821 43.2595 24.821 44.9923C23.2632 46.4424 20.8963 46.4424 19.3385 44.9923C17.4774 43.2595 14.1398 39.9583 11.2535 36.056C8.42636 32.2337 5.75977 27.4781 5.75977 22.8963C5.75977 13.5332 12.9681 5.75977 22.0798 5.75977C31.1915 5.75977 38.3998 13.5332 38.3998 22.8963Z" fill="white"/>
<path d="M28.6628 29.0977H27.4285V15.5205H16.7314V29.0977H15.4971V29.9205H28.6628V29.0977ZM24.4662 18.0714H25.2891V24.3827H24.4662V18.0714ZM21.6685 18.0714H22.4914V24.3827H21.6685V18.0714ZM18.8708 18.0714H19.6936V24.3827H18.8708V18.0714ZM20.8456 26.6291H23.3142V29.0977H20.8456V26.6291Z" fill="white"/>
</g>
<defs>
<filter id="filter0_d_7065_10226" x="-5.76" y="-5.76" width="55.6802" height="63.3598" filterUnits="userSpaceOnUse" color-interpolation-filters="sRGB">
<feFlood flood-opacity="0" result="BackgroundImageFix"/>
<feColorMatrix in="SourceAlpha" type="matrix" values="0 0 0 0 0 0 0 0 0 0 0 0 0 0 0 0 0 0 127 0" result="hardAlpha"/>
<feOffset/>
<feGaussianBlur stdDeviation="2.88"/>
<feComposite in2="hardAlpha" operator="out"/>
<feColorMatrix type="matrix" values="0 0 0 0 0 0 0 0 0 0 0 0 0 0 0 0 0 0 0.4 0"/>
<feBlend mode="normal" in2="BackgroundImageFix" result="effect1_dropShadow_7065_10226"/>
<feBlend mode="normal" in="SourceGraphic" in2="effect1_dropShadow_7065_10226" result="shape"/>
</filter>
</defs>
</svg>
