<svg width="38" height="57" viewBox="0 0 38 57" fill="none" xmlns="http://www.w3.org/2000/svg">
<g filter="url(#filter0_d_6350_119550)">
<path d="M18.1069 49.4461C18.4761 50.1846 19.5297 50.1846 19.8989 49.4461L24.8939 39.4529C25.2985 38.6435 24.5081 37.7547 23.6573 38.0624L19.0029 39.7456L14.3485 38.0624C13.4978 37.7547 12.7074 38.6435 13.112 39.4529L18.1069 49.4461Z" fill="#1D6CEB"/>
<path d="M12.2177 39.9005C11.4101 38.2842 12.9871 36.5071 14.6873 37.1222L19 38.6837L23.3127 37.1222C25.0129 36.5071 26.5899 38.2842 25.7823 39.9005L20.7893 49.8937C20.0518 51.3688 17.9482 51.3688 17.2107 49.8937L12.2177 39.9005ZM14.3476 38.0626C13.4972 37.7549 12.7074 38.6438 13.1118 39.4532L18.1049 49.4464L18.181 49.5763C18.6021 50.182 19.549 50.1384 19.8951 49.4464L24.8882 39.4532C25.2926 38.6438 24.5028 37.7549 23.6524 38.0626L19 39.7462L14.3476 38.0626Z" fill="white"/>
<path d="M19.4615 7.00293C25.8341 7.00293 31 12.3755 31 19.0029C31 25.6303 25.8341 31.0029 19.4615 31.0029H18.5385C12.1659 31.0029 7 25.6303 7 19.0029C7 12.3755 12.1659 7.00293 18.5385 7.00293H19.4615Z" fill="white"/>
<path d="M6 19.0029C6 11.8607 11.5769 6.00314 18.5381 6.00293V7.00293C12.1657 7.00314 7 12.3756 7 19.0029L7.00391 19.3125C7.15928 25.6938 12.1045 30.8371 18.2402 30.999L18.5381 31.0029H19.4619L19.7598 30.999C25.8955 30.8371 30.8407 25.6938 30.9961 19.3125L31 19.0029C31 12.4792 25.9945 7.17134 19.7598 7.00684L19.4619 7.00293V6.00293C26.4231 6.00314 32 11.8607 32 19.0029C32 26.1452 26.4231 32.0027 19.4619 32.0029H18.5381C11.5769 32.0027 6 26.1452 6 19.0029ZM19.4619 6.00293V7.00293H18.5381V6.00293H19.4619Z" fill="#1D6CEB"/>
<path d="M12 22.7924C12 23.5377 12.3413 24.1987 12.875 24.6619V26.1608C12.875 26.624 13.2687 27.0029 13.75 27.0029H14.625C15.1106 27.0029 15.5 26.624 15.5 26.1608V25.3187H22.5V26.1608C22.5 26.624 22.8894 27.0029 23.375 27.0029H24.25C24.7312 27.0029 25.125 26.624 25.125 26.1608V24.6619C25.6587 24.1987 26 23.5377 26 22.7924V14.3714C26 11.424 22.8675 11.0029 19 11.0029C15.1325 11.0029 12 11.424 12 14.3714V22.7924ZM15.0625 23.6345C14.3363 23.6345 13.75 23.0703 13.75 22.3714C13.75 21.6724 14.3363 21.1082 15.0625 21.1082C15.7887 21.1082 16.375 21.6724 16.375 22.3714C16.375 23.0703 15.7887 23.6345 15.0625 23.6345ZM22.9375 23.6345C22.2113 23.6345 21.625 23.0703 21.625 22.3714C21.625 21.6724 22.2113 21.1082 22.9375 21.1082C23.6637 21.1082 24.25 21.6724 24.25 22.3714C24.25 23.0703 23.6637 23.6345 22.9375 23.6345ZM24.25 18.5819H13.75V14.3714H24.25V18.5819Z" fill="#1D6CEB"/>
</g>
<defs>
<filter id="filter0_d_6350_119550" x="-6" y="-5.5" width="50" height="68" filterUnits="userSpaceOnUse" color-interpolation-filters="sRGB">
<feFlood flood-opacity="0" result="BackgroundImageFix"/>
<feColorMatrix in="SourceAlpha" type="matrix" values="0 0 0 0 0 0 0 0 0 0 0 0 0 0 0 0 0 0 127 0" result="hardAlpha"/>
<feOffset/>
<feGaussianBlur stdDeviation="3"/>
<feComposite in2="hardAlpha" operator="out"/>
<feColorMatrix type="matrix" values="0 0 0 0 0 0 0 0 0 0 0 0 0 0 0 0 0 0 0.4 0"/>
<feBlend mode="normal" in2="BackgroundImageFix" result="effect1_dropShadow_6350_119550"/>
<feBlend mode="normal" in="SourceGraphic" in2="effect1_dropShadow_6350_119550" result="shape"/>
</filter>
</defs>
</svg>
