<svg width="48" height="48" viewBox="0 0 48 48" fill="none" xmlns="http://www.w3.org/2000/svg">
<g filter="url(#filter0_d_5857_22923)">
<path d="M28.9698 16.5117C35.3424 16.5117 40.5083 21.8843 40.5083 28.5117C40.5083 35.1391 35.3424 40.5117 28.9698 40.5117H28.0468C21.6742 40.5117 16.5083 35.1391 16.5083 28.5117C16.5083 21.8843 21.6742 16.5117 28.0468 16.5117H28.9698Z" fill="white"/>
<path d="M15.5083 28.5117C15.5083 21.3695 21.0852 15.5119 28.0464 15.5117V16.5117C21.674 16.5119 16.5083 21.8844 16.5083 28.5117L16.5122 28.8213C16.6676 35.2026 21.6128 40.3459 27.7485 40.5078L28.0464 40.5117H28.9702L29.2681 40.5078C35.4038 40.3459 40.349 35.2026 40.5044 28.8213L40.5083 28.5117C40.5083 21.988 35.5028 16.6801 29.2681 16.5156L28.9702 16.5117V15.5117C35.9314 15.5119 41.5083 21.3695 41.5083 28.5117C41.5083 35.654 35.9314 41.5115 28.9702 41.5117H28.0464C21.0852 41.5115 15.5083 35.654 15.5083 28.5117ZM28.9702 15.5117V16.5117H28.0464V15.5117H28.9702Z" fill="#1D6CEB"/>
<path d="M21.5083 32.3012C21.5083 33.0465 21.8496 33.7075 22.3833 34.1707V35.6696C22.3833 36.1328 22.7771 36.5117 23.2583 36.5117H24.1333C24.6189 36.5117 25.0083 36.1328 25.0083 35.6696V34.8275H32.0083V35.6696C32.0083 36.1328 32.3977 36.5117 32.8833 36.5117H33.7583C34.2396 36.5117 34.6333 36.1328 34.6333 35.6696V34.1707C35.1671 33.7075 35.5083 33.0465 35.5083 32.3012V23.8801C35.5083 20.9328 32.3758 20.5117 28.5083 20.5117C24.6408 20.5117 21.5083 20.9328 21.5083 23.8801V32.3012ZM24.5708 33.1433C23.8446 33.1433 23.2583 32.5791 23.2583 31.8801C23.2583 31.1812 23.8446 30.617 24.5708 30.617C25.2971 30.617 25.8833 31.1812 25.8833 31.8801C25.8833 32.5791 25.2971 33.1433 24.5708 33.1433ZM32.4458 33.1433C31.7196 33.1433 31.1333 32.5791 31.1333 31.8801C31.1333 31.1812 31.7196 30.617 32.4458 30.617C33.1721 30.617 33.7583 31.1812 33.7583 31.8801C33.7583 32.5791 33.1721 33.1433 32.4458 33.1433ZM33.7583 28.0907H23.2583V23.8801H33.7583V28.0907Z" fill="#1D6CEB"/>
<path d="M7.05638 8.31935C6.79517 7.53606 7.5402 6.79103 8.32349 7.05223L18.9217 10.5865C19.7801 10.8728 19.8497 12.0601 19.0306 12.4441L14.5492 14.545L12.4483 19.0264C12.0642 19.8456 10.8769 19.776 10.5906 18.9176L7.05638 8.31935Z" fill="#1D6CEB"/>
<path d="M9.64187 19.2335C10.2137 20.9474 12.5854 21.0889 13.3528 19.4518L15.2981 15.2981L19.4518 13.3528C21.0889 12.5854 20.9474 10.2137 19.2335 9.64187L8.63668 6.10624C7.07213 5.58464 5.58464 7.07214 6.10624 8.63669L9.64187 19.2335ZM12.4483 19.0264C12.0642 19.8456 10.8769 19.776 10.5906 18.9176L7.05477 8.32068L7.01677 8.175C6.88623 7.44898 7.58662 6.81015 8.32068 7.05477L18.9175 10.5904C19.7758 10.8768 19.8459 12.0638 19.027 12.4476L14.5468 14.5468L12.4483 19.0264Z" fill="white"/>
</g>
<defs>
<filter id="filter0_d_5857_22923" x="-5.9917" y="-6" width="60" height="60" filterUnits="userSpaceOnUse" color-interpolation-filters="sRGB">
<feFlood flood-opacity="0" result="BackgroundImageFix"/>
<feColorMatrix in="SourceAlpha" type="matrix" values="0 0 0 0 0 0 0 0 0 0 0 0 0 0 0 0 0 0 127 0" result="hardAlpha"/>
<feOffset/>
<feGaussianBlur stdDeviation="3"/>
<feComposite in2="hardAlpha" operator="out"/>
<feColorMatrix type="matrix" values="0 0 0 0 0 0 0 0 0 0 0 0 0 0 0 0 0 0 0.4 0"/>
<feBlend mode="normal" in2="BackgroundImageFix" result="effect1_dropShadow_5857_22923"/>
<feBlend mode="normal" in="SourceGraphic" in2="effect1_dropShadow_5857_22923" result="shape"/>
</filter>
</defs>
</svg>
