<svg width="48" height="48" viewBox="0 0 48 48" fill="none" xmlns="http://www.w3.org/2000/svg">
<g filter="url(#filter0_d_6350_119591)">
<path d="M19.0383 7.48828C12.6658 7.48828 7.49988 12.8609 7.49988 19.4883C7.49988 26.1157 12.6658 31.4883 19.0383 31.4883H19.9614C26.3339 31.4883 31.4999 26.1157 31.4999 19.4883C31.4999 12.8609 26.3339 7.48828 19.9614 7.48828H19.0383Z" fill="white"/>
<path d="M32.4999 19.4883C32.4999 12.346 26.923 6.48849 19.9618 6.48828V7.48828C26.3341 7.48849 31.4999 12.861 31.4999 19.4883L31.496 19.7979C31.3406 26.1791 26.3954 31.3225 20.2596 31.4844L19.9618 31.4883H19.038L18.7401 31.4844C12.6043 31.3225 7.65916 26.1791 7.50378 19.7979L7.49988 19.4883C7.49988 12.9646 12.5054 7.65669 18.7401 7.49219L19.038 7.48828V6.48828C12.0767 6.48849 6.49988 12.346 6.49988 19.4883C6.49988 26.6305 12.0767 32.4881 19.038 32.4883H19.9618C26.923 32.4881 32.4999 26.6305 32.4999 19.4883ZM19.038 6.48828V7.48828H19.9618V6.48828H19.038Z" fill="#1D6CEB"/>
<path d="M26.4999 23.2778C26.4999 24.023 26.1586 24.6841 25.6249 25.1472V26.6462C25.6249 27.1093 25.2311 27.4883 24.7499 27.4883H23.8749C23.3893 27.4883 22.9999 27.1093 22.9999 26.6462V25.8041H15.9999V26.6462C15.9999 27.1093 15.6105 27.4883 15.1249 27.4883H14.2499C13.7686 27.4883 13.3749 27.1093 13.3749 26.6462V25.1472C12.8411 24.6841 12.4999 24.023 12.4999 23.2778V14.8567C12.4999 11.9093 15.6324 11.4883 19.4999 11.4883C23.3674 11.4883 26.4999 11.9093 26.4999 14.8567V23.2778ZM23.4374 24.1199C24.1636 24.1199 24.7499 23.5556 24.7499 22.8567C24.7499 22.1578 24.1636 21.5935 23.4374 21.5935C22.7111 21.5935 22.1249 22.1578 22.1249 22.8567C22.1249 23.5556 22.7111 24.1199 23.4374 24.1199ZM15.5624 24.1199C16.2886 24.1199 16.8749 23.5556 16.8749 22.8567C16.8749 22.1578 16.2886 21.5935 15.5624 21.5935C14.8361 21.5935 14.2499 22.1578 14.2499 22.8567C14.2499 23.5556 14.8361 24.1199 15.5624 24.1199ZM14.2499 19.0672H24.7499V14.8567H14.2499V19.0672Z" fill="#1D6CEB"/>
<path d="M40.9518 39.6806C41.213 40.4639 40.468 41.209 39.6847 40.9478L29.0865 37.4135C28.228 37.1272 28.1585 35.9399 28.9776 35.5559L33.459 33.455L35.5599 28.9736C35.9439 28.1544 37.1313 28.224 37.4175 29.0824L40.9518 39.6806Z" fill="#1D6CEB"/>
<path d="M38.3663 28.7665C37.7944 27.0526 35.4227 26.9111 34.6554 28.5482L32.7101 32.7019L28.5564 34.6472C26.9193 35.4146 27.0608 37.7863 28.7747 38.3581L39.3715 41.8938C40.936 42.4154 42.4235 40.9279 41.9019 39.3633L38.3663 28.7665ZM35.5599 28.9736C35.9439 28.1544 37.1313 28.224 37.4175 29.0824L40.9534 39.6793L40.9914 39.825C41.122 40.551 40.4216 41.1898 39.6875 40.9452L29.0907 37.4096C28.2324 37.1232 28.1623 35.9362 28.9812 35.5524L33.4614 33.4532L35.5599 28.9736Z" fill="white"/>
</g>
<defs>
<filter id="filter0_d_6350_119591" x="-6" y="-6" width="60" height="60" filterUnits="userSpaceOnUse" color-interpolation-filters="sRGB">
<feFlood flood-opacity="0" result="BackgroundImageFix"/>
<feColorMatrix in="SourceAlpha" type="matrix" values="0 0 0 0 0 0 0 0 0 0 0 0 0 0 0 0 0 0 127 0" result="hardAlpha"/>
<feOffset/>
<feGaussianBlur stdDeviation="3"/>
<feComposite in2="hardAlpha" operator="out"/>
<feColorMatrix type="matrix" values="0 0 0 0 0 0 0 0 0 0 0 0 0 0 0 0 0 0 0.4 0"/>
<feBlend mode="normal" in2="BackgroundImageFix" result="effect1_dropShadow_6350_119591"/>
<feBlend mode="normal" in="SourceGraphic" in2="effect1_dropShadow_6350_119591" result="shape"/>
</filter>
</defs>
</svg>
