<svg width="57" height="38" viewBox="0 0 57 38" fill="none" xmlns="http://www.w3.org/2000/svg">
<g filter="url(#filter0_d_7635_201776)">
<path d="M7.55588 18.1069C6.81731 18.4761 6.81731 19.5297 7.55588 19.8989L17.5491 24.8939C18.3585 25.2985 19.2473 24.5081 18.9396 23.6573L17.2563 19.0029L18.9396 14.3485C19.2473 13.4978 18.3585 12.7074 17.5491 13.112L7.55588 18.1069Z" fill="#757575"/>
<path d="M17.1024 12.2177C18.7187 11.4101 20.4958 12.9871 19.8808 14.6873L18.3192 19L19.8808 23.3127C20.4958 25.0129 18.7187 26.5899 17.1024 25.7823L7.10928 20.7893C5.63414 20.0518 5.63415 17.9482 7.10928 17.2107L17.1024 12.2177ZM18.9403 14.3476C19.248 13.4972 18.3591 12.7074 17.5497 13.1118L7.55654 18.1049L7.42666 18.181C6.82098 18.6021 6.86451 19.549 7.55654 19.8951L17.5497 24.8882C18.3591 25.2926 19.248 24.5028 18.9403 23.6524L17.2567 19L18.9403 14.3476Z" fill="white"/>
<path d="M38.4694 7C44.8419 7 50.0078 12.3726 50.0078 19C50.0078 25.6274 44.8419 31 38.4694 31H37.5463C31.1738 31 26.0078 25.6274 26.0078 19C26.0078 12.3726 31.1738 7 37.5463 7H38.4694Z" fill="white"/>
<path d="M25.0078 19C25.0078 11.8578 30.5847 6.00021 37.5459 6V7C31.1736 7.00021 26.0078 12.3727 26.0078 19L26.0117 19.3096C26.1671 25.6908 31.1123 30.8342 37.248 30.9961L37.5459 31H38.4697L38.7676 30.9961C44.9033 30.8342 49.8485 25.6908 50.0039 19.3096L50.0078 19C50.0078 12.4763 45.0023 7.16841 38.7676 7.00391L38.4697 7V6C45.431 6.00021 51.0078 11.8578 51.0078 19C51.0078 26.1422 45.431 31.9998 38.4697 32H37.5459C30.5847 31.9998 25.0078 26.1422 25.0078 19ZM38.4697 6V7H37.5459V6H38.4697Z" fill="#757575"/>
<path d="M42.793 11C43.7319 11 44.4932 11.7613 44.4932 12.7002V14.5762H45.999V16.835H44.4932V24.9297C44.4929 25.0331 44.4091 25.1169 44.3057 25.1172C44.2018 25.1172 44.1172 25.2018 44.1172 25.3057V25.9951C44.1172 26.2376 43.9203 26.4346 43.6777 26.4346H41.7344C41.4582 26.4346 41.2344 26.2107 41.2344 25.9346V25.2168C41.2342 25.1619 41.1897 25.1174 41.1348 25.1172H34.8643C34.8093 25.1174 34.7649 25.1619 34.7646 25.2168V25.9346C34.7646 26.2107 34.5408 26.4346 34.2646 26.4346H32.3213C32.0788 26.4346 31.8818 26.2376 31.8818 25.9951V25.3057C31.8818 25.2146 31.8173 25.1387 31.7314 25.1211L31.6553 25.1133C31.5694 25.0957 31.5049 25.0198 31.5049 24.9287V16.835H29.999V14.5762H31.5049V12.7002C31.5049 11.7613 32.2662 11 33.2051 11H42.793ZM33.1387 21.541V22.6709H35.3975V21.541H33.1387ZM40.6094 21.541V22.6709H42.8682V21.541H40.6094ZM32.5049 19.5H43.4932V14.5752H32.5049V19.5Z" fill="#C4C4C4"/>
<path d="M42.793 11C43.7319 11 44.4932 11.7613 44.4932 12.7002V14.5762H45.999V16.835H44.4932V24.9297C44.4929 25.0331 44.4091 25.1169 44.3057 25.1172C44.2018 25.1172 44.1172 25.2018 44.1172 25.3057V25.9951C44.1172 26.2376 43.9203 26.4346 43.6777 26.4346H41.7344C41.4582 26.4346 41.2344 26.2107 41.2344 25.9346V25.2168C41.2342 25.1619 41.1897 25.1174 41.1348 25.1172H34.8643C34.8093 25.1174 34.7649 25.1619 34.7646 25.2168V25.9346C34.7646 26.2107 34.5408 26.4346 34.2646 26.4346H32.3213C32.0788 26.4346 31.8818 26.2376 31.8818 25.9951V25.3057C31.8818 25.2146 31.8173 25.1387 31.7314 25.1211L31.6553 25.1133C31.5694 25.0957 31.5049 25.0198 31.5049 24.9287V16.835H29.999V14.5762H31.5049V12.7002C31.5049 11.7613 32.2662 11 33.2051 11H42.793ZM33.1387 21.541V22.6709H35.3975V21.541H33.1387ZM40.6094 21.541V22.6709H42.8682V21.541H40.6094ZM32.5049 19.5H43.4932V14.5752H32.5049V19.5Z" fill="#757575"/>
</g>
<defs>
<filter id="filter0_d_7635_201776" x="-5.5" y="-6" width="68" height="50" filterUnits="userSpaceOnUse" color-interpolation-filters="sRGB">
<feFlood flood-opacity="0" result="BackgroundImageFix"/>
<feColorMatrix in="SourceAlpha" type="matrix" values="0 0 0 0 0 0 0 0 0 0 0 0 0 0 0 0 0 0 127 0" result="hardAlpha"/>
<feOffset/>
<feGaussianBlur stdDeviation="3"/>
<feComposite in2="hardAlpha" operator="out"/>
<feColorMatrix type="matrix" values="0 0 0 0 0 0 0 0 0 0 0 0 0 0 0 0 0 0 0.4 0"/>
<feBlend mode="normal" in2="BackgroundImageFix" result="effect1_dropShadow_7635_201776"/>
<feBlend mode="normal" in="SourceGraphic" in2="effect1_dropShadow_7635_201776" result="shape"/>
</filter>
</defs>
</svg>
