<svg width="24" height="24" viewBox="0 0 24 24" fill="none" xmlns="http://www.w3.org/2000/svg">
<path d="M3.86963 4.68446V19.8587C3.86963 20.1621 4.10808 20.4006 4.41156 20.4006H19.5858C19.8892 20.4006 20.1277 20.1621 20.1277 19.8587V4.68446C20.1277 4.38097 19.8892 4.14252 19.5858 4.14252H16.8761V3.60059H15.7922V4.14252H8.20511V3.60059H7.12124V4.14252H4.41156C4.10808 4.14252 3.86963 4.38097 3.86963 4.68446ZM8.20511 5.76833V5.22639H15.7922V5.76833H16.8761V5.22639H19.0438V7.39413H4.9535V5.22639H7.12124V5.76833H8.20511ZM19.0438 19.3167H4.9535V8.478H19.0438V19.3167Z" fill="#C4C4C4"/>
<path d="M9.01838 12.8135H7.39258V14.4393H9.01838V12.8135Z" fill="#C4C4C4"/>
<path d="M12.8118 12.8135H11.186V14.4393H12.8118V12.8135Z" fill="#C4C4C4"/>
<path d="M16.6053 12.8135H14.9795V14.4393H16.6053V12.8135Z" fill="#C4C4C4"/>
</svg>
