<svg width="24" height="24" viewBox="0 0 24 24" fill="none" xmlns="http://www.w3.org/2000/svg">
<path d="M3.86987 4.68543V19.8596C3.86987 20.1631 4.10832 20.4016 4.41181 20.4016H19.586C19.8895 20.4016 20.1279 20.1631 20.1279 19.8596V4.68543C20.1279 4.38195 19.8895 4.1435 19.586 4.1435H16.8763V3.60156H15.7925V4.1435H8.20536V3.60156H7.12149V4.1435H4.41181C4.10832 4.1435 3.86987 4.38195 3.86987 4.68543ZM8.20536 5.7693V5.22737H15.7925V5.7693H16.8763V5.22737H19.0441V7.39511H4.95374V5.22737H7.12149V5.7693H8.20536ZM19.0441 19.3177H4.95374V8.47898H19.0441V19.3177Z" fill="#353535"/>
<path d="M9.01838 12.8145H7.39258V14.4403H9.01838V12.8145Z" fill="#353535"/>
<path d="M12.8121 12.8145H11.1863V14.4403H12.8121V12.8145Z" fill="#353535"/>
<path d="M16.6055 12.8145H14.9797V14.4403H16.6055V12.8145Z" fill="#353535"/>
</svg>
