<svg width="18" height="18" viewBox="0 0 18 18" fill="none" xmlns="http://www.w3.org/2000/svg">
<mask id="path-1-inside-1_1980_48304" fill="white">
<path d="M0 2C0 0.89543 0.895431 0 2 0H16C17.1046 0 18 0.895431 18 2V16C18 17.1046 17.1046 18 16 18H2C0.89543 18 0 17.1046 0 16V2Z"/>
</mask>
<path d="M0 2C0 0.89543 0.895431 0 2 0H16C17.1046 0 18 0.895431 18 2V16C18 17.1046 17.1046 18 16 18H2C0.89543 18 0 17.1046 0 16V2Z" fill="white"/>
<path d="M2 0V1H16V0V-1H2V0ZM18 2H17V16H18H19V2H18ZM16 18V17H2V18V19H16V18ZM0 16H1V2H0H-1V16H0ZM2 18V17C1.44772 17 1 16.5523 1 16H0H-1C-1 17.6569 0.343146 19 2 19V18ZM18 16H17C17 16.5523 16.5523 17 16 17V18V19C17.6569 19 19 17.6569 19 16H18ZM16 0V1C16.5523 1 17 1.44772 17 2H18H19C19 0.343146 17.6569 -1 16 -1V0ZM2 0V-1C0.343146 -1 -1 0.343146 -1 2H0H1C1 1.44772 1.44772 1 2 1V0Z" fill="#D9D9D9" mask="url(#path-1-inside-1_1980_48304)"/>
</svg>
