<svg width="64" height="64" viewBox="0 0 64 64" fill="none" xmlns="http://www.w3.org/2000/svg">
<path d="M32 62C48.5685 62 62 48.5685 62 32C62 15.4315 48.5685 2 32 2C15.4315 2 2 15.4315 2 32C2 48.5685 15.4315 62 32 62Z" fill="#F5F5F5"/>
<path d="M27.5771 20.9115C27.3005 20.9115 27.0238 20.7993 26.8291 20.585C26.3066 20.0238 25.1897 19.0645 23.581 18.8809C22.1875 18.7278 21.0911 19.2584 20.5685 19.585C20.0869 19.8809 19.4516 19.738 19.1545 19.2584C18.8573 18.7788 19.0008 18.1462 19.4824 17.8502C20.7837 17.0441 22.3207 16.687 23.8064 16.8502C26.0709 17.1053 27.6079 18.4217 28.3251 19.187C28.7145 19.5952 28.6837 20.2482 28.2739 20.6258C28.0792 20.8095 27.823 20.9013 27.5771 20.9013V20.9115Z" fill="#9D9D9D"/>
<path d="M37.1573 16.8C36.8906 16.8 36.6341 16.6994 36.429 16.4981C36.0289 16.1057 36.0289 15.4617 36.429 15.0793C37.5471 13.9926 38.973 13.2781 40.4399 13.0668C42.707 12.7448 44.4509 13.6605 45.2921 14.2341C45.7537 14.5561 45.8665 15.1799 45.5485 15.6328C45.2202 16.0856 44.5842 16.1963 44.1226 15.8843C43.5276 15.4818 42.3069 14.8378 40.7271 15.0592C39.332 15.2504 38.337 16.0453 37.8651 16.5082C37.6599 16.6994 37.4035 16.8 37.147 16.8H37.1573Z" fill="#9D9D9D"/>
<path d="M23.8 31C25.8987 31 27.6 29.2091 27.6 27C27.6 24.7909 25.8987 23 23.8 23C21.7013 23 20 24.7909 20 27C20 29.2091 21.7013 31 23.8 31Z" fill="#666666"/>
<path d="M40.9165 30.677C43.0018 30.677 44.6923 28.6959 44.6923 26.2522C44.6923 23.8084 43.0018 21.8274 40.9165 21.8274C38.8311 21.8274 37.1406 23.8084 37.1406 26.2522C37.1406 28.6959 38.8311 30.677 40.9165 30.677Z" fill="#666666"/>
<path d="M37.4624 43.2002C37.172 43.169 36.8922 43.039 36.6831 42.8167C36.0179 42.1256 34.5894 40.9028 32.4091 40.5484C29.7222 40.0995 27.655 41.2362 26.8914 41.7436C26.3128 42.1311 25.5291 41.9769 25.1448 41.4059C24.7605 40.835 24.9045 40.0611 25.482 39.6835C26.4972 39.0033 29.2521 37.5009 32.8249 38.095C35.731 38.5774 37.6441 40.192 38.5173 41.1153C38.9902 41.6159 38.9664 42.4027 38.4705 42.869C38.1893 43.1285 37.8229 43.239 37.4724 43.2013L37.4624 43.2002Z" fill="#666666"/>
<path d="M13.7531 43.7487C13.7764 46.2531 13.7628 47.0627 13.2645 51.8111C13.0215 54.0969 13.0273 55.9774 13.8113 58.0849C14.426 59.7335 15.8704 60.7537 17.3976 61.2726C17.9344 61.4584 18.5759 61.5064 19.8493 61.6207C21.5316 61.7699 21.3102 61.6545 25.2747 61.7115C26.5217 61.7323 27.2289 61.7441 27.8424 61.2424C28.3238 60.8409 28.5559 60.3235 28.6853 59.823C28.8643 59.1371 28.9134 57.872 28.9345 57.1649C28.9932 55.3228 29.0146 55.1556 29.067 53.695C29.1896 53.0454 29.5051 51.9895 30.3592 51.5663C30.763 51.359 31.7514 51.2545 32.1051 51.2604C32.8685 51.2545 32.9243 51.2555 34.9836 51.1317C35.7757 51.0797 36.4037 50.8203 36.8416 50.2412C36.9367 50.1217 37.3936 49.515 37.1726 48.8132C37.0048 48.2705 36.4902 47.8709 35.859 47.7673L25.1833 47.6912C23.3964 47.6706 21.8803 47.5987 20.6995 47.5138C19.184 47.4047 18.4782 47.3091 18.05 46.7527C17.6674 46.253 17.6237 45.5262 17.5741 44.5945C17.5741 44.5945 17.6543 43.6929 17.598 43.1614C17.372 41.0911 16.4675 40.0706 15.286 40.0322C14.7276 40.0229 14.3122 40.3697 14.2555 40.4246C13.4616 41.1374 13.7511 43.3111 13.7531 43.7487Z" fill="#C7C7C7"/>
</svg>
