<svg width="84" height="84" viewBox="0 0 84 84" fill="none" xmlns="http://www.w3.org/2000/svg">
<path d="M30.4219 46.4494C30.4219 48.3394 31.9575 49.875 33.8475 49.875H50.3456C52.2356 49.875 53.7713 48.3394 53.7713 46.4494V45.9375H30.4613V46.4494H30.4219Z" fill="white"/>
<path d="M50.3501 56.3715C49.7988 56.0171 49.1295 55.7021 48.4995 55.4265C48.342 55.3478 48.1845 55.269 48.027 55.1903C46.2945 54.5209 44.2863 54.1665 42.1207 54.1665C39.9551 54.1665 37.9076 54.5603 36.2145 55.1903C36.057 55.2296 35.9388 55.3478 35.8207 55.3871C34.2851 56.0171 32.9857 56.8834 32.0801 57.9071C34.797 60.2303 38.3013 61.6871 42.1601 61.6871C46.0188 61.6871 49.5232 60.2303 52.2401 57.9071C51.7676 57.3559 51.177 56.8834 50.4682 56.4109C50.4682 56.4109 50.4682 56.4109 50.4288 56.4109L50.3501 56.3715Z" fill="#FF4554"/>
<path d="M42 10.5C24.5963 10.5 10.5 24.5963 10.5 42C10.5 59.4038 24.5963 73.5 42 73.5C59.4038 73.5 73.5 59.4038 73.5 42C73.5 24.5963 59.4038 10.5 42 10.5ZM51.2531 31.6444C53.4581 31.6444 55.23 33.7313 55.23 36.2906C55.23 38.85 53.4581 40.9369 51.2531 40.9369C49.0481 40.9369 47.2763 38.85 47.2763 36.2906C47.2763 33.7313 49.0481 31.6444 51.2531 31.6444ZM33.1012 31.6444C35.3063 31.6444 37.0781 33.7313 37.0781 36.2906C37.0781 38.85 35.3063 40.9369 33.1012 40.9369C30.8962 40.9369 29.1244 38.85 29.1244 36.2906C29.1244 33.7313 30.8962 31.6444 33.1012 31.6444ZM52.2375 57.9075C52.2375 57.9075 52.1981 57.9075 52.1588 57.9075C49.4419 60.2306 45.9375 61.6875 42.0788 61.6875C38.22 61.6875 34.7156 60.2306 31.9988 57.9075C31.9988 57.9075 31.9594 57.9075 31.92 57.9075C28.8094 55.2694 26.7225 51.4894 26.4075 47.1581C26.3681 46.4888 26.9194 45.9375 27.5888 45.9375H56.6475C57.3169 45.9375 57.8681 46.4888 57.8288 47.1581C57.5138 51.4894 55.3875 55.2694 52.3163 57.9075H52.2375Z" fill="#FFD53D"/>
<path d="M33.1038 40.9375C35.3002 40.9375 37.0807 38.8573 37.0807 36.2913C37.0807 33.7252 35.3002 31.645 33.1038 31.645C30.9075 31.645 29.127 33.7252 29.127 36.2913C29.127 38.8573 30.9075 40.9375 33.1038 40.9375Z" fill="#3E4347"/>
<path d="M51.2523 40.9375C53.4486 40.9375 55.2291 38.8573 55.2291 36.2913C55.2291 33.7252 53.4486 31.645 51.2523 31.645C49.0559 31.645 47.2754 33.7252 47.2754 36.2913C47.2754 38.8573 49.0559 40.9375 51.2523 40.9375Z" fill="#3E4347"/>
<path d="M56.6075 45.9383H53.7332V46.4502C53.7332 48.3402 52.1975 49.8758 50.3075 49.8758H33.8094C31.9194 49.8758 30.3838 48.3402 30.3838 46.4502V45.9383H27.5094C26.84 45.9383 26.2888 46.4896 26.3282 47.1589C26.6432 51.4902 28.7694 55.2702 31.8407 57.9083C31.8407 57.9083 31.88 57.9083 31.9194 57.9083C32.825 56.8846 34.1244 56.0577 35.66 55.3883C35.8175 55.3096 35.8963 55.2308 36.0538 55.1914C37.7863 54.5221 39.7944 54.1677 41.96 54.1677C44.1257 54.1677 46.1338 54.5614 47.8663 55.1914C48.0632 55.2702 48.1813 55.3489 48.3388 55.4277C49.0082 55.7033 49.6382 56.0183 50.1894 56.3727C50.1894 56.3727 50.1894 56.3727 50.2288 56.3727C50.8982 56.8058 51.4888 57.3177 52.0007 57.8689C52.0007 57.8689 52.04 57.8689 52.0794 57.8689C55.19 55.2308 57.2769 51.4508 57.5919 47.1196C57.6313 46.4502 57.08 45.8989 56.4107 45.8989L56.6075 45.9383Z" fill="#3E4347"/>
</svg>
