<svg width="84" height="84" viewBox="0 0 84 84" fill="none" xmlns="http://www.w3.org/2000/svg">
<path d="M27.5893 44.2031C27.0774 44.4 22.9824 49.1644 22.9824 53.6925C22.9824 56.1731 25.1087 58.2994 27.5893 58.2994C29.3612 58.2994 30.8968 57.1969 31.6449 55.7006C31.9599 55.0706 32.1568 54.4406 32.1568 53.7319C32.1568 53.6137 32.1568 53.4956 32.1568 53.4169C31.9993 49.0069 28.0618 44.4787 27.5893 44.2425V44.2031Z" fill="#8BC6FF"/>
<path d="M42 10.5C24.5962 10.5 10.5 24.5962 10.5 42C10.5 59.4038 24.5962 73.5 42 73.5C59.4038 73.5 73.5 59.4038 73.5 42C73.5 24.5962 59.4038 10.5 42 10.5ZM21.6825 31.9594C21.8006 31.1325 22.5487 30.5812 23.3756 30.7387C23.6119 30.7387 23.9269 30.8175 24.2025 30.8175H24.5569C26.0925 30.8175 31.29 30.4631 33.4556 25.6987C33.7706 24.9506 34.6763 24.6356 35.4244 24.9506C36.1725 25.2656 36.4875 26.1713 36.1725 26.9194C33.81 32.1562 28.8487 33.4163 26.0531 33.7313V33.81H24.5569C23.9269 33.81 23.3756 33.81 22.9031 33.6919C22.0763 33.5737 21.5644 32.8256 21.6825 31.9988V31.9594ZM36.8812 40.1494C36.8812 42.7088 35.1094 44.7956 32.9044 44.7956C30.6994 44.7956 28.9275 42.7088 28.9275 40.1494C28.9275 37.59 30.6994 35.5031 32.9044 35.5031C35.1094 35.5031 36.8812 37.59 36.8812 40.1494ZM52.1981 55.5844C51.6469 56.2144 50.7413 56.2537 50.1113 55.7419C41.2519 48.1425 34.1644 55.5056 33.8494 55.8206C33.5737 56.1356 33.18 56.2931 32.7469 56.2931C32.3925 56.2931 32.0381 56.175 31.7625 55.8994C31.6838 55.8206 31.7231 55.7419 31.6444 55.6631C30.8962 57.1594 29.3606 58.2619 27.5888 58.2619C25.1081 58.2619 23.0213 56.1356 22.9819 53.655C22.9819 49.1662 27.0769 44.4019 27.5888 44.1656C28.0613 44.3625 31.9594 48.93 32.1562 53.34C34.1644 51.4894 42.3544 45.15 52.0406 53.4581C52.6706 53.97 52.71 54.915 52.1981 55.545V55.5844ZM51.0563 44.7956C48.8512 44.7956 47.0794 42.7088 47.0794 40.1494C47.0794 37.59 48.8512 35.5031 51.0563 35.5031C53.2612 35.5031 55.0331 37.59 55.0331 40.1494C55.0331 42.7088 53.2612 44.7956 51.0563 44.7956ZM61.0181 33.8494C60.5456 33.9281 59.9944 33.9675 59.4038 33.9675H58.7738C56.2537 33.81 50.4262 32.9044 47.8275 27.0769C47.5125 26.3288 47.8275 25.4625 48.5756 25.1081C49.3237 24.7931 50.19 25.1081 50.5444 25.8563C52.71 30.6206 57.9075 30.975 59.4431 30.975H59.8369C60.1519 30.975 60.4275 30.975 60.7031 30.8962C61.5694 30.8175 62.2388 31.3687 62.3569 32.1562C62.475 32.9438 61.8844 33.6919 61.0969 33.81L61.0181 33.8494Z" fill="#FFD53D"/>
<path d="M35.4629 24.9105C34.7148 24.5955 33.8485 24.9105 33.4942 25.6586C31.3285 30.423 26.131 30.7773 24.5954 30.7773H24.241C23.926 30.7773 23.6504 30.7773 23.4141 30.6986C22.5873 30.5411 21.8391 31.1317 21.721 31.9192C21.6029 32.7067 22.1541 33.4942 22.9416 33.6123C23.4141 33.6911 24.0048 33.7305 24.5954 33.7305H26.0916V33.6517C28.8873 33.3761 33.8485 32.0767 36.211 26.8398C36.526 26.0917 36.211 25.2255 35.4629 24.8711V24.9105Z" fill="#FFC200"/>
<path d="M60.665 30.9369C60.3894 30.9369 60.1137 31.0156 59.7987 31.0156H59.405C57.8694 31.0156 52.6719 30.6612 50.5062 25.8969C50.1519 25.1487 49.2856 24.8337 48.5375 25.1487C47.7894 25.4637 47.4744 26.3694 47.7894 27.1175C50.4275 32.945 56.255 33.8506 58.7356 33.9687H59.3656C59.9562 33.9687 60.5075 33.9687 60.98 33.89C61.8069 33.7719 62.3581 33.0631 62.24 32.2362C62.1219 31.4094 61.4525 30.8975 60.5862 30.9762L60.665 30.9369Z" fill="#FFC200"/>
<path d="M32.1564 53.3392C32.1564 53.3392 32.1564 53.5755 32.1564 53.6542C32.1564 54.363 31.9595 55.0324 31.6445 55.623C31.6839 55.7017 31.6839 55.7805 31.7627 55.8592C32.0383 56.1349 32.3927 56.253 32.747 56.253C33.1408 56.253 33.5345 56.0955 33.8495 55.7805C34.1645 55.4655 41.252 48.063 50.1114 55.7017C50.7414 56.2136 51.647 56.1742 52.1983 55.5442C52.7102 54.9142 52.6708 54.0086 52.0408 53.4574C42.3545 45.1099 34.1645 51.4886 32.1564 53.3392Z" fill="#3E4347"/>
<path d="M32.9027 44.7945C35.099 44.7945 36.8795 42.7143 36.8795 40.1482C36.8795 37.5822 35.099 35.502 32.9027 35.502C30.7063 35.502 28.9258 37.5822 28.9258 40.1482C28.9258 42.7143 30.7063 44.7945 32.9027 44.7945Z" fill="#3E4347"/>
<path d="M51.057 35.502C48.852 35.502 47.0801 37.5888 47.0801 40.1482C47.0801 42.7076 48.852 44.7945 51.057 44.7945C53.262 44.7945 55.0338 42.7076 55.0338 40.1482C55.0338 37.5888 53.262 35.502 51.057 35.502Z" fill="#3E4347"/>
</svg>
