<svg width="32" height="32" viewBox="0 0 32 32" fill="none" xmlns="http://www.w3.org/2000/svg">
<path d="M21.4803 12.8487H17.1194V11.7621H19.4375L16.308 5.31485C16.1921 5.06855 15.9313 4.90918 15.656 4.90918C15.3808 4.90918 15.1345 5.06855 15.0041 5.31485L11.7732 11.7621L4.63051 12.7328C4.35524 12.7763 4.12343 12.9646 4.0365 13.2254C3.94957 13.4862 4.02201 13.776 4.21036 13.9643L9.33918 19.0352L8.06422 26.1344C8.02076 26.4097 8.12217 26.685 8.35398 26.8443C8.57131 27.0037 8.87556 27.0327 9.12186 26.9023L15.5257 23.599L21.886 27.0037C21.9874 27.0617 22.1033 27.0906 22.2337 27.0906C22.3786 27.0906 22.5235 27.0472 22.6539 26.9602C22.8712 26.8009 22.9871 26.5256 22.9436 26.2503L21.7846 19.1366L22.6683 18.2963H26.2035V17.2097H17.1338V16.1231H27.1307V15.0364H17.1338V13.9498H28V12.8632H21.4948L21.4803 12.8487Z" fill="#FFC200"/>
</svg>
