<svg width="24" height="24" viewBox="0 0 24 24" fill="none" xmlns="http://www.w3.org/2000/svg">
<path d="M17.0402 5.8407H15.9202V4.7207H8.08016V5.8407H6.96016V4.7207H4.16016V8.0807H19.8402V4.7207H17.0402V5.8407Z" fill="#1D6CEB"/>
<path d="M8.08094 4.72059V3.60059H6.96094V4.72059V5.84059H8.08094V4.72059Z" fill="#808796"/>
<path d="M17.038 4.72059V3.60059H15.918V4.72059V5.84059H17.038V4.72059Z" fill="#808796"/>
<path d="M8.91828 13.1211H7.23828V14.8011H8.91828V13.1211Z" fill="#808796"/>
<path d="M12.8402 13.1211H11.1602V14.8011H12.8402V13.1211Z" fill="#808796"/>
<path d="M16.762 13.1211H15.082V14.8011H16.762V13.1211Z" fill="#808796"/>
<path d="M4.16016 20.4001H19.8402V8.08008H4.16016V20.4001ZM15.0802 13.1201H16.7602V14.8001H15.0802V13.1201ZM11.1602 13.1201H12.8402V14.8001H11.1602V13.1201ZM7.24016 13.1201H8.92016V14.8001H7.24016V13.1201Z" fill="#CDD2DE"/>
</svg>
