<svg width="32" height="32" viewBox="0 0 32 32" fill="none" xmlns="http://www.w3.org/2000/svg">
<path d="M20.5313 15.2729C17.9857 15.2729 15.8469 17.0968 15.3745 19.5112C15.3089 19.8392 15.2695 20.1804 15.2695 20.5216C15.2695 21.0858 15.3876 21.6107 15.5451 22.1224C15.7813 22.8572 16.1618 23.5133 16.6604 24.0644C17.6183 25.1141 18.9961 25.7833 20.5182 25.7833C23.4181 25.7833 25.78 23.4214 25.78 20.5216C25.78 17.6217 23.4181 15.2598 20.5182 15.2598L20.5313 15.2729ZM20.5313 24.1169C20.4132 24.1169 20.2951 24.0907 20.177 24.0775C18.3662 23.8938 16.9491 22.3848 16.9491 20.5347C16.9491 20.1804 17.2378 19.8917 17.5921 19.8917C17.9464 19.8917 18.235 20.1804 18.235 20.5347C18.235 21.7944 19.2585 22.831 20.5313 22.831C20.8856 22.831 21.1743 23.1196 21.1743 23.4739C21.1743 23.8282 20.8856 24.1169 20.5313 24.1169Z" fill="#C8E4FF"/>
<path d="M14.6287 9.51172H7.54297V10.8239H14.6287V9.51172Z" fill="#808796"/>
<path d="M16.9906 6.88672H7.54297V8.19889H16.9906V6.88672Z" fill="#808796"/>
<path d="M14.1169 19.2471H10.2854C9.61619 19.2471 8.96011 19.4964 8.50085 19.9819C7.54297 20.9923 7.54297 22.1338 7.54297 22.1338H14.2219C14.0907 21.6221 13.9988 21.0841 13.9988 20.533C13.9988 20.1 14.0513 19.667 14.13 19.2471H14.1169Z" fill="#808796"/>
<path d="M12.2661 13.8818C11.0065 13.8818 9.99609 14.9053 9.99609 16.1519C9.99609 17.3984 11.0196 18.4219 12.2661 18.4219C13.5127 18.4219 14.5362 17.3984 14.5362 16.1519C14.5362 14.9053 13.5127 13.8818 12.2661 13.8818Z" fill="#808796"/>
<path d="M4 24.0762H15.0484C14.6679 23.4857 14.3924 22.8296 14.2087 22.1341H7.52973C7.52973 22.1341 7.52973 20.9926 8.48761 19.9822C8.94687 19.4967 9.60295 19.2474 10.2722 19.2474H14.1037C14.7073 16.2556 17.3447 13.9856 20.5202 13.9856V4H4V24.0762ZM12.2667 18.4207C11.007 18.4207 9.9966 17.3972 9.9966 16.1507C9.9966 14.9041 11.0201 13.8806 12.2667 13.8806C13.5132 13.8806 14.5367 14.9041 14.5367 16.1507C14.5367 17.3972 13.5132 18.4207 12.2667 18.4207ZM7.54285 6.88677H16.9905V8.19894H7.54285V6.88677ZM7.54285 9.5111H14.6286V10.8233H7.54285V9.5111Z" fill="#CDD2DE"/>
<path d="M27.0798 20.534C27.0798 16.9256 24.1405 13.9863 20.5321 13.9863C17.3566 13.9863 14.7192 16.2564 14.1156 19.2481C14.0369 19.668 13.9844 20.0879 13.9844 20.534C13.9844 21.0852 14.0762 21.6231 14.2074 22.1349C14.3911 22.8303 14.6667 23.4864 15.0472 24.0769C16.2151 25.8746 18.2358 27.0818 20.5321 27.0818C22.1067 27.0818 23.5238 26.5044 24.6654 25.5728L27.0929 28.0003L27.9983 27.0949L25.5708 24.6674C26.5025 23.5389 27.0798 22.1086 27.0798 20.534ZM15.2703 20.534C15.2703 20.1798 15.3097 19.8517 15.3753 19.5237C15.8477 17.1093 17.9734 15.2854 20.5321 15.2854C23.432 15.2854 25.7939 17.6473 25.7939 20.5472C25.7939 23.4471 23.432 25.809 20.5321 25.809C18.9969 25.809 17.6322 25.1398 16.6743 24.09C16.1626 23.5389 15.782 22.8828 15.559 22.148C15.3884 21.6363 15.2834 21.1114 15.2834 20.5472L15.2703 20.534Z" fill="#1D6CEB"/>
<path d="M20.5353 22.8299C19.2757 22.8299 18.239 21.8064 18.239 20.5336C18.239 20.1793 17.9504 19.8906 17.5961 19.8906C17.2418 19.8906 16.9531 20.1793 16.9531 20.5336C16.9531 22.3837 18.3703 23.8927 20.1811 24.0764C20.2992 24.0764 20.4172 24.1158 20.5353 24.1158C20.8896 24.1158 21.1783 23.8271 21.1783 23.4728C21.1783 23.1186 20.8896 22.8299 20.5353 22.8299Z" fill="white"/>
</svg>
