<svg width="32" height="32" viewBox="0 0 32 32" fill="none" xmlns="http://www.w3.org/2000/svg">
<path d="M23.1116 17.7765C21.9573 15.4679 19.5738 13.8789 16.8155 13.8789C16.7855 13.8789 16.7406 13.8789 16.7106 13.8789C14.5669 13.9089 12.6631 14.9133 11.3889 16.4573C10.5045 17.5216 9.91983 18.8408 9.78492 20.2949C9.78492 20.2949 9.76993 20.2949 9.75494 20.2949C7.62627 20.2949 5.90234 22.0188 5.90234 24.1475C5.90234 26.2762 7.62627 28.0001 9.75494 28.0001H22.6019C25.4351 28.0001 27.7287 25.7065 27.7287 22.8733C27.7287 20.2199 25.705 18.0613 23.1116 17.7915V17.7765Z" fill="#8BC6FF"/>
<path d="M12.7391 8.2269C10.4005 8.2269 8.51172 10.1157 8.51172 12.4543C8.51172 14.3131 9.72596 15.8871 11.3899 16.4418C12.6641 14.8977 14.5679 13.9084 16.7116 13.8634C16.8765 13.4137 16.9664 12.949 16.9664 12.4393C16.9664 10.1007 15.0776 8.21191 12.7391 8.21191V8.2269Z" fill="#FFC200"/>
<path d="M6.38321 11.7207H4.26953V13.2198H6.38321V11.7207Z" fill="#FFC200"/>
<path d="M21.1957 11.7207H19.082V13.2198H21.1957V11.7207Z" fill="#FFC200"/>
<path d="M13.4913 4H11.9922V6.11368H13.4913V4Z" fill="#FFC200"/>
<path d="M7.28247 5.94958L6.22266 7.00977L7.71751 8.5041L8.77733 7.44392L7.28247 5.94958Z" fill="#FFC200"/>
<path d="M18.186 5.93704L16.6914 7.43164L17.7514 8.49164L19.246 6.99704L18.186 5.93704Z" fill="#FFC200"/>
<path d="M7.72116 16.4234L6.22656 17.918L7.28656 18.978L8.78116 17.4834L7.72116 16.4234Z" fill="#FFC200"/>
</svg>
