<svg width="32" height="32" viewBox="0 0 32 32" fill="none" xmlns="http://www.w3.org/2000/svg">
<path d="M23.6357 9.57715H15.6875V10.9889H23.6357V9.57715Z" fill="#808796"/>
<path d="M23.6357 15.6904H15.6875V17.1022H23.6357V15.6904Z" fill="#808796"/>
<path d="M23.6357 21.7881H15.6875V23.1999H23.6357V21.7881Z" fill="#808796"/>
<path d="M6.11719 28H25.8819V4H6.11719V28ZM15.689 9.57647H23.6372V10.9882H15.689V9.57647ZM15.689 15.6894H23.6372V17.1012H15.689V15.6894ZM15.689 21.7882H23.6372V23.2H15.689V21.7882ZM9.46307 8.64471L10.8466 10.0424L13.176 7.68471L14.1784 8.67294L11.3407 11.5388C11.2137 11.6659 11.0301 11.7506 10.8325 11.7506C10.6348 11.7506 10.4654 11.68 10.3242 11.5388L8.4466 9.63294L9.44895 8.64471H9.46307ZM9.46307 14.7576L10.8466 16.1553L13.176 13.7976L14.1784 14.7859L11.3407 17.6518C11.2137 17.7788 11.0301 17.8635 10.8325 17.8635C10.6348 17.8635 10.4654 17.7929 10.3242 17.6518L8.4466 15.7459L9.44895 14.7576H9.46307ZM9.46307 20.8706L10.8466 22.2682L13.176 19.9106L14.1784 20.8988L11.3407 23.7647C11.2137 23.8918 11.0301 23.9765 10.8325 23.9765C10.6348 23.9765 10.4654 23.9059 10.3242 23.7647L8.4466 21.8588L9.44895 20.8706H9.46307Z" fill="#CDD2DE"/>
<path d="M10.8483 11.7505C11.0319 11.7505 11.2154 11.6799 11.3566 11.5387L14.1942 8.67281L13.1919 7.68457L10.8624 10.0422L9.47892 8.64457L8.47656 9.63281L10.3542 11.5387C10.4813 11.6657 10.6648 11.7505 10.8624 11.7505H10.8483Z" fill="#1D6CEB"/>
<path d="M10.8483 17.8637C11.0319 17.8637 11.2154 17.7931 11.3566 17.652L14.1942 14.7861L13.1919 13.7979L10.8624 16.1555L9.47892 14.7579L8.47656 15.7461L10.3542 17.652C10.4813 17.779 10.6648 17.8637 10.8624 17.8637H10.8483Z" fill="#1D6CEB"/>
<path d="M10.8483 23.976C11.0319 23.976 11.2154 23.9054 11.3566 23.7643L14.1942 20.8984L13.1919 19.9102L10.8624 22.2678L9.47892 20.8702L8.47656 21.8584L10.3542 23.7643C10.4813 23.8913 10.6648 23.976 10.8624 23.976H10.8483Z" fill="#1D6CEB"/>
</svg>
