<svg width="32" height="32" viewBox="0 0 32 32" fill="none" xmlns="http://www.w3.org/2000/svg">
<path d="M21.0919 15.6758C20.9362 15.6758 20.7805 15.7147 20.6248 15.7277C19.6 15.8055 18.6529 16.1169 17.8227 16.6358C16.6291 17.3882 15.734 18.5298 15.28 19.879C15.0724 20.5017 14.9297 21.1504 14.9297 21.8379C14.9297 22.1233 14.9816 22.4088 15.0205 22.6812C15.4356 25.6779 17.9783 28.0001 21.0919 28.0001C24.4908 28.0001 27.254 25.2369 27.254 21.8379C27.254 18.439 24.4908 15.6758 21.0919 15.6758ZM20.4432 17.6217H21.7405V21.6304L22.8951 20.4758L23.8162 21.3969L21.5459 23.6671C21.4162 23.7969 21.2475 23.8617 21.0919 23.8617C20.9362 23.8617 20.7546 23.7969 20.6378 23.6671L18.3675 21.3969L19.2886 20.4758L20.4432 21.6304V17.6217ZM23.8421 25.8466H18.3416V24.5493H23.8421V25.8466Z" fill="#1FB279"/>
<path d="M7.54688 6.80216H17.8215V16.6357C18.6388 16.1168 19.5988 15.8054 20.6236 15.7276V4H7.54688V6.80216Z" fill="#808796"/>
<path d="M13.1512 11.5508H7.54688V12.8481H13.1512V11.5508Z" fill="#808796"/>
<path d="M15.0193 8.95605H7.54688V10.2534H15.0193V8.95605Z" fill="#808796"/>
<path d="M17.8229 16.6362V6.80273H4.74609V22.6817H15.0207C14.9818 22.4092 14.9299 22.1238 14.9299 21.8384C14.9299 21.1508 15.0726 20.5022 15.2801 19.8795C15.7342 18.5173 16.6293 17.3757 17.8229 16.6362ZM7.54826 8.95625H15.0207V10.2535H7.54826V8.95625ZM7.54826 11.5508H13.1526V12.8481H7.54826V11.5508Z" fill="#CDD2DE"/>
<path d="M23.8443 24.5498H18.3438V25.8471H23.8443V24.5498Z" fill="white"/>
<path d="M20.6245 17.6211H20.4429V21.6297L19.2883 20.4751L18.3672 21.3962L20.6375 23.6665C20.7672 23.7962 20.9358 23.8611 21.0915 23.8611C21.2472 23.8611 21.4288 23.7962 21.5456 23.6665L23.8158 21.3962L22.8948 20.4751L21.7402 21.6297V17.6211H20.6245Z" fill="white"/>
</svg>
