<svg width="24" height="24" viewBox="0 0 24 24" fill="none" xmlns="http://www.w3.org/2000/svg">
<path d="M20.24 9.4599H18.52C18.26 8.7999 17.91 8.1999 17.47 7.6399L18.34 6.1499C18.46 5.9499 18.42 5.6999 18.26 5.5399C17.72 5.0199 17.14 4.5699 16.53 4.2199C15.92 3.8699 15.25 3.5799 14.53 3.3699C14.31 3.3099 14.07 3.3999 13.96 3.5999L13.09 5.0899C12.36 4.9699 11.64 4.9699 10.91 5.0899L10.04 3.5999C9.92 3.3999 9.69 3.3099 9.47 3.3699C8.75 3.5799 8.08 3.8699 7.47 4.2199C6.86 4.5699 6.28 5.0199 5.74 5.5399C5.57 5.6999 5.54 5.9499 5.66 6.1499L6.53 7.6399C6.09 8.1899 5.74 8.7999 5.48 9.4599H3.76C3.53 9.4599 3.33 9.6199 3.27 9.8399C3.09 10.5699 3 11.2899 3 11.9999C3 12.7099 3.09 13.4299 3.27 14.1599C3.32 14.3799 3.52 14.5399 3.76 14.5399H5.48C5.73 15.1899 6.09 15.7999 6.53 16.3599L5.66 17.8499C5.54 18.0499 5.58 18.2999 5.74 18.4599C6.28 18.9799 6.86 19.4199 7.47 19.7799C8.08 20.1299 8.75 20.4199 9.47 20.6299C9.69 20.6899 9.93 20.5999 10.04 20.3999L10.91 18.9099C11.63 19.0199 12.37 19.0199 13.09 18.9099L13.96 20.3999C14.05 20.5599 14.22 20.6499 14.39 20.6499C14.44 20.6499 14.48 20.6499 14.53 20.6299C15.25 20.4199 15.92 20.1299 16.53 19.7799C17.14 19.4299 17.72 18.9799 18.26 18.4599C18.43 18.2999 18.46 18.0499 18.34 17.8499L17.47 16.3599C17.91 15.8099 18.26 15.1999 18.52 14.5399H20.24C20.47 14.5399 20.67 14.3799 20.73 14.1599C20.91 13.4299 21 12.7099 21 11.9999C21 11.2899 20.91 10.5699 20.73 9.8399C20.68 9.6199 20.48 9.4599 20.24 9.4599ZM19.84 13.5399H18.17C17.95 13.5399 17.76 13.6799 17.7 13.8799C17.45 14.6499 17.04 15.3499 16.49 15.9699C16.35 16.1299 16.32 16.3699 16.43 16.5499L17.27 17.9999C16.87 18.3499 16.45 18.6599 16.02 18.9099C15.58 19.1599 15.11 19.3799 14.61 19.5499L13.77 18.0999C13.66 17.9199 13.44 17.8199 13.23 17.8599C12.41 18.0299 11.57 18.0299 10.75 17.8599C10.54 17.8199 10.32 17.9099 10.21 18.0999L9.37 19.5499C8.87 19.3799 8.4 19.1599 7.96 18.9099C7.53 18.6599 7.11 18.3499 6.71 17.9999L7.55 16.5499C7.66 16.3599 7.63 16.1299 7.49 15.9699C6.95 15.3599 6.54 14.6499 6.28 13.8799C6.21 13.6799 6.02 13.5399 5.81 13.5399H4.14C4.04 13.0199 3.98 12.4999 3.98 11.9999C3.98 11.4999 4.03 10.9799 4.14 10.4599H5.81C6.03 10.4599 6.22 10.3199 6.28 10.1199C6.53 9.3499 6.94 8.6499 7.49 8.0299C7.63 7.8699 7.66 7.6299 7.55 7.4499L6.71 5.9999C7.11 5.6499 7.53 5.3399 7.96 5.0899C8.4 4.8399 8.87 4.6199 9.37 4.4499L10.21 5.8899C10.32 6.0799 10.53 6.1699 10.74 6.1299C11.56 5.9599 12.4 5.9599 13.22 6.1299C13.43 6.1699 13.65 6.0799 13.75 5.8899L14.59 4.4499C15.09 4.6199 15.56 4.8399 16 5.0899C16.44 5.3499 16.85 5.6399 17.25 5.9999L16.41 7.4499C16.3 7.6399 16.32 7.8699 16.47 8.0299C17.01 8.6499 17.42 9.3499 17.68 10.1199C17.75 10.3199 17.94 10.4599 18.15 10.4599H19.82C19.92 10.9799 19.98 11.4999 19.98 11.9999C19.98 12.4999 19.93 13.0199 19.82 13.5399H19.84Z" fill="white"/>
<path d="M12 9.5C10.62 9.5 9.5 10.62 9.5 12C9.5 13.38 10.62 14.5 12 14.5C13.38 14.5 14.5 13.38 14.5 12C14.5 10.62 13.38 9.5 12 9.5ZM12 13.5C11.17 13.5 10.5 12.83 10.5 12C10.5 11.17 11.17 10.5 12 10.5C12.83 10.5 13.5 11.17 13.5 12C13.5 12.83 12.83 13.5 12 13.5Z" fill="white"/>
</svg>
