<svg width="24" height="24" viewBox="0 0 24 24" fill="none" xmlns="http://www.w3.org/2000/svg">
<path d="M21 12C21 7.03412 16.9659 3 12 3C7.03412 3 3 7.03412 3 12C3 16.9659 7.03412 21 12 21C16.9659 21 21 16.9659 21 12ZM11.4706 19.9094C7.51059 19.6447 4.34471 16.4788 4.09059 12.5294L7.02353 12.5294L7.02353 11.4706L4.09059 11.4706C4.35529 7.51059 7.52118 4.34471 11.4706 4.09059L11.4706 7.02353L12.5294 7.02353L12.5294 4.09059C16.4894 4.35529 19.6553 7.52118 19.9094 11.4706L16.9765 11.4706L16.9765 12.5294L19.9094 12.5294C19.6447 16.4894 16.4788 19.6553 12.5294 19.9094L12.5294 16.9765L11.4706 16.9765L11.4706 19.9094Z" fill="#353535"/>
<path d="M13.9902 11.9984C13.9902 10.8972 13.1008 10.0078 11.9996 10.0078C10.8985 10.0078 10.0091 10.8972 10.0091 11.9984C10.0091 13.0996 10.8985 13.989 11.9996 13.989C13.1008 13.989 13.9902 13.0996 13.9902 11.9984Z" fill="#353535"/>
</svg>
