<svg width="24" height="24" viewBox="0 0 24 24" fill="none" xmlns="http://www.w3.org/2000/svg">
<path d="M17.8734 20.9981H20.8733L18.0054 4.72656L15.7734 17.3982H17.2494L17.8734 20.9981Z" fill="#757575"/>
<path d="M6.30686 3L3.12695 20.9995H6.12687L6.76285 17.3996H11.5627L10.9267 20.9995H13.9146L14.5506 17.3876L17.0946 3H6.30686ZM12.1627 13.6917C11.4667 14.2797 10.6027 14.6037 9.76276 14.6037C9.66677 14.6037 9.57077 14.6037 9.47477 14.6037C8.70679 14.5317 8.02281 14.1837 7.56683 13.6197C6.51086 12.3357 6.83485 10.2838 8.2988 9.03583C8.71879 8.67584 9.21078 8.42385 9.70276 8.27985C10.1228 8.15985 10.5547 8.09985 10.9747 8.13585C11.7427 8.20785 12.4267 8.55584 12.8947 9.11982C13.8786 10.3078 13.6507 12.1677 12.4387 13.4157C12.3427 13.5117 12.2587 13.6077 12.1627 13.6917ZM15.7146 4.05597L15.4986 5.25594H7.09884L7.31483 4.05597H15.7146Z" fill="#757575"/>
<path d="M8.48986 12.8503C8.82585 13.2583 9.26983 13.3663 9.58183 13.4023C10.0258 13.4383 10.4698 13.3303 10.8898 13.1143L8.65785 10.4023C8.05787 11.1943 7.94987 12.2023 8.48986 12.8503Z" fill="#757575"/>
<path d="M10.8658 9.32422C10.8658 9.32422 10.7458 9.32422 10.6858 9.32422C10.5538 9.32422 10.4098 9.33622 10.2778 9.36022C10.0378 9.40822 9.79782 9.50421 9.56982 9.62421L11.8018 12.3241C11.8018 12.3241 11.8258 12.2881 11.8378 12.2761C12.4137 11.4842 12.4977 10.5122 11.9698 9.8762C11.6338 9.46821 11.1898 9.36022 10.8778 9.32422H10.8658Z" fill="#757575"/>
</svg>
