<svg width="30" height="30" viewBox="0 0 30 30" fill="none" xmlns="http://www.w3.org/2000/svg">
<path d="M11.4971 21.9948H13.1755V26.2517H16.8243V21.9948H18.5028V8.76172H17.0068C17.0068 9.85636 16.1067 10.7564 15.0121 10.7564C13.9175 10.7564 13.0174 9.86853 13.0174 8.76172H11.4971V21.9948ZM14.9999 11.5591C16.1067 11.5591 16.9946 12.4592 16.9946 13.5538C16.9946 14.6485 16.0946 15.5607 14.9999 15.5607C13.9053 15.5607 12.9931 14.6606 12.9931 13.5538C12.9931 12.447 13.8931 11.5591 14.9999 11.5591ZM14.9999 16.3756C16.1067 16.3756 16.9946 17.2756 16.9946 18.3703C16.9946 19.4649 16.0946 20.3771 14.9999 20.3771C13.9053 20.3771 12.9931 19.4771 12.9931 18.3703C12.9931 17.2635 13.8931 16.3756 14.9999 16.3756Z" fill="white"/>
<path d="M13.9047 8.74699C13.9047 9.34296 14.3912 9.82947 14.9872 9.82947C15.5832 9.82947 16.0697 9.34296 16.0697 8.74699C16.0697 8.15102 15.5832 7.65234 14.9872 7.65234C14.3912 7.65234 13.8926 8.13885 13.8926 8.74699H13.9047Z" fill="white"/>
<path d="M15.0004 14.6459C15.5964 14.6459 16.0829 14.1594 16.0829 13.5512C16.0829 12.9431 15.5964 12.4688 15.0004 12.4688C14.4044 12.4688 13.9058 12.9553 13.9058 13.5512C13.9058 14.1472 14.3923 14.6459 15.0004 14.6459Z" fill="white"/>
<path d="M15.0004 19.4623C15.5964 19.4623 16.0829 18.9758 16.0829 18.3676C16.0829 17.7595 15.5964 17.2852 15.0004 17.2852C14.4044 17.2852 13.9058 17.7717 13.9058 18.3676C13.9058 18.9636 14.3923 19.4623 15.0004 19.4623Z" fill="white"/>
<path d="M15.6079 3.75H14.9997H14.3916V5.53792H15.6079V3.75Z" fill="white"/>
<path d="M12.6621 4.18302L11.6646 4.87891L12.6875 6.34527L13.685 5.64939L12.6621 4.18302Z" fill="white"/>
<path d="M18.3325 4.88078L17.8338 4.54022L17.3351 4.1875L16.3135 5.65919L17.3108 6.35247L18.3325 4.88078Z" fill="white"/>
</svg>
