<svg width="24" height="24" viewBox="0 0 24 24" fill="none" xmlns="http://www.w3.org/2000/svg">
<path d="M10.3507 9.69141C10.2131 10.7076 9.76845 11.5863 9.1333 12.1791H11.2293H13.3465H15.072C16.6069 12.1791 17.8878 11.1205 18.2477 9.69141H10.3613H10.3507Z" fill="white"/>
<path d="M4.14731 9.50055C4.13673 9.34176 4.10497 9.19356 4.10497 9.02419C4.10497 7.43631 4.85657 6.08132 5.93632 5.45675C5.93632 5.45675 5.93632 5.45675 5.94691 5.45675C6.04218 5.55202 6.12687 5.6473 6.21156 5.75316C6.30683 5.85901 6.39152 5.96487 6.4762 6.07073C5.57641 6.51534 4.92008 7.65861 4.92008 9.02419C4.92008 9.47938 4.99418 9.9134 5.1318 10.3051C5.5023 11.406 6.31742 12.1788 7.28073 12.1788C8.58279 12.1788 9.63079 10.7709 9.63079 9.02419C9.63079 8.97126 9.63079 8.91833 9.6202 8.85481C9.72606 8.85481 9.83192 8.87598 9.94836 8.87598C9.96954 8.87598 10.0013 8.87598 10.0225 8.87598C10.0648 8.87598 10.1177 8.87598 10.1601 8.87598C10.213 8.87598 10.2765 8.87598 10.3295 8.87598H10.3824C10.3824 8.87598 10.4036 8.87598 10.4141 8.87598H18.3747H18.8617C19.3804 8.87598 19.7932 8.45255 19.7932 7.94443C19.7932 6.0919 18.29 4.57812 16.4269 4.57812H4.58133C3.30045 4.5993 2.8876 6.00722 3.02521 7.04463C3.15224 7.9656 3.54392 8.83364 4.14731 9.51113V9.50055ZM7.25956 11.1202C6.64558 11.1202 5.96808 10.231 5.96808 9.02419C5.96808 8.00794 6.45503 7.22459 6.98432 7.00229C7.04784 7.11873 7.11135 7.23518 7.18546 7.35162C7.25956 7.47865 7.34424 7.61627 7.43952 7.73271C7.61948 7.94443 7.83119 8.12439 8.0535 8.28318C8.2017 8.38903 8.36049 8.49489 8.51927 8.57958C8.54045 8.72778 8.55103 8.87598 8.55103 9.03477C8.55103 10.231 7.86295 11.1308 7.25956 11.1308V11.1202Z" fill="white"/>
<path d="M11.2188 12.9727V16.2331C11.2188 16.8153 11.6951 17.2917 12.2773 17.2917H18.089V15.1745H13.3359V12.9727H11.2188Z" fill="white"/>
<path d="M18.8828 15.1746V17.2918C18.8828 18.4668 19.8355 19.4196 21 19.4196V17.2918V15.1746V13.0469C19.8355 13.0469 18.8828 14.0102 18.8828 15.1746Z" fill="white"/>
</svg>
