<svg width="32" height="32" viewBox="0 0 32 32" fill="none" xmlns="http://www.w3.org/2000/svg">
<path d="M19.1516 17.1857C19.1234 17.1151 19.0669 17.0586 18.9822 17.0586H13.0104C12.9399 17.0586 12.8693 17.1151 12.841 17.1857L11.9375 19.9527H20.041L19.1375 17.1857H19.1516Z" fill="#1D6CEB"/>
<path d="M25.8819 4H6.11719V28H25.8819V4ZM12.569 9.46353L14.9548 11.8494L19.4301 7.37412L20.4325 8.37647L15.4631 13.3459C15.336 13.4729 15.1525 13.5576 14.969 13.5576C14.7854 13.5576 14.6019 13.4871 14.4748 13.3459L11.5948 10.4659L12.5972 9.46353H12.569ZM21.7031 23.3835C21.7031 23.5812 21.6325 23.7647 21.5337 23.92H21.6325V25.0353C21.6325 25.3318 21.3925 25.5718 21.096 25.5718H19.656C19.3595 25.5718 19.1195 25.3318 19.1195 25.0353V24.4424H12.8372V25.0353C12.8372 25.3318 12.5972 25.5718 12.3007 25.5718H10.8607C10.5642 25.5718 10.3242 25.3318 10.3242 25.0353V23.92H10.4231C10.3242 23.7647 10.2537 23.5812 10.2537 23.3835V21.0118C10.2537 20.6447 10.4513 20.3341 10.7337 20.1506L10.8325 19.8541H10.3101V18.7953H11.1713L11.8066 16.8612C11.976 16.3529 12.4419 16 12.9784 16H18.9501C19.4866 16 19.9525 16.3388 20.1219 16.8471L20.7572 18.7812H21.6184V19.84H21.1101L21.209 20.1365C21.4913 20.3341 21.689 20.6306 21.689 20.9976V23.3694L21.7031 23.3835Z" fill="#1D6CEB"/>
<path d="M13.688 21.6748H11.5703V22.7336H13.688V21.6748Z" fill="#1D6CEB"/>
<path d="M20.4301 21.6748H18.3125V22.7336H20.4301V21.6748Z" fill="#1D6CEB"/>
</svg>
