<svg width="32" height="32" viewBox="0 0 32 32" fill="none" xmlns="http://www.w3.org/2000/svg">
<path d="M4 13.6914V17.0568C4 17.4626 4.14321 17.8445 4.38189 18.1428V19.6823C4.38189 20.0165 4.64444 20.279 4.9786 20.279H7.16255C7.49671 20.279 7.75926 20.0165 7.75926 19.6823V18.8469H15.9222C15.97 18.644 16.0177 18.4412 16.0774 18.2502C16.137 18.0473 16.2086 17.8445 16.2922 17.6535C16.5547 17.0329 16.9008 16.4601 17.3304 15.9589H16.5786V14.7177H18.7267C19.2041 14.3955 19.7292 14.1449 20.2901 13.9659C20.4811 13.9062 20.6839 13.8465 20.8868 13.7988C21.0778 13.751 21.2807 13.7152 21.4835 13.6914C21.4835 12.9634 21.042 12.3428 20.4095 12.0683L20.2663 11.6148H21.3403V10.4214H19.8844L18.9058 7.414C18.6671 6.67409 17.9868 6.17285 17.1992 6.17285H8.28436C7.50864 6.17285 6.81646 6.67409 6.57778 7.414L5.59918 10.4214H4.14321V11.6148H5.21728L5.07407 12.0683C4.44156 12.3428 4 12.9753 4 13.7033V13.6914ZM8.90494 14.7058V15.9469H6.51811V14.7058H8.90494ZM7.72346 7.76009C7.80699 7.50948 8.03374 7.3424 8.29629 7.3424H17.1992C17.4617 7.3424 17.6885 7.50948 17.772 7.76009L19.1206 11.9012H6.3749L7.72346 7.76009Z" fill="#1D6CEB"/>
<path d="M20.292 14.896C19.8147 15.0869 19.3731 15.3376 18.9674 15.6359C18.8361 15.7314 18.7167 15.8388 18.5974 15.9343C18.0604 16.4116 17.6188 16.9845 17.2966 17.6289C17.2011 17.8199 17.1176 18.0227 17.034 18.2256C16.9624 18.4166 16.9027 18.6195 16.8431 18.8223C16.7357 19.252 16.6641 19.6935 16.6641 20.159C16.6641 23.2857 19.206 25.8277 22.3328 25.8277C25.4595 25.8277 28.0015 23.2857 28.0015 20.159C28.0015 17.0322 25.4595 14.4902 22.3328 14.4902C22.0344 14.4902 21.748 14.538 21.4616 14.5738C21.2587 14.6096 21.0558 14.6454 20.8649 14.705C20.662 14.7647 20.4591 14.8125 20.2682 14.896H20.292ZM23.0608 23.1783H21.6406V19.6219H23.0608V23.1783ZM22.3447 17.1635C22.7863 17.1635 23.1443 17.5215 23.1443 17.9631C23.1443 18.4046 22.7863 18.7627 22.3447 18.7627C21.9032 18.7627 21.5451 18.4046 21.5451 17.9631C21.5451 17.5215 21.9032 17.1635 22.3447 17.1635Z" fill="#1D6CEB"/>
</svg>
