<svg width="24" height="24" viewBox="0 0 24 24" fill="none" xmlns="http://www.w3.org/2000/svg">
<path d="M18.068 9.03906L17.3477 9.73935C18.228 10.6497 18.228 12.1304 17.3477 13.0407L18.068 13.741C19.3185 12.4505 19.3185 10.3396 18.068 9.03906Z" fill="#757575"/>
<path d="M18.5469 7.73935C20.4977 9.75019 20.4977 13.0316 18.5469 15.0424L19.2672 15.7427C21.5781 13.3417 21.5781 9.44006 19.2672 7.03906L18.5469 7.73935Z" fill="#353535"/>
<path d="M14.8549 4.64758L4.35056 9.2595C3.53022 9.61965 3 10.41 3 11.2803C3 12.1507 3.53022 12.951 4.35056 13.3012L5.51105 13.8114V18.8935C5.51105 19.1736 5.73114 19.3937 6.01125 19.3937H9.01251C9.29262 19.3937 9.51271 19.1736 9.51271 18.8935V15.5721L14.8549 17.9131C14.915 17.9431 14.985 17.9531 15.055 17.9531C15.1551 17.9531 15.2451 17.9231 15.3251 17.8731C15.4652 17.7831 15.5552 17.623 15.5552 17.4529V5.10777C15.5552 4.9377 15.4652 4.77763 15.3251 4.6876C15.1851 4.59756 15.005 4.57755 14.8549 4.64758ZM8.5123 15.1319V18.3933H6.51146V14.2516L6.74156 14.3516L8.5123 15.1319ZM14.5548 16.6926L4.75073 12.3908C4.29054 12.1907 4.00042 11.7605 4.00042 11.2803C4.00042 10.8001 4.29054 10.37 4.75073 10.1699L14.5548 5.87809V16.6926Z" fill="#353535"/>
</svg>
