<svg width="24" height="24" viewBox="0 0 24 24" fill="none" xmlns="http://www.w3.org/2000/svg">
<path d="M6.23795 8.48104C4.82002 9.38047 3.6878 10.5868 3 11.9941C4.44967 15.0098 7.90983 17.1473 11.9943 17.1473C12.8937 17.1473 13.7614 17.0309 14.5868 16.8299L12.9784 15.2215C12.6609 15.3167 12.3329 15.3802 11.9943 15.3802C10.1214 15.3802 8.59763 13.8565 8.59763 11.9835C8.59763 11.6343 8.66112 11.3063 8.75635 10.9994L6.22737 8.47046L6.23795 8.48104Z" fill="#C4C4C4"/>
<path d="M11.9953 6.85229C11.0959 6.85229 10.2282 6.96869 9.40283 7.16974L11.0112 8.77813C11.3287 8.6829 11.6567 8.61941 11.9953 8.61941C13.8682 8.61941 15.392 10.1431 15.392 12.0161C15.392 12.3653 15.3285 12.6933 15.2333 13.0002L17.7622 15.5291C19.1802 14.6297 20.3124 13.4234 21.0002 12.0161C19.5505 9.00034 16.0904 6.86288 12.0059 6.86288L11.9953 6.85229Z" fill="#C4C4C4"/>
<path d="M19.0314 19.7827L19.7721 19.0314L16.7881 16.0474L14.7353 13.984L10.0054 9.26467L8.24885 7.50814L4.95799 4.21729L4.21729 4.96857L7.20128 7.95256L9.25409 10.0054L13.984 14.7353L15.7406 16.4919L19.0314 19.7827Z" fill="#C4C4C4"/>
</svg>
