<svg width="16" height="16" viewBox="0 0 16 16" fill="none" xmlns="http://www.w3.org/2000/svg">
<path d="M8.00075 13.2941C6.49724 13.2941 5.07843 12.6518 4.08314 11.5577H6.01018V10.8518H3.34903C3.15139 10.8518 2.99609 11.0071 2.99609 11.2047V13.8588H3.70197V12.1718C4.82431 13.3294 6.36312 14 8.00075 14C11.3113 14 14.0007 11.3106 14.0007 8.00006C14.0007 7.48477 13.9372 6.97653 13.8101 6.48242L13.1254 6.65889C13.2384 7.08948 13.2948 7.54124 13.2948 8.00006C13.2948 10.9224 10.9231 13.2941 8.00075 13.2941Z" fill="#353535"/>
<path d="M12.2987 3.82822C11.1764 2.67058 9.63758 2 7.99994 2C4.68939 2 2 4.68939 2 7.99994C2 8.51523 2.06353 9.02346 2.19765 9.51758L2.88234 9.34111C2.7694 8.91052 2.71293 8.45876 2.71293 7.99994C2.70588 5.07762 5.07762 2.70588 7.99994 2.70588C9.50346 2.70588 10.9223 3.34822 11.9176 4.44233H9.99051V5.14821H12.6446C12.8423 5.14821 12.9975 4.99291 12.9975 4.79527V2.14118H12.2917V3.82822H12.2987Z" fill="#353535"/>
</svg>
