<svg width="20" height="20" viewBox="0 0 20 20" fill="none" xmlns="http://www.w3.org/2000/svg">
<g clip-path="url(#clip0_5333_270101)">
<path d="M6.99479 13.333H4.49479C4.38428 13.333 4.2783 13.3769 4.20016 13.455C4.12202 13.5332 4.07812 13.6392 4.07812 13.7497V16.2497H4.91146V14.9163C5.89027 15.9344 7.15135 16.6361 8.53239 16.9314C9.91343 17.2266 11.3512 17.1018 12.6607 16.573C13.9702 16.0442 15.0915 15.1356 15.8802 13.9641C16.669 12.7926 17.0891 11.4119 17.0865 9.99967C17.0817 9.3952 17.0033 8.79355 16.8531 8.20801L16.0198 8.41634C16.1659 8.93176 16.2444 9.46401 16.2531 9.99967C16.2367 11.2489 15.8463 12.4646 15.1323 13.4898C14.4183 14.515 13.4134 15.3027 12.2473 15.7511C11.0812 16.1996 9.80747 16.2884 8.59048 16.0059C7.37348 15.7234 6.26907 15.0826 5.41979 14.1663H6.99479V13.333Z" fill="#757575"/>
<path d="M3.14746 11.7913L3.98079 11.583C3.83867 11.0667 3.76031 10.535 3.74746 9.99965C3.75491 8.74129 4.14204 7.51449 4.85818 6.47976C5.57433 5.44504 6.58614 4.65059 7.76122 4.20037C8.93631 3.75014 10.2199 3.66512 11.4441 3.95641C12.6683 4.24771 13.7761 4.90176 14.6225 5.83298H13.0141V6.66632H15.5141C15.6246 6.66632 15.7306 6.62242 15.8088 6.54428C15.8869 6.46614 15.9308 6.36016 15.9308 6.24965V3.74965H15.0975V5.07465C14.1187 4.05316 12.8561 3.34858 11.4728 3.05188C10.0896 2.75517 8.64913 2.87999 7.33751 3.4102C6.02589 3.94041 4.90335 4.85166 4.11485 6.02628C3.32635 7.2009 2.9081 8.58493 2.91413 9.99965C2.91893 10.6041 2.99728 11.2058 3.14746 11.7913V11.7913Z" fill="#757575"/>
</g>
<defs>
<clipPath id="clip0_5333_270101">
<rect width="20" height="20" fill="white"/>
</clipPath>
</defs>
</svg>
