<svg width="18" height="18" viewBox="0 0 18 18" fill="none" xmlns="http://www.w3.org/2000/svg">
<mask id="path-1-inside-1_1980_48287" fill="white">
<path d="M0 9C0 4.02944 4.02944 0 9 0C13.9706 0 18 4.02944 18 9C18 13.9706 13.9706 18 9 18C4.02944 18 0 13.9706 0 9Z"/>
</mask>
<path d="M0 9C0 4.02944 4.02944 0 9 0C13.9706 0 18 4.02944 18 9C18 13.9706 13.9706 18 9 18C4.02944 18 0 13.9706 0 9Z" fill="white"/>
<path d="M9 18V17C4.58172 17 1 13.4183 1 9H0H-1C-1 14.5228 3.47715 19 9 19V18ZM18 9H17C17 13.4183 13.4183 17 9 17V18V19C14.5228 19 19 14.5228 19 9H18ZM9 0V1C13.4183 1 17 4.58172 17 9H18H19C19 3.47715 14.5228 -1 9 -1V0ZM9 0V-1C3.47715 -1 -1 3.47715 -1 9H0H1C1 4.58172 4.58172 1 9 1V0Z" fill="#1D6CEB" mask="url(#path-1-inside-1_1980_48287)"/>
<path d="M4 9C4 6.23858 6.23858 4 9 4C11.7614 4 14 6.23858 14 9C14 11.7614 11.7614 14 9 14C6.23858 14 4 11.7614 4 9Z" fill="#1D6CEB"/>
</svg>
