<svg width="32" height="32" viewBox="0 0 32 32" fill="none" xmlns="http://www.w3.org/2000/svg">
<path d="M12.6657 8.94141H11.2539V12.6826H12.6657V8.94141Z" fill="#808796"/>
<path d="M15.3649 10.5225H13.9531V12.6825H15.3649V10.5225Z" fill="#808796"/>
<path d="M18.0485 9.20996H16.6367V12.6829H18.0485V9.20996Z" fill="#808796"/>
<path d="M20.7438 7.40234H19.332V12.6823H20.7438V7.40234Z" fill="#808796"/>
<path d="M6.11719 28H25.8819V4H6.11719V28ZM19.3313 7.40235H20.7431V12.6824H19.3313V7.40235ZM16.6348 9.20941H18.0466V12.6824H16.6348V9.20941ZM13.9525 10.5224H15.3642V12.6824H13.9525V10.5224ZM15.9995 15.8024C17.496 15.8024 18.7101 17.0165 18.7101 18.5129C18.7101 20.0094 17.496 21.2235 15.9995 21.2235C14.5031 21.2235 13.289 20.0094 13.289 18.5129C13.289 17.0165 14.5031 15.8024 15.9995 15.8024ZM11.256 8.94118H12.6678V12.6824H11.256V8.94118ZM11.4819 23.1153C12.0325 22.5365 12.8231 22.24 13.6137 22.24H18.3713C19.176 22.24 19.9525 22.5365 20.5172 23.1153C21.6748 24.3153 21.6607 25.6847 21.6607 25.6847H10.3384C10.3384 25.6847 10.3384 24.3153 11.4819 23.1153Z" fill="#CDD2DE"/>
<path d="M20.5187 23.1155C19.9681 22.5367 19.1775 22.2402 18.3728 22.2402H13.6151C12.8104 22.2402 12.034 22.5367 11.4834 23.1155C10.3257 24.3155 10.3399 25.6849 10.3399 25.6849H21.6622C21.6622 25.6849 21.6763 24.3155 20.5187 23.1155Z" fill="#1D6CEB"/>
<path d="M13.2891 18.527C13.2891 20.0235 14.5032 21.2376 15.9997 21.2376C17.4961 21.2376 18.7102 20.0235 18.7102 18.527C18.7102 17.0305 17.4961 15.8164 15.9997 15.8164C14.5032 15.8164 13.2891 17.0305 13.2891 18.527Z" fill="#1D6CEB"/>
</svg>
