<svg width="32" height="32" viewBox="0 0 32 32" fill="none" xmlns="http://www.w3.org/2000/svg">
<path d="M23.6 23.7687L25.2421 25.4108L24.8 25.0066C23.7895 26.1055 22.3495 26.7371 20.8463 26.7371C18.5727 26.7371 16.6401 25.3097 15.8569 23.314C15.6169 22.7077 15.478 22.0508 15.478 21.3561C15.478 18.4004 17.8906 15.9878 20.8463 15.9878C22.5516 15.9878 24.1179 16.7709 25.1537 18.1351L25.6337 17.7688L26.1642 17.3772C24.901 15.6846 22.9558 14.7246 20.8463 14.7246C17.1832 14.7246 14.2148 17.7056 14.2148 21.3561C14.2148 22.0382 14.3538 22.695 14.5433 23.314C15.3896 26.0171 17.878 28.0002 20.8463 28.0002C22.6905 28.0002 24.4589 27.2297 25.7094 25.8782L26.6442 26.8129L27.0736 23.3392L26.4547 23.415L23.6 23.7687Z" fill="#1FB279"/>
<path d="M20.0495 22.7584L17.9906 20.6995L17.0938 21.5963L18.8369 23.3394L19.6074 24.11C19.7337 24.2363 19.8979 24.2994 20.0495 24.2994C20.2011 24.2994 20.3779 24.2363 20.4916 24.11L24.3063 20.2953L23.4095 19.3984L20.8327 21.9752L20.0369 22.771L20.0495 22.7584Z" fill="#1FB279"/>
<path d="M15.1608 9.30566H8.33984V10.5688H15.1608V9.30566Z" fill="#808796"/>
<path d="M17.4345 6.77832H8.33984V8.04146H17.4345V6.77832Z" fill="#808796"/>
<path d="M20.8453 4H4.92969V23.3261H14.5422C14.3527 22.7071 14.2138 22.0503 14.2138 21.3682C14.2138 17.7051 17.1822 14.7367 20.8453 14.7367V4ZM15.1611 10.5683H8.34017V9.3052H15.1611V10.5683ZM17.4348 8.04206H8.34017V6.77891H17.4348V8.04206Z" fill="#CDD2DE"/>
</svg>
