<svg width="38" height="44" viewBox="0 0 38 44" fill="none" xmlns="http://www.w3.org/2000/svg">
<g filter="url(#filter0_d_6292_10670)">
<path d="M29 7C30.1046 7 31 7.89543 31 9V29C31 30.1046 30.1046 31 29 31H21V36C21 36.5523 20.5523 37 20 37H18C17.4477 37 17 36.5523 17 36V31H9C7.89543 31 7 30.1046 7 29V9C7 7.89543 7.89543 7 9 7H29Z" fill="white"/>
<path d="M19 11C22.8671 11 25.9997 11.4211 26 14.3682V18.7266C25.4696 18.4178 24.8791 18.202 24.25 18.1025V14.3682H13.75V18.5791H21.1807C19.5105 19.419 18.3633 21.1542 18.3633 23.1602C18.3633 23.9307 18.5338 24.6609 18.8369 25.3164H15.5V26.1582C15.5 26.6214 15.1106 27.0009 14.625 27.001H13.75C13.2688 27.001 12.875 26.6214 12.875 26.1582V24.6592C12.3414 24.196 12 23.5352 12 22.79V14.3682C12.0003 11.421 15.1328 11 19 11ZM15.0625 21.1055C14.3363 21.1055 13.75 21.6702 13.75 22.3691C13.7501 23.068 14.3363 23.6318 15.0625 23.6318C15.7886 23.6318 16.3749 23.068 16.375 22.3691C16.375 21.6702 15.7887 21.1055 15.0625 21.1055Z" fill="#1D6CEB"/>
<path d="M23.5199 18.6797C25.9941 18.6798 27.9994 20.6859 27.9994 23.1602C27.9993 25.6343 25.9941 27.6395 23.5199 27.6396C21.0457 27.6395 19.0396 25.6343 19.0394 23.1602C19.0394 20.6859 21.0456 18.6798 23.5199 18.6797ZM23.5199 20.7422C23.2772 20.7423 23.0805 20.939 23.0804 21.1816V22.7207C23.0804 22.7256 23.0813 22.7305 23.0814 22.7354H21.5277C21.2851 22.7355 21.0884 22.9322 21.0883 23.1748C21.0883 23.4175 21.285 23.6141 21.5277 23.6143H23.0804V25.167C23.0805 25.4097 23.2772 25.6063 23.5199 25.6064C23.7627 25.6064 23.9593 25.4098 23.9594 25.167V23.6143H25.5131C25.7559 23.6143 25.9525 23.4176 25.9525 23.1748C25.9524 22.9321 25.7558 22.7354 25.5131 22.7354H23.9584C23.9585 22.7305 23.9593 22.7256 23.9594 22.7207V21.1816C23.9592 20.9389 23.7626 20.7422 23.5199 20.7422Z" fill="#1D6CEB"/>
<path d="M16 36V32H9C7.39489 32 6.08421 30.7394 6.00391 29.1543L6 29V9C6 7.34315 7.34315 6 9 6V7C7.89543 7 7 7.89543 7 9V29C7 30.1046 7.89543 31 9 31H17V36C17 36.5523 17.4477 37 18 37H20C20.5523 37 21 36.5523 21 36V31H29C30.1046 31 31 30.1046 31 29V9C31 7.89543 30.1046 7 29 7V6C30.6051 6 31.9158 7.26055 31.9961 8.8457L32 9V29C32 30.6569 30.6569 32 29 32H22V36C22 37.1046 21.1046 38 20 38H18C16.8954 38 16 37.1046 16 36ZM29 6V7H9V6H29Z" fill="#1D6CEB"/>
</g>
<defs>
<filter id="filter0_d_6292_10670" x="-6" y="-6" width="50" height="56" filterUnits="userSpaceOnUse" color-interpolation-filters="sRGB">
<feFlood flood-opacity="0" result="BackgroundImageFix"/>
<feColorMatrix in="SourceAlpha" type="matrix" values="0 0 0 0 0 0 0 0 0 0 0 0 0 0 0 0 0 0 127 0" result="hardAlpha"/>
<feOffset/>
<feGaussianBlur stdDeviation="3"/>
<feComposite in2="hardAlpha" operator="out"/>
<feColorMatrix type="matrix" values="0 0 0 0 0 0 0 0 0 0 0 0 0 0 0 0 0 0 0.4 0"/>
<feBlend mode="normal" in2="BackgroundImageFix" result="effect1_dropShadow_6292_10670"/>
<feBlend mode="normal" in="SourceGraphic" in2="effect1_dropShadow_6292_10670" result="shape"/>
</filter>
</defs>
</svg>
