<svg width="46" height="54" viewBox="0 0 46 54" fill="none" xmlns="http://www.w3.org/2000/svg">
<g filter="url(#filter0_d_5857_22796)">
<path d="M36 8C37.1044 8.00021 38 8.89556 38 10V36C38 37.1044 37.1044 37.9998 36 38H26V45C26 45.5523 25.5523 46 25 46H21C20.4477 46 20 45.5523 20 45V38H10C8.89543 38 8 37.1046 8 36V10C8 8.89543 8.89543 8 10 8H36Z" fill="#1D6CEB"/>
<path d="M17.5 30.5381V15H24.6811C25.689 15 26.5359 15.175 27.2218 15.5249C27.9217 15.8749 28.4537 16.3438 28.8176 16.9318C29.1816 17.5057 29.3635 18.1426 29.3635 18.8425C29.3635 19.5284 29.2376 20.1024 28.9856 20.5643C28.7336 21.0123 28.4257 21.3762 28.0617 21.6562C27.7117 21.9221 27.3688 22.1041 27.0328 22.2021V22.3701C27.4108 22.4541 27.8307 22.6361 28.2927 22.916C28.7546 23.196 29.1536 23.5949 29.4895 24.1129C29.8255 24.6308 29.9935 25.3027 29.9935 26.1286C29.9935 26.8565 29.8185 27.5565 29.4685 28.2284C29.1326 28.9003 28.5796 29.4532 27.8097 29.8872C27.0538 30.3211 26.0669 30.5381 24.8491 30.5381H17.5ZM24.1352 17.7087H20.7336V21.3202H24.1352C24.8631 21.3202 25.395 21.1452 25.731 20.7953C26.0669 20.4453 26.2349 20.0184 26.2349 19.5144C26.2349 19.0245 26.0669 18.6046 25.731 18.2546C25.395 17.8906 24.8631 17.7087 24.1352 17.7087ZM24.3872 23.7979H20.7336V27.8294H24.3872C25.213 27.8294 25.808 27.6334 26.1719 27.2415C26.5499 26.8355 26.7389 26.3526 26.7389 25.7927C26.7389 25.2467 26.5499 24.7778 26.1719 24.3858C25.808 23.9939 25.213 23.7979 24.3872 23.7979Z" fill="white"/>
<path d="M20 45C20 45.5523 20.4477 46 21 46H25C25.5523 46 26 45.5523 26 45V38H36C37.1044 37.9998 38 37.1044 38 36V10C38 8.89556 37.1044 8.00021 36 8V6C38.1392 6.00042 39.8879 7.68036 39.9951 9.79395L40 10V36C40 38.1404 38.3188 39.8877 36.2061 39.9951L36 40H28V45C28 46.6569 26.6569 48 25 48H21C19.3431 48 18 46.6569 18 45V40H10C7.85996 40 6.11211 38.3194 6.00488 36.2061L6 36V10C6 7.79086 7.79086 6 10 6V8C8.89543 8 8 8.89543 8 10V36C8 37.1046 8.89543 38 10 38H20V45ZM36 6V8H10V6H36Z" fill="white"/>
</g>
<defs>
<filter id="filter0_d_5857_22796" x="-6" y="-6" width="58" height="66" filterUnits="userSpaceOnUse" color-interpolation-filters="sRGB">
<feFlood flood-opacity="0" result="BackgroundImageFix"/>
<feColorMatrix in="SourceAlpha" type="matrix" values="0 0 0 0 0 0 0 0 0 0 0 0 0 0 0 0 0 0 127 0" result="hardAlpha"/>
<feOffset/>
<feGaussianBlur stdDeviation="3"/>
<feComposite in2="hardAlpha" operator="out"/>
<feColorMatrix type="matrix" values="0 0 0 0 0 0 0 0 0 0 0 0 0 0 0 0 0 0 0.4 0"/>
<feBlend mode="normal" in2="BackgroundImageFix" result="effect1_dropShadow_5857_22796"/>
<feBlend mode="normal" in="SourceGraphic" in2="effect1_dropShadow_5857_22796" result="shape"/>
</filter>
</defs>
</svg>
