<svg width="24" height="24" viewBox="0 0 24 24" fill="none" xmlns="http://www.w3.org/2000/svg">
<g clip-path="url(#clip0_3732_14214)">
<path d="M10.8919 19.2496C12.9033 19.2463 14.8455 18.515 16.3594 17.1908L21.5007 22.2646L22.2994 21.4658L17.1919 16.3583C18.4291 14.9205 19.1374 13.1029 19.1993 11.2071C19.2611 9.31128 18.6729 7.45131 17.5321 5.93587C16.3914 4.42043 14.7667 3.34064 12.9278 2.8757C11.0888 2.41076 9.14619 2.58863 7.42225 3.37979C5.69832 4.17096 4.29676 5.52783 3.45018 7.22524C2.60359 8.92264 2.3629 10.8585 2.76803 12.7115C3.17317 14.5646 4.19977 16.2234 5.67747 17.4126C7.15517 18.6018 8.9951 19.25 10.8919 19.2496ZM10.8919 3.73583C12.3169 3.7336 13.7105 4.15427 14.8962 4.94456C16.082 5.73485 17.0066 6.85922 17.5529 8.17531C18.0993 9.49139 18.2428 10.94 17.9654 12.3377C17.6879 13.7354 17.0019 15.0194 15.9943 16.027C14.9867 17.0346 13.7028 17.7206 12.305 17.998C10.9073 18.2755 9.45873 18.1319 8.14264 17.5856C6.82655 17.0393 5.70218 16.1147 4.91189 14.9289C4.1216 13.7432 3.70094 12.3496 3.70316 10.9246C3.7002 9.97811 3.88388 9.04035 4.24368 8.16494C4.60349 7.28954 5.13236 6.49366 5.80005 5.82284C6.46773 5.15202 7.26113 4.61942 8.13484 4.25552C9.00855 3.89162 9.94544 3.70355 10.8919 3.70208V3.73583Z" fill="#353535"/>
</g>
<defs>
<clipPath id="clip0_3732_14214">
<rect width="27" height="27" fill="white" transform="translate(-1 -1)"/>
</clipPath>
</defs>
</svg>
