<svg width="38" height="44" viewBox="0 0 38 44" fill="none" xmlns="http://www.w3.org/2000/svg">
<g filter="url(#filter0_d_5857_22804)">
<path d="M29 7C30.1046 7 31 7.89543 31 9V29C31 30.1046 30.1046 31 29 31H21V36C21 36.5523 20.5523 37 20 37H18C17.4477 37 17 36.5523 17 36V31H9C7.89543 31 7 30.1046 7 29V9C7 7.89543 7.89543 7 9 7H29Z" fill="white"/>
<path d="M14.6064 24.6632V12.8232H20.0784C20.8464 12.8232 21.4918 12.9566 22.0144 13.2232C22.5478 13.4899 22.9531 13.8472 23.2304 14.2952C23.5078 14.7326 23.6464 15.2179 23.6464 15.7512C23.6464 16.2739 23.5504 16.7112 23.3584 17.0632C23.1664 17.4046 22.9318 17.6819 22.6544 17.8952C22.3878 18.0979 22.1264 18.2366 21.8704 18.3112V18.4392C22.1584 18.5032 22.4784 18.6419 22.8304 18.8552C23.1824 19.0686 23.4864 19.3726 23.7424 19.7672C23.9984 20.1619 24.1264 20.6739 24.1264 21.3032C24.1264 21.8579 23.9931 22.3912 23.7264 22.9032C23.4704 23.4152 23.0491 23.8366 22.4624 24.1672C21.8864 24.4979 21.1344 24.6632 20.2064 24.6632H14.6064ZM19.6624 14.8872H17.0704V17.6392H19.6624C20.2171 17.6392 20.6224 17.5059 20.8784 17.2392C21.1344 16.9726 21.2624 16.6472 21.2624 16.2632C21.2624 15.8899 21.1344 15.5699 20.8784 15.3032C20.6224 15.0259 20.2171 14.8872 19.6624 14.8872ZM19.8544 19.5272H17.0704V22.5992H19.8544C20.4838 22.5992 20.9371 22.4499 21.2144 22.1512C21.5024 21.8419 21.6464 21.4739 21.6464 21.0472C21.6464 20.6312 21.5024 20.2739 21.2144 19.9752C20.9371 19.6766 20.4838 19.5272 19.8544 19.5272Z" fill="#1D6CEB"/>
<path d="M16 36V32H9C7.39489 32 6.08421 30.7394 6.00391 29.1543L6 29V9C6 7.34315 7.34315 6 9 6V7C7.89543 7 7 7.89543 7 9V29C7 30.1046 7.89543 31 9 31H17V36C17 36.5523 17.4477 37 18 37H20C20.5523 37 21 36.5523 21 36V31H29C30.1046 31 31 30.1046 31 29V9C31 7.89543 30.1046 7 29 7V6C30.6051 6 31.9158 7.26055 31.9961 8.8457L32 9V29C32 30.6569 30.6569 32 29 32H22V36C22 37.1046 21.1046 38 20 38H18C16.8954 38 16 37.1046 16 36ZM29 6V7H9V6H29Z" fill="#1D6CEB"/>
</g>
<defs>
<filter id="filter0_d_5857_22804" x="-6" y="-6" width="50" height="56" filterUnits="userSpaceOnUse" color-interpolation-filters="sRGB">
<feFlood flood-opacity="0" result="BackgroundImageFix"/>
<feColorMatrix in="SourceAlpha" type="matrix" values="0 0 0 0 0 0 0 0 0 0 0 0 0 0 0 0 0 0 127 0" result="hardAlpha"/>
<feOffset/>
<feGaussianBlur stdDeviation="3"/>
<feComposite in2="hardAlpha" operator="out"/>
<feColorMatrix type="matrix" values="0 0 0 0 0 0 0 0 0 0 0 0 0 0 0 0 0 0 0.4 0"/>
<feBlend mode="normal" in2="BackgroundImageFix" result="effect1_dropShadow_5857_22804"/>
<feBlend mode="normal" in="SourceGraphic" in2="effect1_dropShadow_5857_22804" result="shape"/>
</filter>
</defs>
</svg>
