<svg width="30" height="30" viewBox="0 0 30 30" fill="none" xmlns="http://www.w3.org/2000/svg">
<path d="M15 3.75C8.78437 3.75 3.75 8.78437 3.75 15C3.75 21.2156 8.78437 26.25 15 26.25C21.2156 26.25 26.25 21.2156 26.25 15C26.25 8.78437 21.2156 3.75 15 3.75ZM19.0078 19.9781H17.1094L13.2703 14.1422H13.2V19.9781H10.9781V10.0359H12.8906L16.6875 15.8719H16.7719V10.0359H18.9938V19.9781H19.0078Z" fill="#FFC200"/>
<path d="M16.7859 15.8715H16.7156L12.9187 10.0215H10.9922V19.9777H13.2141V14.1277H13.2844L17.1094 19.9777H19.0078V10.0215H16.7859V15.8715Z" fill="white"/>
</svg>
