<svg width="32" height="32" viewBox="0 0 32 32" fill="none" xmlns="http://www.w3.org/2000/svg">
<path d="M15.2632 9.44922H8.25781V10.7465H15.2632V9.44922Z" fill="#808796"/>
<path d="M17.5984 6.85449H8.25781V8.15179H17.5984V6.85449Z" fill="#808796"/>
<path d="M14.9 19.0742H10.9692C10.3075 19.0742 9.65889 19.3207 9.20484 19.8007C8.25781 20.7996 8.25781 21.9283 8.25781 21.9283H14.9519C14.9519 21.9283 14.9519 21.8634 14.9519 21.8375C14.9519 20.8775 15.1854 19.9823 15.5746 19.178C15.354 19.1261 15.1335 19.0742 14.9129 19.0742H14.9Z" fill="#808796"/>
<path d="M10.6836 16.0139C10.6836 17.2593 11.6955 18.2582 12.9279 18.2582C14.1604 18.2582 15.1722 17.2463 15.1722 16.0139C15.1722 14.7814 14.1604 13.7695 12.9279 13.7695C11.6955 13.7695 10.6836 14.7814 10.6836 16.0139Z" fill="#808796"/>
<path d="M14.9507 21.9286H8.24364C8.24364 21.9286 8.24364 20.8 9.19066 19.8011C9.64472 19.3211 10.2934 19.0746 10.955 19.0746H14.8858C15.1063 19.0746 15.3399 19.1135 15.5474 19.1784C16.5463 17.1157 18.635 15.6757 21.0869 15.6757V4H4.75391V23.8486H15.3009C15.0934 23.2389 14.9507 22.6032 14.9507 21.9286ZM12.9269 18.2573C11.6815 18.2573 10.6826 17.2454 10.6826 16.013C10.6826 14.7805 11.6944 13.7686 12.9269 13.7686C14.1593 13.7686 15.1712 14.7805 15.1712 16.013C15.1712 17.2454 14.1593 18.2573 12.9269 18.2573ZM8.25661 6.85405H17.5971V8.15135H8.25661V6.85405ZM8.25661 9.44865H15.262V10.7459H8.25661V9.44865Z" fill="#CDD2DE"/>
<path d="M21.0997 15.6758C18.6478 15.6758 16.5591 17.1158 15.5602 19.1785C15.171 19.9828 14.9375 20.8779 14.9375 21.8379C14.9375 21.8769 14.9375 21.9028 14.9375 21.9288C14.9375 22.6033 15.0802 23.239 15.2878 23.8488C16.131 26.2617 18.3883 28.0001 21.0867 28.0001C24.4856 28.0001 27.2489 25.2369 27.2489 21.8379C27.2489 18.439 24.4856 15.6758 21.0867 15.6758H21.0997ZM20.6326 24.5104C20.5029 24.6401 20.3343 24.705 20.1786 24.705C20.0229 24.705 19.8413 24.6401 19.7245 24.5104L19.0629 23.8488L17.1559 21.9417L17.571 21.5136L18.064 21.0206L20.1786 23.1352L21.1126 22.2012L24.1613 19.1525L25.0824 20.0736L20.6456 24.5104H20.6326Z" fill="#1D6CEB"/>
<path d="M21.1013 22.201L20.1672 23.135L18.0526 21.0205L17.5597 21.5134L17.1445 21.9286L19.0516 23.8486L19.7132 24.5102C19.8429 24.6399 20.0116 24.7048 20.1672 24.7048C20.3229 24.7048 20.5045 24.6399 20.6213 24.5102L25.058 20.0734L24.137 19.1523L21.0883 22.201H21.1013Z" fill="white"/>
</svg>
