<svg width="32" height="32" viewBox="0 0 32 32" fill="none" xmlns="http://www.w3.org/2000/svg">
<path d="M4 16.7198H6.11765V18.8375H4V20.701H6.35765C6.42824 19.0069 7.81176 17.6516 9.52 17.6516C11.2282 17.6516 12.6118 19.0069 12.6824 20.701H19.8965C19.9671 19.0069 21.3506 17.6516 23.0588 17.6516C24.7671 17.6516 26.1506 19.0069 26.2212 20.701H28V7.99512H4V16.7198ZM18.3294 15.0539H15.6188V13.6422H18.3294V15.0539ZM22.4659 15.0539H19.7553V13.6422H22.4659V15.0539ZM26.5882 15.0539H23.8776V13.6422H26.5882V15.0539ZM11.4965 9.40688H26.5882V12.2304H11.4965V9.40688ZM11.4965 13.6422H14.2071V15.0539H11.4965V13.6422ZM5.41176 9.40688H10.0847V15.0539H5.41176V9.40688Z" fill="#1FB279"/>
<path d="M26.5879 9.40723H11.4961V12.2308H26.5879V9.40723Z" fill="#E8EBEF"/>
<path d="M21.3212 20.7011C21.3212 20.7011 21.293 20.7858 21.293 20.8282C21.293 21.8023 22.0836 22.5929 23.0577 22.5929C24.0318 22.5929 24.8224 21.8023 24.8224 20.8282C24.8224 20.7858 24.7941 20.7435 24.7941 20.7011C24.7236 19.7835 23.9894 19.0635 23.0577 19.0635C22.1259 19.0635 21.3918 19.7835 21.3212 20.7011Z" fill="#E8EBEF"/>
<path d="M9.51861 19.0635C8.58685 19.0635 7.85273 19.7835 7.78214 20.7011C7.78214 20.7435 7.75391 20.7858 7.75391 20.8282C7.75391 21.8023 8.54449 22.5929 9.51861 22.5929C10.4927 22.5929 11.2833 21.8023 11.2833 20.8282C11.2833 20.7858 11.2551 20.7435 11.2551 20.7011C11.1845 19.7835 10.4504 19.0635 9.51861 19.0635Z" fill="#E8EBEF"/>
<path d="M14.2067 13.6426H11.4961V15.0543H14.2067V13.6426Z" fill="#E8EBEF"/>
<path d="M18.3317 13.6426H15.6211V15.0543H18.3317V13.6426Z" fill="#E8EBEF"/>
<path d="M22.4528 13.6426H19.7422V15.0543H22.4528V13.6426Z" fill="#E8EBEF"/>
<path d="M26.5895 13.6426H23.8789V15.0543H26.5895V13.6426Z" fill="#E8EBEF"/>
<path d="M10.0831 9.40723H5.41016V15.0543H10.0831V9.40723Z" fill="#E8EBEF"/>
<path d="M26.2349 20.8278C26.2349 20.8278 26.2349 20.7431 26.2349 20.7008C26.1643 19.0067 24.7807 17.6514 23.0725 17.6514C21.3643 17.6514 19.9807 19.0067 19.9102 20.7008C19.9102 20.7431 19.9102 20.7855 19.9102 20.8278C19.9102 22.5784 21.336 24.0043 23.0866 24.0043C24.8372 24.0043 26.2631 22.5784 26.2631 20.8278H26.2349ZM21.3219 20.7008C21.3925 19.7831 22.1266 19.0631 23.0584 19.0631C23.9902 19.0631 24.7243 19.7831 24.7949 20.7008C24.7949 20.7431 24.8231 20.7855 24.8231 20.8278C24.8231 21.802 24.0325 22.5925 23.0584 22.5925C22.0843 22.5925 21.2937 21.802 21.2937 20.8278C21.2937 20.7855 21.3219 20.7431 21.3219 20.7008Z" fill="#3E4347"/>
<path d="M6.11765 16.7197H4V18.8374H6.11765V16.7197Z" fill="#3E4347"/>
<path d="M9.52173 17.6514C7.81349 17.6514 6.42996 19.0067 6.35938 20.7008C6.35938 20.7431 6.35938 20.7855 6.35938 20.8278C6.35938 22.5784 7.78526 24.0043 9.53585 24.0043C11.2864 24.0043 12.7123 22.5784 12.7123 20.8278C12.7123 20.7855 12.7123 20.7431 12.7123 20.7008C12.6417 19.0067 11.2582 17.6514 9.54996 17.6514H9.52173ZM7.75702 20.8278C7.75702 20.8278 7.78526 20.7431 7.78526 20.7008C7.85585 19.7831 8.58996 19.0631 9.52173 19.0631C10.4535 19.0631 11.1876 19.7831 11.2582 20.7008C11.2582 20.7431 11.2864 20.7855 11.2864 20.8278C11.2864 21.802 10.4958 22.5925 9.52173 22.5925C8.54761 22.5925 7.75702 21.802 7.75702 20.8278Z" fill="#3E4347"/>
</svg>
