<svg width="26" height="26" viewBox="0 0 26 26" fill="none" xmlns="http://www.w3.org/2000/svg">
<path d="M21.002 2C21.8466 2 22.5312 2.68468 22.5312 3.5293V18.8037C22.5312 19.6484 21.8466 20.334 21.002 20.334H14.833V22.4707C14.8329 23.3152 14.1482 23.9998 13.3037 24H12.6953C11.8507 23.9999 11.1661 23.3153 11.166 22.4707V20.334H4.99414C4.14952 20.3339 3.46484 19.6483 3.46484 18.8037V3.5293C3.46491 2.68472 4.14956 2.00006 4.99414 2H21.002ZM12.999 4.58789C10.0417 4.58792 7.64648 4.91029 7.64648 7.16406V13.6035C7.64653 14.1734 7.9073 14.6791 8.31543 15.0332V16.1797C8.31569 16.5335 8.61668 16.8231 8.98438 16.8232H9.6543C10.0253 16.823 10.323 16.5335 10.3232 16.1797V15.5352H15.6758V16.1797C15.676 16.5336 15.9737 16.8231 16.3447 16.8232H17.0137C17.3815 16.8232 17.6833 16.5337 17.6836 16.1797V15.0332C18.0917 14.6791 18.3525 14.1733 18.3525 13.6035V7.16406C18.3525 4.91019 15.9565 4.58789 12.999 4.58789ZM9.98828 12.3154C10.5436 12.3154 10.9921 12.7468 10.9922 13.2812C10.9922 13.8157 10.5436 14.2471 9.98828 14.2471C9.43297 14.247 8.98438 13.8157 8.98438 13.2812C8.98445 12.7469 9.43301 12.3155 9.98828 12.3154ZM16.0107 12.3154C16.5659 12.3156 17.0136 12.7469 17.0137 13.2812C17.0137 13.8156 16.566 14.2469 16.0107 14.2471C15.4554 14.2471 15.0068 13.8157 15.0068 13.2812C15.0069 12.7468 15.4554 12.3154 16.0107 12.3154ZM17.0137 10.3838H8.98438V7.16406H17.0137V10.3838Z" fill="#C4C4C4"/>
</svg>
