<svg width="46" height="54" viewBox="0 0 46 54" fill="none" xmlns="http://www.w3.org/2000/svg">
<g filter="url(#filter0_d_6292_10584)">
<path d="M36 8C37.1044 8.00021 38 8.89556 38 10V36C38 37.1044 37.1044 37.9998 36 38H26V45C26 45.5523 25.5523 46 25 46H21C20.4477 46 20 45.5523 20 45V38H10C8.89543 38 8 37.1046 8 36V10C8 8.89543 8.89543 8 10 8H36Z" fill="#757575"/>
<path d="M20 45C20 45.5523 20.4477 46 21 46H25C25.5523 46 26 45.5523 26 45V38H36C37.1044 37.9998 38 37.1044 38 36V10C38 8.89556 37.1044 8.00021 36 8V6C38.1392 6.00042 39.8879 7.68036 39.9951 9.79395L40 10V36C40 38.1404 38.3188 39.8877 36.2061 39.9951L36 40H28V45C28 46.6569 26.6569 48 25 48H21C19.3431 48 18 46.6569 18 45V40H10C7.85996 40 6.11211 38.3194 6.00488 36.2061L6 36V10C6 7.79086 7.79086 6 10 6V8C8.89543 8 8 8.89543 8 10V36C8 37.1046 8.89543 38 10 38H20V45ZM36 6V8H10V6H36Z" fill="white"/>
<path d="M15 27.3307C15 28.1824 15.39 28.9378 16 29.4671V31.1802C16 31.7095 16.45 32.1425 16.9999 32.1425H17.9999C18.5549 32.1425 18.9999 31.7095 18.9999 31.1802V30.2178H26.9996V31.1802C26.9996 31.7095 27.4446 32.1425 27.9996 32.1425H28.9995C29.5495 32.1425 29.9995 31.7095 29.9995 31.1802V29.4671C30.6095 28.9378 30.9995 28.1824 30.9995 27.3307V17.7069C30.9995 14.3386 27.4196 13.8574 22.9997 13.8574C18.5799 13.8574 15 14.3386 15 17.7069V27.3307ZM18.4999 28.293C17.6699 28.293 16.9999 27.6483 16.9999 26.8495C16.9999 26.0507 17.6699 25.4059 18.4999 25.4059C19.3299 25.4059 19.9998 26.0507 19.9998 26.8495C19.9998 27.6483 19.3299 28.293 18.4999 28.293ZM27.4996 28.293C26.6696 28.293 25.9996 27.6483 25.9996 26.8495C25.9996 26.0507 26.6696 25.4059 27.4996 25.4059C28.3296 25.4059 28.9995 26.0507 28.9995 26.8495C28.9995 27.6483 28.3296 28.293 27.4996 28.293ZM28.9995 22.5188H16.9999V17.7069H28.9995V22.5188Z" fill="white"/>
</g>
<defs>
<filter id="filter0_d_6292_10584" x="-6" y="-6" width="58" height="66" filterUnits="userSpaceOnUse" color-interpolation-filters="sRGB">
<feFlood flood-opacity="0" result="BackgroundImageFix"/>
<feColorMatrix in="SourceAlpha" type="matrix" values="0 0 0 0 0 0 0 0 0 0 0 0 0 0 0 0 0 0 127 0" result="hardAlpha"/>
<feOffset/>
<feGaussianBlur stdDeviation="3"/>
<feComposite in2="hardAlpha" operator="out"/>
<feColorMatrix type="matrix" values="0 0 0 0 0 0 0 0 0 0 0 0 0 0 0 0 0 0 0.4 0"/>
<feBlend mode="normal" in2="BackgroundImageFix" result="effect1_dropShadow_6292_10584"/>
<feBlend mode="normal" in="SourceGraphic" in2="effect1_dropShadow_6292_10584" result="shape"/>
</filter>
</defs>
</svg>
