<svg width="20" height="20" viewBox="0 0 20 20" fill="none" xmlns="http://www.w3.org/2000/svg">
<g clip-path="url(#clip0_5385_131521)">
<path d="M2.72487 8.1997C2.42504 9.38098 2.42504 10.6184 2.72487 11.7997C2.74867 11.89 2.80157 11.97 2.87538 12.0272C2.94919 12.0845 3.0398 12.1158 3.1332 12.1164H4.56653C4.76627 12.6585 5.04726 13.1671 5.39987 13.6247L4.67487 14.8747C4.62773 14.9547 4.60869 15.0482 4.62076 15.1403C4.63284 15.2324 4.67535 15.3179 4.74153 15.383C5.17754 15.8047 5.66138 16.1739 6.1832 16.483C6.70879 16.7842 7.26825 17.022 7.84987 17.1914H7.96653C8.03932 17.1959 8.11195 17.1804 8.17657 17.1466C8.2412 17.1128 8.29536 17.062 8.3332 16.9997L9.0582 15.758C9.65963 15.858 10.2734 15.858 10.8749 15.758L11.6665 16.9997C11.7131 17.08 11.7851 17.1424 11.8711 17.1771C11.9571 17.2119 12.0523 17.2169 12.1415 17.1914C12.7231 17.022 13.2826 16.7842 13.8082 16.483C14.33 16.1739 14.8139 15.8047 15.2499 15.383C15.3161 15.3179 15.3586 15.2324 15.3706 15.1403C15.3827 15.0482 15.3637 14.9547 15.3165 14.8747L14.5915 13.6247C14.9618 13.1718 15.2572 12.6626 15.4665 12.1164H16.8999C16.9933 12.1158 17.0839 12.0845 17.1577 12.0272C17.2315 11.97 17.2844 11.89 17.3082 11.7997C17.608 10.6184 17.608 9.38098 17.3082 8.1997C17.2844 8.10939 17.2315 8.02943 17.1577 7.97219C17.0839 7.91495 16.9933 7.88362 16.8999 7.88304H15.4332C15.2239 7.33681 14.9285 6.82759 14.5582 6.3747L15.2832 5.1247C15.3303 5.04467 15.3494 4.95117 15.3373 4.85907C15.3252 4.76697 15.2827 4.68155 15.2165 4.61637C14.7805 4.19473 14.2967 3.82555 13.7749 3.51637C13.2493 3.21517 12.6898 2.9774 12.1082 2.80804C12.0238 2.78906 11.9355 2.7974 11.8561 2.83185C11.7767 2.8663 11.7103 2.92508 11.6665 2.9997L10.9415 4.24137C10.3401 4.14144 9.7263 4.14144 9.12487 4.24137L8.3332 2.9997C8.28667 2.91943 8.21468 2.85698 8.12863 2.82226C8.04259 2.78754 7.94741 2.78254 7.8582 2.80804C7.27659 2.9774 6.71712 3.21517 6.19153 3.51637C5.68137 3.82769 5.20881 4.1968 4.7832 4.61637C4.71702 4.68155 4.67451 4.76697 4.66243 4.85907C4.65035 4.95117 4.66939 5.04467 4.71653 5.1247L5.44153 6.3747C5.086 6.83042 4.80475 7.33948 4.6082 7.88304H3.1332C3.0398 7.88362 2.94919 7.91495 2.87538 7.97219C2.80157 8.02943 2.74867 8.10939 2.72487 8.1997ZM3.46653 8.71637H4.8582C4.94597 8.71623 5.03154 8.68891 5.10316 8.63818C5.17479 8.58745 5.22894 8.51579 5.2582 8.43304C5.46722 7.78196 5.80757 7.18068 6.2582 6.66637C6.31605 6.60116 6.35198 6.51945 6.36095 6.43275C6.36992 6.34604 6.35147 6.25871 6.3082 6.18304L5.59987 4.9997C6.24332 4.423 6.99756 3.9835 7.81653 3.70804L8.51653 4.90804C8.56056 4.98486 8.62791 5.04567 8.70883 5.08163C8.78974 5.11759 8.88001 5.12684 8.96653 5.10804C9.64813 4.96629 10.3516 4.96629 11.0332 5.10804C11.1198 5.12821 11.2105 5.1196 11.2917 5.08351C11.373 5.04741 11.4402 4.9858 11.4832 4.90804L12.1832 3.70804C13.0022 3.9835 13.7564 4.423 14.3999 4.9997L13.6915 6.20804C13.6483 6.28371 13.6298 6.37104 13.6388 6.45775C13.6478 6.54445 13.6837 6.62616 13.7415 6.69137C14.1905 7.19879 14.5334 7.79099 14.7499 8.43304C14.7765 8.51581 14.8288 8.58793 14.8993 8.63889C14.9697 8.68985 15.0546 8.717 15.1415 8.71637H16.5332C16.711 9.56269 16.711 10.4367 16.5332 11.283H15.1415C15.0538 11.2832 14.9682 11.3105 14.8966 11.3612C14.8249 11.412 14.7708 11.4836 14.7415 11.5664C14.5325 12.2174 14.1922 12.8187 13.7415 13.333C13.6837 13.3982 13.6478 13.48 13.6388 13.5667C13.6298 13.6534 13.6483 13.7407 13.6915 13.8164L14.3999 14.9997C13.7564 15.5764 13.0022 16.0159 12.1832 16.2914L11.4832 15.0914C11.4402 15.0136 11.373 14.952 11.2917 14.9159C11.2105 14.8798 11.1198 14.8712 11.0332 14.8914C10.3516 15.0331 9.64813 15.0331 8.96653 14.8914C8.88001 14.8726 8.78974 14.8818 8.70883 14.9178C8.62791 14.9537 8.56056 15.0145 8.51653 15.0914L7.81653 16.2914C6.99756 16.0159 6.24332 15.5764 5.59987 14.9997L6.3082 13.7914C6.3459 13.7185 6.36127 13.6362 6.35237 13.5547C6.34348 13.4731 6.31072 13.396 6.2582 13.333C5.8105 12.8261 5.47031 12.2336 5.2582 11.5914C5.22894 11.5086 5.17479 11.437 5.10316 11.3862C5.03154 11.3355 4.94597 11.3082 4.8582 11.308H3.46653C3.28873 10.4617 3.28873 9.58769 3.46653 8.74137V8.71637Z" fill="#7F7F7F"/>
<path d="M10.0008 12.0749C10.4135 12.0765 10.8175 11.9555 11.1614 11.7272C11.5052 11.4989 11.7736 11.1737 11.9323 10.7926C12.091 10.4116 12.1329 9.99204 12.0528 9.58714C11.9727 9.18224 11.7741 8.81026 11.4823 8.5184C11.1904 8.22654 10.8184 8.02795 10.4135 7.94783C10.0086 7.86771 9.58903 7.90967 9.20802 8.06838C8.827 8.2271 8.50171 8.49541 8.27343 8.83929C8.04514 9.18317 7.92415 9.5871 7.9258 9.99985C7.92799 10.5495 8.14731 11.076 8.53598 11.4647C8.92464 11.8533 9.45115 12.0727 10.0008 12.0749ZM10.0008 8.74152C10.248 8.74152 10.4897 8.81483 10.6953 8.95218C10.9008 9.08954 11.061 9.28476 11.1556 9.51317C11.2503 9.74157 11.275 9.99291 11.2268 10.2354C11.1785 10.4779 11.0595 10.7006 10.8847 10.8754C10.7099 11.0502 10.4871 11.1693 10.2447 11.2175C10.0022 11.2657 9.75085 11.241 9.52244 11.1464C9.29404 11.0518 9.09881 10.8915 8.96146 10.686C8.82411 10.4804 8.7508 10.2387 8.7508 9.99152C8.7508 9.66 8.88249 9.34206 9.11691 9.10764C9.35133 8.87322 9.66928 8.74152 10.0008 8.74152Z" fill="#7F7F7F"/>
</g>
<defs>
<clipPath id="clip0_5385_131521">
<rect width="20" height="20" fill="white"/>
</clipPath>
</defs>
</svg>
