<svg width="26" height="26" viewBox="0 0 26 26" fill="none" xmlns="http://www.w3.org/2000/svg">
<path d="M5 17.4732C5 18.3249 5.38999 19.0804 5.99997 19.6097V21.3227C5.99997 21.8521 6.44995 22.2851 6.99993 22.2851H7.9999C8.55488 22.2851 8.99987 21.8521 8.99987 21.3227V20.3604H16.9996V21.3227C16.9996 21.8521 17.4446 22.2851 17.9996 22.2851H18.9995C19.5495 22.2851 19.9995 21.8521 19.9995 21.3227V19.6097C20.6095 19.0804 20.9995 18.3249 20.9995 17.4732V7.8495C20.9995 4.48119 17.4196 4 12.9997 4C8.57988 4 5 4.48119 5 7.8495V17.4732ZM8.49989 18.4356C7.66991 18.4356 6.99993 17.7908 6.99993 16.9921C6.99993 16.1933 7.66991 15.5485 8.49989 15.5485C9.32986 15.5485 9.99984 16.1933 9.99984 16.9921C9.99984 17.7908 9.32986 18.4356 8.49989 18.4356ZM17.4996 18.4356C16.6696 18.4356 15.9996 17.7908 15.9996 16.9921C15.9996 16.1933 16.6696 15.5485 17.4996 15.5485C18.3296 15.5485 18.9995 16.1933 18.9995 16.9921C18.9995 17.7908 18.3296 18.4356 17.4996 18.4356ZM18.9995 12.6614H6.99993V7.8495H18.9995V12.6614Z" fill="#C4C4C4"/>
</svg>
