<svg width="24" height="24" viewBox="0 0 24 24" fill="none" xmlns="http://www.w3.org/2000/svg">
<path d="M20.1365 6.44245C20.1365 4.55396 18.5933 3.01079 16.7048 3.01079C15.7444 3.01079 14.8811 3.41007 14.266 4.03597C13.543 3.84173 12.7876 3.72302 11.9998 3.72302C11.212 3.72302 10.4674 3.83094 9.75519 4.02518C9.12929 3.38849 8.26598 3 7.31634 3C5.41706 3.01079 3.88468 4.55396 3.88468 6.44245C3.88468 7.11151 4.07893 7.72662 4.41346 8.2554C3.7444 9.47482 3.3667 10.8777 3.3667 12.3669C3.3667 17.1259 7.2408 21 11.9998 21C16.7588 21 20.6329 17.1259 20.6329 12.3669C20.6329 10.8885 20.2552 9.4964 19.5969 8.27698C19.9314 7.7482 20.1365 7.1223 20.1365 6.45324V6.44245ZM11.9998 19.9209C7.83433 19.9209 4.44584 16.5324 4.44584 12.3669C4.44584 11.2014 4.71562 10.1007 5.19044 9.11871C5.35231 8.78417 5.52497 8.47122 5.73001 8.16907C6.60411 6.86331 7.8667 5.85971 9.35591 5.29856C9.70123 5.16906 10.0466 5.06115 10.4027 4.98561C10.9207 4.8777 11.4494 4.81295 11.9998 4.81295C12.5502 4.81295 13.0897 4.8777 13.6077 4.98561C13.9638 5.06115 14.3199 5.16906 14.6545 5.29856C16.1437 5.85971 17.4063 6.8741 18.2696 8.16907C18.4746 8.47122 18.6473 8.79496 18.7984 9.11871C19.2624 10.1007 19.5322 11.2014 19.5322 12.3561C19.5322 16.5216 16.1437 19.9101 11.9782 19.9101L11.9998 19.9209ZM4.96382 6.44245C4.96382 5.14748 6.02138 4.08993 7.31634 4.08993C7.76958 4.08993 8.19044 4.23022 8.55735 4.45683C7.17605 5.06115 5.989 6.01079 5.10411 7.20863C5.01778 6.97122 4.96382 6.71223 4.96382 6.45324V6.44245ZM15.453 4.45683C15.8199 4.23022 16.2408 4.08993 16.7048 4.08993C17.9998 4.08993 19.0573 5.14748 19.0573 6.44245C19.0573 6.71223 19.0034 6.97122 18.9171 7.21942C18.0214 6.02158 16.8343 5.06115 15.453 4.45683Z" fill="#353535"/>
<path d="M11.6112 12.9497L8.85938 15.7015L9.62556 16.4677L12.5284 13.5648C12.6256 13.4677 12.6903 13.3274 12.6903 13.1871V7.27344H11.6112V12.9497Z" fill="#353535"/>
</svg>
