<svg width="32" height="32" viewBox="0 0 32 32" fill="none" xmlns="http://www.w3.org/2000/svg">
<path d="M26.9867 12.6122H24.6933C24.3467 11.7322 23.88 10.9322 23.2933 10.1856L24.4533 8.19888C24.6133 7.93222 24.56 7.59888 24.3467 7.38555C23.6267 6.69222 22.8533 6.09222 22.04 5.62555C21.2267 5.15888 20.3333 4.77222 19.3733 4.49222C19.08 4.41222 18.76 4.53222 18.6133 4.79888L17.4533 6.78555C16.48 6.62555 15.52 6.62555 14.5467 6.78555L13.3867 4.79888C13.2267 4.53222 12.92 4.41222 12.6267 4.49222C11.6667 4.77222 10.7733 5.15888 9.96 5.62555C9.14667 6.09222 8.37333 6.69222 7.65333 7.38555C7.42667 7.59888 7.38667 7.93222 7.54667 8.19888L8.70667 10.1856C8.12 10.9189 7.65333 11.7322 7.30667 12.6122H5.01333C4.70667 12.6122 4.44 12.8256 4.36 13.1189C4.12 14.0922 4 15.0522 4 15.9989C4 16.9456 4.12 17.9056 4.36 18.8789C4.42667 19.1722 4.69333 19.3856 5.01333 19.3856H7.30667C7.64 20.2522 8.12 21.0656 8.70667 21.8122L7.54667 23.7989C7.38667 24.0656 7.44 24.3989 7.65333 24.6122C8.37333 25.3056 9.14667 25.8922 9.96 26.3722C10.7733 26.8389 11.6667 27.2256 12.6267 27.5056C12.92 27.5856 13.24 27.4655 13.3867 27.1989L14.5467 25.2122C15.5067 25.3589 16.4933 25.3589 17.4533 25.2122L18.6133 27.1989C18.7333 27.4122 18.96 27.5322 19.1867 27.5322C19.2533 27.5322 19.3067 27.5322 19.3733 27.5056C20.3333 27.2256 21.2267 26.8389 22.04 26.3722C22.8533 25.9056 23.6267 25.3056 24.3467 24.6122C24.5733 24.3989 24.6133 24.0656 24.4533 23.7989L23.2933 21.8122C23.88 21.0789 24.3467 20.2656 24.6933 19.3856H26.9867C27.2933 19.3856 27.56 19.1722 27.64 18.8789C27.88 17.9056 28 16.9456 28 15.9989C28 15.0522 27.88 14.0922 27.64 13.1189C27.5733 12.8256 27.3067 12.6122 26.9867 12.6122ZM26.4533 18.0522H24.2267C23.9333 18.0522 23.68 18.2389 23.6 18.5056C23.2667 19.5322 22.72 20.4656 21.9867 21.2922C21.8 21.5056 21.76 21.8256 21.9067 22.0656L23.0267 23.9989C22.4933 24.4656 21.9333 24.8789 21.36 25.2122C20.7733 25.5456 20.1467 25.8389 19.48 26.0656L18.36 24.1322C18.2133 23.8922 17.92 23.7589 17.64 23.8122C16.5467 24.0389 15.4267 24.0389 14.3333 23.8122C14.0533 23.7589 13.76 23.8789 13.6133 24.1322L12.4933 26.0656C11.8267 25.8389 11.2 25.5456 10.6133 25.2122C10.04 24.8789 9.48 24.4656 8.94667 23.9989L10.0667 22.0656C10.2133 21.8122 10.1733 21.5056 9.98667 21.2922C9.26667 20.4789 8.72 19.5322 8.37333 18.5056C8.28 18.2389 8.02667 18.0522 7.74667 18.0522H5.52C5.38667 17.3589 5.30667 16.6656 5.30667 15.9989C5.30667 15.3322 5.37333 14.6389 5.52 13.9456H7.74667C8.04 13.9456 8.29333 13.7589 8.37333 13.4922C8.70667 12.4656 9.25333 11.5322 9.98667 10.7056C10.1733 10.4922 10.2133 10.1722 10.0667 9.93222L8.94667 7.99888C9.48 7.53222 10.04 7.11889 10.6133 6.78555C11.2 6.45222 11.8267 6.15889 12.4933 5.93222L13.6133 7.85222C13.76 8.10555 14.04 8.22555 14.32 8.17222C15.4133 7.94555 16.5333 7.94555 17.6267 8.17222C17.9067 8.22555 18.2 8.10555 18.3333 7.85222L19.4533 5.93222C20.12 6.15889 20.7467 6.45222 21.3333 6.78555C21.92 7.13222 22.4667 7.51888 23 7.99888L21.88 9.93222C21.7333 10.1856 21.76 10.4922 21.96 10.7056C22.68 11.5322 23.2267 12.4656 23.5733 13.4922C23.6667 13.7589 23.92 13.9456 24.2 13.9456H26.4267C26.56 14.6389 26.64 15.3322 26.64 15.9989C26.64 16.6656 26.5733 17.3589 26.4267 18.0522H26.4533Z" fill="#353535"/>
<path d="M15.9974 12.6655C14.1574 12.6655 12.6641 14.1589 12.6641 15.9989C12.6641 17.8389 14.1574 19.3322 15.9974 19.3322C17.8374 19.3322 19.3307 17.8389 19.3307 15.9989C19.3307 14.1589 17.8374 12.6655 15.9974 12.6655ZM15.9974 17.9989C14.8907 17.9989 13.9974 17.1055 13.9974 15.9989C13.9974 14.8922 14.8907 13.9989 15.9974 13.9989C17.1041 13.9989 17.9974 14.8922 17.9974 15.9989C17.9974 17.1055 17.1041 17.9989 15.9974 17.9989Z" fill="#353535"/>
</svg>
