<svg width="16" height="16" viewBox="0 0 16 16" fill="none" xmlns="http://www.w3.org/2000/svg">
<path d="M13.4933 6.3066H12.3467C12.1733 5.8666 11.94 5.4666 11.6467 5.09326L12.2267 4.09993C12.3067 3.9666 12.28 3.79993 12.1733 3.69326C11.8133 3.3466 11.4267 3.0466 11.02 2.81326C10.6133 2.57993 10.1667 2.3866 9.68667 2.2466C9.54 2.2066 9.38 2.2666 9.30667 2.39993L8.72667 3.39326C8.24 3.31326 7.76 3.31326 7.27333 3.39326L6.69333 2.39993C6.61333 2.2666 6.46 2.2066 6.31333 2.2466C5.83333 2.3866 5.38667 2.57993 4.98 2.81326C4.57333 3.0466 4.18667 3.3466 3.82667 3.69326C3.71333 3.79993 3.69333 3.9666 3.77333 4.09993L4.35333 5.09326C4.06 5.45993 3.82667 5.8666 3.65333 6.3066H2.50667C2.35333 6.3066 2.22 6.41326 2.18 6.55993C2.06 7.0466 2 7.5266 2 7.99993C2 8.47326 2.06 8.95326 2.18 9.43993C2.21333 9.5866 2.34667 9.69326 2.50667 9.69326H3.65333C3.82 10.1266 4.06 10.5333 4.35333 10.9066L3.77333 11.8999C3.69333 12.0333 3.72 12.1999 3.82667 12.3066C4.18667 12.6533 4.57333 12.9466 4.98 13.1866C5.38667 13.4199 5.83333 13.6133 6.31333 13.7533C6.46 13.7933 6.62 13.7333 6.69333 13.5999L7.27333 12.6066C7.75333 12.6799 8.24667 12.6799 8.72667 12.6066L9.30667 13.5999C9.36667 13.7066 9.48 13.7666 9.59333 13.7666C9.62667 13.7666 9.65333 13.7666 9.68667 13.7533C10.1667 13.6133 10.6133 13.4199 11.02 13.1866C11.4267 12.9533 11.8133 12.6533 12.1733 12.3066C12.2867 12.1999 12.3067 12.0333 12.2267 11.8999L11.6467 10.9066C11.94 10.5399 12.1733 10.1333 12.3467 9.69326H13.4933C13.6467 9.69326 13.78 9.5866 13.82 9.43993C13.94 8.95326 14 8.47326 14 7.99993C14 7.5266 13.94 7.0466 13.82 6.55993C13.7867 6.41326 13.6533 6.3066 13.4933 6.3066ZM13.2267 9.0266H12.1133C11.9667 9.0266 11.84 9.11993 11.8 9.25326C11.6333 9.7666 11.36 10.2333 10.9933 10.6466C10.9 10.7533 10.88 10.9133 10.9533 11.0333L11.5133 11.9999C11.2467 12.2333 10.9667 12.4399 10.68 12.6066C10.3867 12.7733 10.0733 12.9199 9.74 13.0333L9.18 12.0666C9.10667 11.9466 8.96 11.8799 8.82 11.9066C8.27333 12.0199 7.71333 12.0199 7.16667 11.9066C7.02667 11.8799 6.88 11.9399 6.80667 12.0666L6.24667 13.0333C5.91333 12.9199 5.6 12.7733 5.30667 12.6066C5.02 12.4399 4.74 12.2333 4.47333 11.9999L5.03333 11.0333C5.10667 10.9066 5.08667 10.7533 4.99333 10.6466C4.63333 10.2399 4.36 9.7666 4.18667 9.25326C4.14 9.11993 4.01333 9.0266 3.87333 9.0266H2.76C2.69333 8.67993 2.65333 8.33326 2.65333 7.99993C2.65333 7.6666 2.68667 7.31993 2.76 6.97326H3.87333C4.02 6.97326 4.14667 6.87993 4.18667 6.7466C4.35333 6.23326 4.62667 5.7666 4.99333 5.35326C5.08667 5.2466 5.10667 5.0866 5.03333 4.9666L4.47333 3.99993C4.74 3.7666 5.02 3.55993 5.30667 3.39326C5.6 3.2266 5.91333 3.07993 6.24667 2.9666L6.80667 3.9266C6.88 4.05326 7.02 4.11326 7.16 4.0866C7.70667 3.97326 8.26667 3.97326 8.81333 4.0866C8.95333 4.11326 9.1 4.05326 9.16667 3.9266L9.72667 2.9666C10.06 3.07993 10.3733 3.2266 10.6667 3.39326C10.96 3.5666 11.2333 3.75993 11.5 3.99993L10.94 4.9666C10.8667 5.09326 10.88 5.2466 10.98 5.35326C11.34 5.7666 11.6133 6.23326 11.7867 6.7466C11.8333 6.87993 11.96 6.97326 12.1 6.97326H13.2133C13.28 7.31993 13.32 7.6666 13.32 7.99993C13.32 8.33326 13.2867 8.67993 13.2133 9.0266H13.2267Z" fill="#353535"/>
<path d="M8.00065 6.33301C7.08065 6.33301 6.33398 7.07967 6.33398 7.99967C6.33398 8.91967 7.08065 9.66634 8.00065 9.66634C8.92065 9.66634 9.66732 8.91967 9.66732 7.99967C9.66732 7.07967 8.92065 6.33301 8.00065 6.33301ZM8.00065 8.99967C7.44732 8.99967 7.00065 8.55301 7.00065 7.99967C7.00065 7.44634 7.44732 6.99967 8.00065 6.99967C8.55398 6.99967 9.00065 7.44634 9.00065 7.99967C9.00065 8.55301 8.55398 8.99967 8.00065 8.99967Z" fill="#353535"/>
</svg>
