<svg width="24" height="24" viewBox="0 0 24 24" fill="none" xmlns="http://www.w3.org/2000/svg">
<path d="M15.4207 14.2065H8.57926C7.25339 14.2065 6.00177 14.7051 5.132 15.5748C3.37124 17.3462 3.01061 19.86 3 19.9555L4.02887 20.0934C4.02887 20.0934 4.35769 17.8129 5.86388 16.2961C6.54272 15.6173 7.52917 15.2354 8.57926 15.2354H15.4207C16.4708 15.2354 17.4573 15.6279 18.1361 16.2961C19.6423 17.8129 19.9711 20.0616 19.9711 20.0934L21 19.9555C20.9894 19.8494 20.6288 17.3356 18.868 15.5748C17.9982 14.7051 16.7466 14.2065 15.4207 14.2065Z" fill="#353535"/>
<path d="M7.49756 8.41518C7.49756 10.8972 9.52349 12.9231 12.0055 12.9231C14.4875 12.9231 16.5135 10.8972 16.5135 8.41518C16.5135 5.93315 14.4875 3.90723 12.0055 3.90723C9.52349 3.90723 7.49756 5.93315 7.49756 8.41518ZM15.4528 8.41518C15.4528 10.3138 13.9042 11.8624 12.0055 11.8624C10.1069 11.8624 8.55825 10.3138 8.55825 8.41518C8.55825 6.51654 10.1069 4.96792 12.0055 4.96792C13.9042 4.96792 15.4528 6.51654 15.4528 8.41518Z" fill="#353535"/>
</svg>
