<svg width="38" height="38" viewBox="0 0 38 38" fill="none" xmlns="http://www.w3.org/2000/svg">
<g filter="url(#filter0_d_7635_199677)">
<path d="M19.4615 7C25.8341 7 31 12.3726 31 19C31 25.6274 25.8341 31 19.4615 31H18.5385C12.1659 31 7 25.6274 7 19C7 12.3726 12.1659 7 18.5385 7H19.4615Z" fill="white"/>
<path d="M31.037 19C31.037 12.3726 25.8634 7 19.4815 7H18.5185C12.1366 7 6.96296 12.3726 6.96296 19C6.96296 25.6274 12.1366 31 18.5185 31H19.4815C25.8634 31 31.037 25.6274 31.037 19ZM32 19C32 26.1797 26.3953 32 19.4815 32H18.5185C11.6047 32 6 26.1797 6 19C6 11.8203 11.6047 6 18.5185 6H19.4815C26.3953 6 32 11.8203 32 19Z" fill="#757575"/>
<path d="M23.7939 11C24.7328 11 25.4941 11.7613 25.4941 12.7002V14.5762H27V16.835H25.4941V24.9297C25.4939 25.0331 25.4101 25.1169 25.3066 25.1172C25.2028 25.1172 25.1182 25.2018 25.1182 25.3057V25.9951C25.1182 26.2376 24.9212 26.4346 24.6787 26.4346H22.7354C22.4592 26.4346 22.2354 26.2107 22.2354 25.9346V25.2168C22.2351 25.1619 22.1907 25.1174 22.1357 25.1172H15.8652C15.8103 25.1174 15.7658 25.1619 15.7656 25.2168V25.9346C15.7656 26.2107 15.5418 26.4346 15.2656 26.4346H13.3223C13.0797 26.4346 12.8828 26.2376 12.8828 25.9951V25.3057C12.8828 25.2146 12.8183 25.1387 12.7324 25.1211L12.6562 25.1133C12.5704 25.0957 12.5059 25.0198 12.5059 24.9287V16.835H11V14.5762H12.5059V12.7002C12.5059 11.7613 13.2672 11 14.2061 11H23.7939ZM14.1396 21.541V22.6709H16.3984V21.541H14.1396ZM21.6104 21.541V22.6709H23.8691V21.541H21.6104ZM13.5059 19.5H24.4941V14.5752H13.5059V19.5Z" fill="#757575"/>
</g>
<defs>
<filter id="filter0_d_7635_199677" x="-6" y="-6" width="50" height="50" filterUnits="userSpaceOnUse" color-interpolation-filters="sRGB">
<feFlood flood-opacity="0" result="BackgroundImageFix"/>
<feColorMatrix in="SourceAlpha" type="matrix" values="0 0 0 0 0 0 0 0 0 0 0 0 0 0 0 0 0 0 127 0" result="hardAlpha"/>
<feOffset/>
<feGaussianBlur stdDeviation="3"/>
<feComposite in2="hardAlpha" operator="out"/>
<feColorMatrix type="matrix" values="0 0 0 0 0 0 0 0 0 0 0 0 0 0 0 0 0 0 0.4 0"/>
<feBlend mode="normal" in2="BackgroundImageFix" result="effect1_dropShadow_7635_199677"/>
<feBlend mode="normal" in="SourceGraphic" in2="effect1_dropShadow_7635_199677" result="shape"/>
</filter>
</defs>
</svg>
