<svg width="46" height="54" viewBox="0 0 46 54" fill="none" xmlns="http://www.w3.org/2000/svg">
<g filter="url(#filter0_d_7635_199669)">
<path d="M38 23.8506C38 32.0288 28.2867 41.8708 24.4928 45.4031C23.6379 46.199 22.3621 46.199 21.5072 45.4031C17.7133 41.8708 8 32.0288 8 23.8506C8 15.0965 14.7157 8 23 8C31.2843 8 38 15.0965 38 23.8506Z" fill="#757575"/>
<path d="M38 23.8506C38 15.0965 31.2843 8 23 8C14.7157 8 8 15.0965 8 23.8506L8.00684 24.2354C8.30204 32.335 17.7722 41.9263 21.5068 45.4033C22.3084 46.1496 23.4804 46.196 24.3281 45.543L24.4932 45.4033C28.2278 41.9263 37.698 32.335 37.9932 24.2354L38 23.8506ZM40 23.8506C40 28.6232 37.2223 33.577 34.2773 37.5586C31.2708 41.6235 27.7941 45.0622 25.8555 46.8672C24.2328 48.3777 21.7672 48.3777 20.1445 46.8672C18.2059 45.0622 14.7292 41.6235 11.7227 37.5586C8.7777 33.577 6 28.6232 6 23.8506C6 14.0974 13.5087 6 23 6C32.4913 6 40 14.0974 40 23.8506Z" fill="white"/>
<path d="M27.7939 16C28.7328 16 29.4941 16.7613 29.4941 17.7002V19.5762H31V21.835H29.4941V29.9297C29.4939 30.0331 29.4101 30.1169 29.3066 30.1172C29.2028 30.1172 29.1182 30.2018 29.1182 30.3057V30.9951C29.1182 31.2376 28.9212 31.4346 28.6787 31.4346H26.7354C26.4592 31.4346 26.2354 31.2107 26.2354 30.9346V30.2168C26.2351 30.1619 26.1907 30.1174 26.1357 30.1172H19.8652C19.8103 30.1174 19.7658 30.1619 19.7656 30.2168V30.9346C19.7656 31.2107 19.5418 31.4346 19.2656 31.4346H17.3223C17.0797 31.4346 16.8828 31.2376 16.8828 30.9951V30.3057C16.8828 30.2146 16.8183 30.1387 16.7324 30.1211L16.6562 30.1133C16.5704 30.0957 16.5059 30.0198 16.5059 29.9287V21.835H15V19.5762H16.5059V17.7002C16.5059 16.7613 17.2672 16 18.2061 16H27.7939ZM18.1396 26.541V27.6709H20.3984V26.541H18.1396ZM25.6104 26.541V27.6709H27.8691V26.541H25.6104ZM17.5059 24.5H28.4941V19.5752H17.5059V24.5Z" fill="white"/>
</g>
<defs>
<filter id="filter0_d_7635_199669" x="-6" y="-6" width="58" height="66" filterUnits="userSpaceOnUse" color-interpolation-filters="sRGB">
<feFlood flood-opacity="0" result="BackgroundImageFix"/>
<feColorMatrix in="SourceAlpha" type="matrix" values="0 0 0 0 0 0 0 0 0 0 0 0 0 0 0 0 0 0 127 0" result="hardAlpha"/>
<feOffset/>
<feGaussianBlur stdDeviation="3"/>
<feComposite in2="hardAlpha" operator="out"/>
<feColorMatrix type="matrix" values="0 0 0 0 0 0 0 0 0 0 0 0 0 0 0 0 0 0 0.4 0"/>
<feBlend mode="normal" in2="BackgroundImageFix" result="effect1_dropShadow_7635_199669"/>
<feBlend mode="normal" in="SourceGraphic" in2="effect1_dropShadow_7635_199669" result="shape"/>
</filter>
</defs>
</svg>
