<svg width="46" height="54" viewBox="0 0 46 54" fill="none" xmlns="http://www.w3.org/2000/svg">
<g filter="url(#filter0_d_2671_147800)">
<path d="M38 23.8506C38 32.0288 28.2867 41.8708 24.4928 45.4031C23.6379 46.199 22.3621 46.199 21.5072 45.4031C17.7133 41.8708 8 32.0288 8 23.8506C8 15.0965 14.7157 8 23 8C31.2843 8 38 15.0965 38 23.8506Z" fill="#1D6CEB"/>
<path d="M38 23.8506C38 15.0965 31.2843 8 23 8C14.7157 8 8 15.0965 8 23.8506L8.00684 24.2354C8.30204 32.335 17.7722 41.9263 21.5068 45.4033C22.3084 46.1496 23.4804 46.196 24.3281 45.543L24.4932 45.4033C28.2278 41.9263 37.698 32.335 37.9932 24.2354L38 23.8506ZM40 23.8506C40 28.6232 37.2223 33.577 34.2773 37.5586C31.2708 41.6235 27.7941 45.0622 25.8555 46.8672C24.2328 48.3777 21.7672 48.3777 20.1445 46.8672C18.2059 45.0622 14.7292 41.6235 11.7227 37.5586C8.7777 33.577 6 28.6232 6 23.8506C6 14.0974 13.5087 6 23 6C32.4913 6 40 14.0974 40 23.8506Z" fill="white"/>
<path d="M15 28.3307C15 29.1824 15.39 29.9378 16 30.4671V32.1802C16 32.7095 16.45 33.1425 16.9999 33.1425H17.9999C18.5549 33.1425 18.9999 32.7095 18.9999 32.1802V31.2178H26.9996V32.1802C26.9996 32.7095 27.4446 33.1425 27.9996 33.1425H28.9995C29.5495 33.1425 29.9995 32.7095 29.9995 32.1802V30.4671C30.6095 29.9378 30.9995 29.1824 30.9995 28.3307V18.7069C30.9995 15.3386 27.4196 14.8574 22.9997 14.8574C18.5799 14.8574 15 15.3386 15 18.7069V28.3307ZM18.4999 29.293C17.6699 29.293 16.9999 28.6483 16.9999 27.8495C16.9999 27.0507 17.6699 26.4059 18.4999 26.4059C19.3299 26.4059 19.9998 27.0507 19.9998 27.8495C19.9998 28.6483 19.3299 29.293 18.4999 29.293ZM27.4996 29.293C26.6696 29.293 25.9996 28.6483 25.9996 27.8495C25.9996 27.0507 26.6696 26.4059 27.4996 26.4059C28.3296 26.4059 28.9995 27.0507 28.9995 27.8495C28.9995 28.6483 28.3296 29.293 27.4996 29.293ZM28.9995 23.5188H16.9999V18.7069H28.9995V23.5188Z" fill="white"/>
</g>
<defs>
<filter id="filter0_d_2671_147800" x="-6" y="-6" width="58" height="66" filterUnits="userSpaceOnUse" color-interpolation-filters="sRGB">
<feFlood flood-opacity="0" result="BackgroundImageFix"/>
<feColorMatrix in="SourceAlpha" type="matrix" values="0 0 0 0 0 0 0 0 0 0 0 0 0 0 0 0 0 0 127 0" result="hardAlpha"/>
<feOffset/>
<feGaussianBlur stdDeviation="3"/>
<feComposite in2="hardAlpha" operator="out"/>
<feColorMatrix type="matrix" values="0 0 0 0 0 0 0 0 0 0 0 0 0 0 0 0 0 0 0.4 0"/>
<feBlend mode="normal" in2="BackgroundImageFix" result="effect1_dropShadow_2671_147800"/>
<feBlend mode="normal" in="SourceGraphic" in2="effect1_dropShadow_2671_147800" result="shape"/>
</filter>
</defs>
</svg>
