<svg width="75" height="75" viewBox="0 0 75 75" fill="none" xmlns="http://www.w3.org/2000/svg">
<path d="M62.1861 31.7277L59.6947 29.2363L53.203 35.728H47.2376C46.992 34.2893 46.4305 32.9559 45.6234 31.7979L49.8343 27.587H58.9929V24.078H53.3433L58.5367 18.8846L56.0453 16.3932L50.8519 21.5865V15.9019H47.3429V25.0956L43.1671 29.3064C42.0091 28.4994 40.6406 27.9379 39.2019 27.6572V21.6918L45.6936 15.2001L43.2022 12.7087L39.2019 16.709V9.41016H35.6928V16.7441L31.6925 12.7437L29.2011 15.2352L35.6928 21.7269V27.6923C34.2541 27.9379 32.8856 28.4994 31.7276 29.3415L27.5168 25.1307V15.9019H24.0077V21.5515L18.8143 16.3581L16.3229 18.8495L21.5163 24.0429H15.8316V27.5519H25.0253L29.2362 31.7628C28.4291 32.9208 27.8677 34.2893 27.5869 35.728H21.6216L15.1298 29.2363L12.6384 31.7277L16.6387 35.728H9.375V39.237H16.7089L12.7086 43.2374L15.2 45.7288L21.6917 39.237H27.6571C27.9028 40.7108 28.4993 42.0443 29.3064 43.2023L25.0955 47.4131H15.8667V50.9222H21.5514L16.358 56.1156L18.8494 58.607L24.0428 53.4136V59.0631H27.5519V49.9045L31.7627 45.6937C32.9207 46.5008 34.2541 47.0622 35.7279 47.3078V53.2732L29.2362 59.765L31.7276 62.2564L35.7279 58.2561V65.59H39.237V58.2561L43.2373 62.2564L45.7287 59.765L39.237 53.2732V47.3078C40.6757 47.0622 42.0442 46.5008 43.2022 45.6586L47.4131 49.8694V59.0631H50.9221V53.3785L56.1155 58.5719L58.6069 56.0805L53.4135 50.8871H59.0631V47.378H49.9045L45.6936 43.1672C46.5007 42.0092 47.0621 40.6757 47.3429 39.202H53.3083L59.8 45.6937L62.2914 43.2023L58.2911 39.202H65.625V35.6929H58.2911L62.2914 31.6926L62.1861 31.7277ZM37.4474 43.9743C33.8681 43.9743 30.9556 41.0617 30.9556 37.4825C30.9556 33.9033 33.8681 30.9908 37.4474 30.9908C41.0266 30.9908 43.9391 33.9033 43.9391 37.4825C43.9391 41.0617 41.0266 43.9743 37.4474 43.9743Z" fill="#8BC6FF"/>
<path d="M37.4488 30.9922C33.8695 30.9922 30.957 33.9047 30.957 37.4839C30.957 41.0631 33.8695 43.9757 37.4488 43.9757C41.028 43.9757 43.9405 41.0631 43.9405 37.4839C43.9405 33.9047 41.028 30.9922 37.4488 30.9922Z" fill="#C8E4FF"/>
</svg>
