<svg width="75" height="75" viewBox="0 0 75 75" fill="none" xmlns="http://www.w3.org/2000/svg">
<path d="M47.2307 57.1314C46.2182 57.1314 45.4026 57.9471 45.4026 58.9596C45.4026 60.6471 44.0245 61.9971 42.3651 61.9971C40.7057 61.9971 39.412 60.7314 39.3276 59.0721V52.2939H35.6995V59.3252C35.8963 62.8689 38.8495 65.6252 42.3932 65.6252C45.937 65.6252 49.087 62.6158 49.087 58.9314C49.087 57.9189 48.2713 57.1033 47.2588 57.1033L47.2307 57.1314Z" fill="#1D6CEB"/>
<path d="M38.9075 27.7697C38.4293 27.7416 37.9793 27.6572 37.5012 27.6572C37.9793 27.6572 38.4575 27.7697 38.9075 27.9385C42.5356 29.401 45.4325 36.376 46.0231 45.2354C48.7793 43.6885 51.9012 42.8166 55.22 42.8166C55.6418 42.8166 56.0637 42.8447 56.4856 42.8729C54.2356 34.5479 47.2887 28.4166 38.9075 27.7697Z" fill="#1D6CEB"/>
<path d="M38.9096 27.9385C38.4596 27.7416 37.9814 27.6572 37.5033 27.6572C37.0252 27.6572 36.5471 27.7697 36.0971 27.9385C32.4408 29.401 29.5721 36.376 28.9814 45.2354C31.1752 44.1104 33.5658 43.4354 36.0971 43.2385C36.5752 43.2104 37.0252 43.1541 37.5033 43.1541C37.9814 43.1541 38.4314 43.2104 38.9096 43.2385C41.4408 43.4354 43.8314 44.1104 46.0252 45.2354C45.4346 36.376 42.5658 29.401 38.9096 27.9385Z" fill="#8BC6FF"/>
<path d="M50.9191 9.37598L48.2191 13.201C46.7285 15.3385 47.9378 18.4322 50.4972 18.7135C50.6379 18.7135 50.7504 18.7135 50.891 18.7135C51.0316 18.7135 51.1722 18.7135 51.2847 18.7135C53.8441 18.4322 55.0535 15.3385 53.5628 13.201L50.8629 9.37598H50.9191Z" fill="#8BC6FF"/>
<path d="M24.0851 9.37598L21.3851 13.201C19.8945 15.3385 21.1039 18.4322 23.6632 18.7135C23.8039 18.7135 23.9164 18.7135 24.057 18.7135C24.1976 18.7135 24.3382 18.7135 24.4507 18.7135C27.0101 18.4322 28.2195 15.3385 26.7289 13.201L24.0289 9.37598H24.0851Z" fill="#8BC6FF"/>
<path d="M18.5168 42.8729C18.9387 42.8447 19.3606 42.8166 19.7825 42.8166C23.1012 42.8166 26.2231 43.6885 28.9793 45.2354C29.57 36.376 32.4387 29.401 36.095 27.9385C36.545 27.7697 37.0231 27.6572 37.5012 27.6572C37.0231 27.6572 36.5731 27.7416 36.095 27.7697C27.7137 28.4166 20.7668 34.5479 18.5168 42.8729Z" fill="#C8E4FF"/>
<path d="M37.4994 9.37598L34.7994 13.201C33.3088 15.3385 34.5182 18.4322 37.0775 18.7135C37.2182 18.7135 37.3307 18.7135 37.4713 18.7135C37.6119 18.7135 37.7525 18.7135 37.865 18.7135C40.4244 18.4322 41.6338 15.3385 40.1432 13.201L37.4432 9.37598H37.4994Z" fill="#C8E4FF"/>
<path d="M36.095 43.2377V52.2939H38.9075V43.2377C38.4293 43.2096 37.9793 43.1533 37.5012 43.1533C37.0231 43.1533 36.5731 43.2096 36.095 43.2377Z" fill="#CDD2DE"/>
<path d="M36.095 27.7702C36.5731 27.7421 37.0231 27.6577 37.5012 27.6577C37.9793 27.6577 38.4293 27.7421 38.9075 27.7702V22.5952H36.095V27.7702Z" fill="#CDD2DE"/>
</svg>
