<svg width="75" height="75" viewBox="0 0 75 75" fill="none" xmlns="http://www.w3.org/2000/svg">
<path d="M53.0312 19.0138C50.1817 13.315 44.307 9.375 37.4824 9.375C28.3712 9.375 20.9486 16.3403 20.1395 25.2052C20.1395 25.2052 20.1043 25.2052 20.0692 25.2052C14.8276 25.2052 10.571 29.4618 10.571 34.7033C10.571 39.9449 14.8276 44.2015 20.0692 44.2015H51.7648C58.7652 44.2015 64.4289 38.5378 64.4289 31.5373C64.4289 24.9941 59.4336 19.647 53.0312 19.0138Z" fill="#8BC6FF"/>
<path d="M54.26 53.9453L50.8828 58.7296C49.0184 61.4031 50.5311 65.2727 53.7323 65.6245C53.9082 65.6245 54.0489 65.6245 54.2248 65.6245C54.4007 65.6245 54.5766 65.6245 54.7173 65.6245C57.9185 65.2727 59.4312 61.4031 57.5667 58.7296L54.1896 53.9453H54.26Z" fill="#8BC6FF"/>
<path d="M20.7375 53.9453L17.3604 58.7296C15.4959 61.4031 17.0086 65.2727 20.2098 65.6245C20.3857 65.6245 20.5264 65.6245 20.7023 65.6245C20.8782 65.6245 21.0541 65.6245 21.1948 65.6245C24.396 65.2727 25.9087 61.4031 24.0442 58.7296L20.6671 53.9453H20.7375Z" fill="#8BC6FF"/>
<path d="M37.4816 53.9453L34.1045 58.7296C32.2401 61.4031 33.7527 65.2727 36.954 65.6245C37.1299 65.6245 37.2706 65.6245 37.4465 65.6245C37.6223 65.6245 37.7982 65.6245 37.939 65.6245C41.1402 65.2727 42.6528 61.4031 40.7884 58.7296L37.4113 53.9453H37.4816Z" fill="#C8E4FF"/>
</svg>
