<svg width="75" height="75" viewBox="0 0 75 75" fill="none" xmlns="http://www.w3.org/2000/svg">
<path d="M45.6723 34.5067C43.3562 29.8745 38.724 26.6651 33.2647 26.3342C32.9669 26.3342 32.6691 26.2681 32.3713 26.2681C24.5959 26.2681 18.2433 32.2237 17.5484 39.8006C17.5484 39.8006 17.5153 39.8006 17.4823 39.8006C12.9824 39.8006 9.37598 43.4401 9.37598 47.9069C9.37598 52.3736 13.0155 56.0132 17.4823 56.0132H44.5804C50.4699 56.0132 55.2675 51.2817 55.3998 45.4254C55.3998 45.3592 55.3998 45.2599 55.3998 45.1938C55.3998 39.569 51.1316 35.0361 45.6723 34.4736V34.5067Z" fill="#8BC6FF"/>
<path d="M56.9242 26.3005C54.7405 21.9661 50.2737 18.9883 45.1122 18.9883C39.9506 18.9883 35.4508 21.9661 33.2671 26.3336C38.6933 26.6644 43.3586 29.8739 45.6747 34.506C51.134 35.0685 55.4022 39.6014 55.4022 45.2262C55.4022 45.3254 55.4022 45.3916 55.4022 45.4578H55.9978C61.3248 45.4578 65.626 41.1565 65.626 35.8295C65.626 30.8334 61.8211 26.7968 56.9573 26.3005H56.9242Z" fill="#C8E4FF"/>
</svg>
