<svg width="75" height="75" viewBox="0 0 75 75" fill="none" xmlns="http://www.w3.org/2000/svg">
<path d="M54.1721 41.6627C51.4667 36.2521 45.8804 32.5278 39.4157 32.5278C39.3454 32.5278 39.24 32.5278 39.1697 32.5278C34.1455 32.5981 29.6835 34.9521 26.697 38.5709C24.6241 41.0655 23.2539 44.1573 22.9377 47.5653C22.9377 47.5653 22.9025 47.5653 22.8674 47.5653C17.8783 47.5653 13.8379 51.6057 13.8379 56.5948C13.8379 61.5839 17.8783 65.6243 22.8674 65.6243H52.9775C59.6179 65.6243 64.9934 60.2488 64.9934 53.6084C64.9934 47.3896 60.2503 42.3303 54.1721 41.6979V41.6627Z" fill="#8BC6FF"/>
<path d="M29.86 19.2812C24.3791 19.2812 19.9521 23.7081 19.9521 29.1891C19.9521 33.5458 22.798 37.2349 26.6979 38.5348C29.6843 34.916 34.1464 32.5971 39.1706 32.4917C39.5571 31.4377 39.7679 30.3485 39.7679 29.154C39.7679 23.673 35.341 19.2461 29.86 19.2461V19.2812Z" fill="#FFC200"/>
<path d="M14.9627 27.4707H10.0088V30.9841H14.9627V27.4707Z" fill="#FFC200"/>
<path d="M49.6785 27.4707H44.7246V30.9841H49.6785V27.4707Z" fill="#FFC200"/>
<path d="M31.6177 9.375H28.1042V14.3289H31.6177V9.375Z" fill="#FFC200"/>
<path d="M17.0699 13.9444L14.5859 16.4292L18.0895 19.9315L20.5734 17.4467L17.0699 13.9444Z" fill="#FFC200"/>
<path d="M42.6211 13.9145L39.1182 17.4175L41.6025 19.9019L45.1055 16.3989L42.6211 13.9145Z" fill="#FFC200"/>
<path d="M18.0957 38.4912L14.5928 41.9941L17.0771 44.4785L20.5801 40.9755L18.0957 38.4912Z" fill="#FFC200"/>
</svg>
