<svg width="75" height="75" viewBox="0 0 75 75" fill="none" xmlns="http://www.w3.org/2000/svg">
<path d="M52.9512 18.9375C50.1035 13.2773 44.2324 9.375 37.4824 9.375C28.4473 9.375 21.0293 16.3008 20.2207 25.125C20.2207 25.125 20.1855 25.125 20.1504 25.125C14.9121 25.125 10.6934 29.3438 10.6934 34.582C10.6934 39.8203 14.9121 44.0391 20.1504 44.0391H51.6855C58.6465 44.0391 64.3066 38.4141 64.3066 31.4531C64.3066 24.9141 59.3145 19.6055 52.9512 18.9727V18.9375Z" fill="#8BC6FF"/>
<path d="M19.2721 53.145L15.9674 57.856C14.1393 60.4575 15.651 64.2896 18.7799 64.606C18.9557 64.606 19.0963 64.606 19.2721 64.606C19.4479 64.606 19.5885 64.606 19.7643 64.606C22.8932 64.2896 24.4049 60.4575 22.5768 57.856L19.2721 53.145Z" fill="#8BC6FF"/>
<path d="M58.7842 52.019L55.3037 54.5151V50.2612H51.7881V54.5151L48.3076 52.019L46.2686 54.9019L50.5225 57.9253L46.2686 60.9839L48.3076 63.8315L51.7881 61.3706V65.6245H55.3037V61.3706L58.7842 63.8315L60.8232 60.9839L56.5693 57.9253L60.8232 54.9019L58.7842 52.019Z" fill="#8BC6FF"/>
<path d="M40.2927 52.019L36.8123 54.5151V50.2612H33.2966V54.5151L29.8162 52.019L27.7771 54.9019L32.031 57.9253L27.7771 60.9839L29.8162 63.8315L33.2966 61.3354V65.6245H36.8123V61.3706L40.2927 63.8315L42.3318 60.9839L38.0779 57.9253L42.3318 54.9019L40.2927 52.019Z" fill="#C8E4FF"/>
</svg>
