<svg width="75" height="75" viewBox="0 0 75 75" fill="none" xmlns="http://www.w3.org/2000/svg">
<path d="M20.1416 44.025H51.6962C58.6615 44.025 64.3251 38.3965 64.3251 31.4312C64.3251 24.8881 59.3299 19.5763 52.9626 18.9431C50.1132 13.2794 44.2385 9.37465 37.4843 9.37465C28.4436 9.33947 21.021 16.2695 20.2119 25.0992C20.2119 25.0992 20.1768 25.0992 20.1416 25.0992C14.9001 25.0992 10.6787 29.3557 10.6787 34.5621C10.6787 39.7684 14.9001 44.025 20.1416 44.025Z" fill="#8BC6FF"/>
<path d="M62.5644 52.0109L59.0818 54.5085V50.252H55.564V54.5085L52.0813 52.0109L50.041 54.8954L54.2975 57.9208L50.041 60.9812L52.0813 63.8307L55.564 61.333V65.6247H59.0818V61.3682L62.5644 63.8307L64.6047 60.9812L60.3482 57.9208L64.6047 54.8954L62.5644 52.0109Z" fill="#8BC6FF"/>
<path d="M22.9203 52.0109L19.4377 54.5085V50.252H15.9199V54.5085L12.4373 52.0109L10.397 54.8954L14.6535 57.9208L10.397 60.9812L12.4373 63.8307L15.9199 61.333V65.6247H19.4377V61.3682L22.9203 63.8307L24.9607 60.9812L20.7041 57.9208L24.9607 54.8954L22.9203 52.0109Z" fill="#8BC6FF"/>
<path d="M42.7277 52.0109L39.2802 54.5085V50.252H35.7624V54.5085L32.2798 52.0109L30.2395 54.8954L34.496 57.9208L30.2395 60.9812L32.2798 63.8307L35.7624 61.3682V65.6247H39.2802V61.333L42.7277 63.8307L44.768 60.9812L40.5115 57.9208L44.768 54.8954L42.7277 52.0109Z" fill="#C8E4FF"/>
</svg>
