<svg width="75" height="75" viewBox="0 0 75 75" fill="none" xmlns="http://www.w3.org/2000/svg">
<path d="M52.6875 18.9375C49.875 13.2773 44.1445 9.375 37.4648 9.375C28.5703 9.375 21.293 16.3008 20.5195 25.125C20.5195 25.125 20.4844 25.125 20.4492 25.125C15.3164 25.125 11.168 29.3438 11.168 34.582C11.168 39.8203 15.3164 44.0391 20.4492 44.0391H51.457C58.3125 44.0391 63.832 38.4141 63.832 31.4531C63.832 24.9141 58.9453 19.6055 52.6875 18.9727V18.9375Z" fill="#8BC6FF"/>
<path d="M19.5734 53.145L16.339 57.856C14.5461 60.4575 16.0226 64.2896 19.0812 64.606C19.257 64.606 19.3976 64.606 19.5734 64.606C19.7492 64.606 19.8898 64.606 20.0656 64.606C23.1594 64.2896 24.6359 60.4575 22.8078 57.856L19.5734 53.145Z" fill="#8BC6FF"/>
<path d="M58.3818 52.0542L55.0068 54.48V50.2612H51.4912V54.48L48.1514 52.0542L46.0771 54.8667L50.2607 57.9253L46.0771 60.9839L48.1514 63.8315L51.4912 61.4058V65.6245H55.0068V61.4058L58.3818 63.8315L60.4561 60.9839L56.2373 57.9253L60.4561 54.8667L58.3818 52.0542Z" fill="#8BC6FF"/>
<path d="M35.7438 53.145L32.5094 57.856C30.7165 60.4575 32.193 64.2896 35.2516 64.606C35.4274 64.606 35.568 64.606 35.7438 64.606C35.9196 64.606 36.0602 64.606 36.236 64.606C39.3298 64.2896 40.8063 60.4575 38.9782 57.856L35.7438 53.145Z" fill="#C8E4FF"/>
</svg>
