<svg width="75" height="75" viewBox="0 0 75 75" fill="none" xmlns="http://www.w3.org/2000/svg">
<path d="M37.4978 23.4395C29.7225 23.4395 23.436 29.7259 23.436 37.5012C23.436 45.2766 29.7225 51.563 37.4978 51.563C45.2732 51.563 51.5596 45.2766 51.5596 37.5012C51.5596 29.7259 45.2732 23.4395 37.4978 23.4395Z" fill="#FFC200"/>
<path d="M16.3886 35.8467H9.37427V39.1553H16.3886V35.8467Z" fill="#FFC200"/>
<path d="M65.6242 35.8467H58.6099V39.1553H65.6242V35.8467Z" fill="#FFC200"/>
<path d="M39.1522 9.37744H35.8435V16.3918H39.1522V9.37744Z" fill="#FFC200"/>
<path d="M39.1522 58.6099H35.8435V65.6242H39.1522V58.6099Z" fill="#FFC200"/>
<path d="M18.7896 16.4466L16.4504 18.7866L21.4112 23.7457L23.7504 21.4057L18.7896 16.4466Z" fill="#FFC200"/>
<path d="M53.5891 51.2556L51.2495 53.5952L56.2328 58.5785L58.5724 56.2389L53.5891 51.2556Z" fill="#FFC200"/>
<path d="M56.2158 16.4532L51.2559 21.4131L53.5954 23.7527L58.5553 18.7928L56.2158 16.4532Z" fill="#FFC200"/>
<path d="M21.4337 51.2257L16.4504 56.209L18.79 58.5486L23.7733 53.5653L21.4337 51.2257Z" fill="#FFC200"/>
</svg>
