<svg width="64" height="64" viewBox="0 0 64 64" fill="none" xmlns="http://www.w3.org/2000/svg">
<path d="M32 8C18.74 8 8 18.74 8 32C8 45.26 18.74 56 32 56C45.26 56 56 45.26 56 32C56 18.74 45.26 8 32 8ZM18.41 28.1C17.78 28.04 17.36 27.47 17.42 26.84C17.48 26.21 18.08 25.82 18.65 25.85C19.1 25.88 23.09 26.24 24.56 23.03C24.8 22.46 25.49 22.22 26.06 22.46C26.63 22.7 26.87 23.39 26.63 23.96C24.95 27.68 21.17 28.13 19.37 28.13C18.89 28.13 18.56 28.1 18.44 28.07L18.41 28.1ZM19.85 33.41C19.49 32.9 19.58 32.21 20.09 31.85C20.6 31.49 21.29 31.58 21.65 32.06C21.68 32.12 22.46 33.02 24.14 33.02C25.7 33.02 26.3 32.15 26.3 32.12C26.57 31.58 27.23 31.37 27.8 31.67C28.37 31.94 28.55 32.66 28.28 33.23C28.01 33.8 26.69 35.3 24.14 35.3C21.35 35.3 20 33.62 19.85 33.44V33.41ZM40.4 44C40.04 44.51 39.32 44.6 38.84 44.24C31.7 38.99 25.46 44.03 25.19 44.24C24.98 44.42 24.71 44.51 24.47 44.51C24.14 44.51 23.84 44.39 23.6 44.12C23.21 43.64 23.24 42.95 23.72 42.56C23.78 42.5 31.52 36.11 40.16 42.44C40.67 42.8 40.76 43.52 40.4 44ZM44.21 33.26C44.06 33.47 42.65 35.27 40.1 35.27C37.85 35.27 36.35 34.1 35.81 33.41C35.42 32.93 35.51 32.21 36.02 31.82C36.53 31.43 37.22 31.52 37.58 32.03C37.61 32.09 38.42 33.02 40.04 33.02C41.57 33.02 42.38 31.97 42.41 31.91C42.77 31.4 43.49 31.31 43.97 31.67C44.48 32.03 44.57 32.75 44.21 33.23V33.26ZM45.62 28.01C45.62 28.01 45.17 28.07 44.6 28.07C42.8 28.07 39.08 27.59 37.4 23.9C37.16 23.33 37.4 22.67 37.97 22.4C38.54 22.16 39.2 22.4 39.47 22.97C41 26.33 45.17 25.82 45.35 25.79C45.95 25.7 46.52 26.15 46.61 26.75C46.7 27.35 46.25 27.92 45.65 28.01H45.62Z" fill="#FFD53D"/>
<path d="M26.0282 22.489C25.4582 22.249 24.7982 22.489 24.5282 23.059C23.0582 26.269 19.0682 25.909 18.6182 25.879C18.0482 25.849 17.4482 26.269 17.3882 26.869C17.3282 27.499 17.7782 28.039 18.3782 28.129C18.4982 28.129 18.8282 28.189 19.3082 28.189C21.1082 28.189 24.8882 27.709 26.5682 24.019C26.8082 23.449 26.5682 22.789 25.9982 22.519L26.0282 22.489Z" fill="#FFC200"/>
<path d="M45.3198 25.7911C45.1398 25.7911 40.9698 26.3311 39.4398 22.9711C39.1998 22.4011 38.5098 22.1611 37.9398 22.4011C37.3698 22.6711 37.1298 23.3311 37.3698 23.9011C39.0498 27.5911 42.7698 28.0711 44.5698 28.0711C45.1398 28.0711 45.5298 28.0111 45.5898 28.0111C46.2198 27.9211 46.6398 27.3511 46.5498 26.7511C46.4598 26.1511 45.8898 25.6711 45.2898 25.7911H45.3198Z" fill="#FFC200"/>
<path d="M23.7224 42.5299C23.2724 42.9199 23.2124 43.6399 23.6024 44.0899C23.8124 44.3599 24.1424 44.4799 24.4724 44.4799C24.7124 44.4799 24.9824 44.3899 25.1924 44.2099C25.4624 43.9999 31.6724 38.9599 38.8424 44.2099C39.3524 44.5699 40.0424 44.4799 40.4024 43.9699C40.7624 43.4599 40.6724 42.7699 40.1624 42.4099C31.5224 36.0799 23.7824 42.4699 23.7224 42.5299Z" fill="#3E4347"/>
<path d="M28.2495 33.2299C28.5195 32.6599 28.3395 31.9699 27.7695 31.6699C27.2295 31.3999 26.5695 31.5799 26.2695 32.1199C26.2695 32.1499 25.6695 33.0199 24.1095 33.0199C22.4295 33.0199 21.6795 32.0899 21.6195 32.0599C21.2595 31.5499 20.5395 31.4599 20.0595 31.8499C19.5495 32.2099 19.4595 32.9299 19.8195 33.4099C19.9695 33.5899 21.2895 35.2699 24.1095 35.2699C26.6595 35.2699 27.9495 33.7699 28.2495 33.1999V33.2299Z" fill="#3E4347"/>
<path d="M42.3797 31.9387C42.3797 31.9387 41.5697 33.0187 40.0097 33.0487C38.3897 33.0487 37.6097 32.0887 37.5497 32.0587C37.1597 31.5787 36.4697 31.4887 35.9897 31.8487C35.5097 32.2087 35.3897 32.9287 35.7797 33.4387C36.3197 34.1287 37.7897 35.2987 40.0697 35.2987C42.6497 35.2987 44.0297 33.4987 44.1797 33.2887C44.5397 32.7787 44.4497 32.0887 43.9397 31.7287C43.4597 31.3687 42.7397 31.4587 42.3797 31.9687V31.9387Z" fill="#3E4347"/>
</svg>
