<svg width="64" height="64" viewBox="0 0 64 64" fill="none" xmlns="http://www.w3.org/2000/svg">
<path d="M25.25 43.7887C27.05 45.1987 29.36 46.0387 32 46.0387C34.64 46.0387 37.1 45.1387 38.93 43.6687C37.49 42.1687 35 41.1787 32.15 41.1787C29.3 41.1787 26.69 42.2287 25.25 43.7887Z" fill="#FF4554"/>
<path d="M32 8C18.74 8 8 18.74 8 32C8 45.26 18.74 56 32 56C45.26 56 56 45.26 56 32C56 18.74 45.26 8 32 8ZM24.65 24.62C26.33 24.62 27.68 26.21 27.68 28.16C27.68 30.11 26.33 31.7 24.65 31.7C22.97 31.7 21.62 30.11 21.62 28.16C21.62 26.21 22.97 24.62 24.65 24.62ZM38.93 43.64C37.13 45.11 34.73 46.01 32 46.01C29.27 46.01 27.05 45.17 25.25 43.76C23.03 42.02 21.65 39.47 21.65 36.44C21.65 36.23 21.77 36.02 21.95 35.93C22.16 35.84 22.37 35.84 22.55 35.96C22.58 35.96 26.54 38.66 32.06 38.66C37.58 38.66 41.36 36.02 41.39 35.99C41.57 35.87 41.81 35.84 41.99 35.93C42.17 36.02 42.32 36.23 42.32 36.44C42.32 39.38 41 41.9 38.9 43.61L38.93 43.64ZM43.97 30.68C43.76 31.01 43.4 31.19 43.04 31.19C42.83 31.19 42.62 31.13 42.44 31.01C40.76 29.9 38.36 29.3 36.95 28.97C36.53 28.85 36.17 28.49 36.08 28.04C36.02 27.59 36.17 27.14 36.56 26.9C37.94 26.03 40.85 24.71 42.02 24.17C42.59 23.93 43.25 24.17 43.52 24.71C43.79 25.25 43.58 25.91 43.04 26.18L42.95 26.21C42.08 26.6 41.09 27.05 40.16 27.5C41.33 27.89 42.59 28.4 43.67 29.09C44.18 29.42 44.33 30.11 44 30.65L43.97 30.68Z" fill="#FFD53D"/>
<path d="M24.6511 31.7001C26.3245 31.7001 27.6811 30.1152 27.6811 28.1601C27.6811 26.205 26.3245 24.6201 24.6511 24.6201C22.9777 24.6201 21.6211 26.205 21.6211 28.1601C21.6211 30.1152 22.9777 31.7001 24.6511 31.7001Z" fill="#3E4347"/>
<path d="M43.6404 29.1205C42.5604 28.4305 41.3004 27.9205 40.1304 27.5305C41.0304 27.0805 42.0204 26.6305 42.9204 26.2405L43.0104 26.2105C43.5504 25.9405 43.7604 25.2805 43.4904 24.7405C43.2204 24.2005 42.5604 23.9605 41.9904 24.2005C40.7904 24.7105 37.9104 26.0305 36.5304 26.9305C36.1704 27.1705 35.9904 27.6205 36.0504 28.0705C36.1104 28.5205 36.4704 28.8805 36.9204 29.0005C38.3304 29.3605 40.7304 29.9605 42.4104 31.0405C42.5904 31.1605 42.8004 31.2205 43.0104 31.2205C43.3704 31.2205 43.7304 31.0405 43.9404 30.7105C44.2704 30.2005 44.1204 29.4805 43.6104 29.1505L43.6404 29.1205Z" fill="#3E4347"/>
<path d="M42.0197 35.9612C41.8397 35.8712 41.5697 35.8712 41.4197 36.0212C41.3897 36.0212 37.6097 38.6912 32.0897 38.6912C26.5697 38.6912 22.6097 36.0212 22.5797 35.9912C22.3997 35.8712 22.1597 35.8412 21.9797 35.9612C21.7997 36.0512 21.6797 36.2612 21.6797 36.4712C21.6797 39.4712 23.0597 42.0512 25.2797 43.7912C26.6897 42.2312 29.2397 41.1812 32.1797 41.1812C35.1197 41.1812 37.5197 42.1712 38.9597 43.6712C41.0597 41.9312 42.3797 39.4412 42.3797 36.5012C42.3797 36.2912 42.2597 36.0812 42.0497 35.9912L42.0197 35.9612Z" fill="#3E4347"/>
</svg>
