<svg width="140" height="26" viewBox="0 0 140 26" fill="none" xmlns="http://www.w3.org/2000/svg">
<rect x="0.5" y="0.5" width="139" height="25" stroke="#1D6CEB" stroke-dasharray="2 2"/>
<path d="M8.05957 7.75977C9.17383 7.75977 10.0967 8.38184 10.6504 9.46875H13.542V6.85742H15.0459V19.2305H13.542V14.5547H10.7598C10.2197 15.7852 9.24902 16.4961 8.05957 16.4961C6.2002 16.4961 4.88086 14.8076 4.8877 12.1211C4.88086 9.45508 6.2002 7.75977 8.05957 7.75977ZM6.35059 12.1211C6.34375 14.0215 7.04102 15.1221 8.05957 15.1289C9.08496 15.1221 9.77539 14.0215 9.78223 12.1211C9.77539 10.2344 9.08496 9.12695 8.05957 9.12695C7.04102 9.12695 6.34375 10.2344 6.35059 12.1211ZM11.0811 10.7129C11.1699 11.1436 11.2178 11.6152 11.2178 12.1211C11.2178 12.5449 11.1836 12.9482 11.1152 13.3242H13.542V10.7129H11.0811ZM27.1045 6.85742V19.2168H25.5732V6.85742H27.1045ZM16.8643 15.8125C20.1045 14.2744 21.5947 12.1826 21.8682 9.37305H17.4932V8.16992H23.4131C23.4131 11.8477 21.9844 14.9717 17.6572 17.0293L16.8643 15.8125ZM39.5459 6.85742V19.2168H38.083V6.85742H39.5459ZM29.0049 12.2031C29.0049 9.48242 30.0576 7.79395 31.6709 7.80078C33.168 7.79395 34.1865 9.19531 34.3643 11.5059H35.5537V7.07617H37.0029V18.6152H35.5537V12.7363H34.3779C34.2344 15.1494 33.2021 16.626 31.6709 16.6191C30.0576 16.626 29.0049 14.9307 29.0049 12.2031ZM30.4131 12.2031C30.4062 14.1377 30.8848 15.1768 31.6709 15.1699C32.4912 15.1768 32.9766 14.1377 32.9834 12.2031C32.9766 10.2754 32.4912 9.22949 31.6709 9.23633C30.8848 9.22949 30.4062 10.2754 30.4131 12.2031ZM55.5967 16.5234V17.7812H44.3037V16.5234H49.1709V14.5137H45.6436V10.4668H52.7529V8.93555H45.6162V7.70508H54.2568V11.6699H47.1611V13.2695H54.5439V14.5137H50.6748V16.5234H55.5967ZM66.4932 7.99219V9.18164C66.4795 10.7197 66.4795 12.4355 66.001 15.0195L64.4697 14.8555C64.9551 12.4492 64.9551 10.6924 64.9619 9.20898H57.5791V7.99219H66.4932ZM56.4033 17.6172V16.373H60.5596V12.0801H62.0635V16.373H67.6689V17.6172H56.4033ZM78.1826 6.85742V11.6836H80.0146V12.9551H78.1826V19.1895H76.665V6.85742H78.1826ZM68.4346 15.8125C71.4424 14.3086 73.0693 12.2168 73.3701 9.40039H69.1045V8.14258H74.915C74.9082 11.7725 73.4043 14.9648 69.2959 16.9883L68.4346 15.8125ZM95.2041 12.5859V13.8301H83.9248V12.5859H95.2041ZM85.2373 16.9336C85.2373 15.498 86.8574 14.6846 89.5439 14.6914C92.21 14.6846 93.8164 15.498 93.8232 16.9336C93.8164 18.3896 92.21 19.2031 89.5439 19.2031C86.8574 19.2031 85.2373 18.3896 85.2373 16.9336ZM85.3057 11.6152V7.25391H93.8369V8.48438H86.8232V10.3984H93.9053V11.6152H85.3057ZM86.7822 16.9336C86.7754 17.665 87.7461 18.0273 89.5439 18.0273C91.3145 18.0273 92.292 17.665 92.3057 16.9336C92.292 16.2363 91.3145 15.8535 89.5439 15.8535C87.7461 15.8535 86.7754 16.2363 86.7822 16.9336ZM107.304 13.543V14.7734H96.0107V13.543H100.905V12.5176H97.4463V9.23633H104.392V8.32031H97.4053V7.13086H105.909V10.3438H98.9502V11.3281H106.155V12.5176H102.409V13.543H107.304ZM97.2686 16.7559V15.5527H105.978V19.1348H104.446V16.7559H97.2686ZM107.96 15.4434C108.691 15.4434 109.594 15.4365 110.544 15.416V13.2012H108.548V8.01953H113.839V9.26367H110.038V11.9844H113.948V13.2012H111.993V15.3613C112.8 15.3271 113.593 15.2656 114.29 15.1836L114.372 16.2773C112.362 16.6396 109.792 16.6943 108.179 16.7012L107.96 15.4434ZM114.81 18.6152V7.08984H116.231V11.8477H117.38V6.85742H118.843V19.2168H117.38V13.0918H116.231V18.6152H114.81ZM131.517 16.4688V17.7129H120.224V16.4688H122.835V13.3447C121.851 12.7773 121.256 11.8887 121.263 10.7949C121.256 8.82617 123.184 7.52734 125.843 7.52734C128.516 7.52734 130.457 8.82617 130.45 10.7949C130.457 11.875 129.876 12.7432 128.919 13.3105V16.4688H131.517ZM122.753 10.7949C122.746 12.0596 123.997 12.8662 125.843 12.8594C127.682 12.8662 128.96 12.0596 128.96 10.7949C128.96 9.50977 127.682 8.72363 125.843 8.73047C123.997 8.72363 122.746 9.50977 122.753 10.7949ZM124.339 16.4688H127.374V13.8916C126.902 13.9941 126.39 14.0488 125.843 14.0488C125.31 14.0488 124.804 13.9941 124.339 13.8984V16.4688ZM133.827 18.1094C133.239 18.1094 132.754 17.6309 132.761 17.043C132.754 16.4688 133.239 15.9971 133.827 15.9902C134.395 15.9971 134.88 16.4688 134.88 17.043C134.88 17.6309 134.395 18.1094 133.827 18.1094Z" fill="black"/>
</svg>
