<svg width="215" height="26" viewBox="0 0 215 26" fill="none" xmlns="http://www.w3.org/2000/svg">
<rect x="0.5" y="0.5" width="214" height="25" stroke="#1D6CEB" stroke-dasharray="2 2"/>
<path d="M45.5596 7.75977C46.6738 7.75977 47.5967 8.38184 48.1504 9.46875H51.042V6.85742H52.5459V19.2305H51.042V14.5547H48.2598C47.7197 15.7852 46.749 16.4961 45.5596 16.4961C43.7002 16.4961 42.3809 14.8076 42.3877 12.1211C42.3809 9.45508 43.7002 7.75977 45.5596 7.75977ZM43.8506 12.1211C43.8438 14.0215 44.541 15.1221 45.5596 15.1289C46.585 15.1221 47.2754 14.0215 47.2822 12.1211C47.2754 10.2344 46.585 9.12695 45.5596 9.12695C44.541 9.12695 43.8438 10.2344 43.8506 12.1211ZM48.5811 10.7129C48.6699 11.1436 48.7178 11.6152 48.7178 12.1211C48.7178 12.5449 48.6836 12.9482 48.6152 13.3242H51.042V10.7129H48.5811ZM64.6045 6.85742V19.2168H63.0732V6.85742H64.6045ZM54.3643 15.8125C57.6045 14.2744 59.0947 12.1826 59.3682 9.37305H54.9932V8.16992H60.9131C60.9131 11.8477 59.4844 14.9717 55.1572 17.0293L54.3643 15.8125ZM77.0459 6.85742V19.2168H75.583V6.85742H77.0459ZM66.5049 12.2031C66.5049 9.48242 67.5576 7.79395 69.1709 7.80078C70.668 7.79395 71.6865 9.19531 71.8643 11.5059H73.0537V7.07617H74.5029V18.6152H73.0537V12.7363H71.8779C71.7344 15.1494 70.7021 16.626 69.1709 16.6191C67.5576 16.626 66.5049 14.9307 66.5049 12.2031ZM67.9131 12.2031C67.9062 14.1377 68.3848 15.1768 69.1709 15.1699C69.9912 15.1768 70.4766 14.1377 70.4834 12.2031C70.4766 10.2754 69.9912 9.22949 69.1709 9.23633C68.3848 9.22949 67.9062 10.2754 67.9131 12.2031ZM93.0967 16.5234V17.7812H81.8037V16.5234H86.6709V14.5137H83.1436V10.4668H90.2529V8.93555H83.1162V7.70508H91.7568V11.6699H84.6611V13.2695H92.0439V14.5137H88.1748V16.5234H93.0967ZM103.993 7.99219V9.18164C103.979 10.7197 103.979 12.4355 103.501 15.0195L101.97 14.8555C102.455 12.4492 102.455 10.6924 102.462 9.20898H95.0791V7.99219H103.993ZM93.9033 17.6172V16.373H98.0596V12.0801H99.5635V16.373H105.169V17.6172H93.9033ZM115.683 6.85742V11.6836H117.515V12.9551H115.683V19.1895H114.165V6.85742H115.683ZM105.935 15.8125C108.942 14.3086 110.569 12.2168 110.87 9.40039H106.604V8.14258H112.415C112.408 11.7725 110.904 14.9648 106.796 16.9883L105.935 15.8125ZM132.704 12.5859V13.8301H121.425V12.5859H132.704ZM122.737 16.9336C122.737 15.498 124.357 14.6846 127.044 14.6914C129.71 14.6846 131.316 15.498 131.323 16.9336C131.316 18.3896 129.71 19.2031 127.044 19.2031C124.357 19.2031 122.737 18.3896 122.737 16.9336ZM122.806 11.6152V7.25391H131.337V8.48438H124.323V10.3984H131.405V11.6152H122.806ZM124.282 16.9336C124.275 17.665 125.246 18.0273 127.044 18.0273C128.814 18.0273 129.792 17.665 129.806 16.9336C129.792 16.2363 128.814 15.8535 127.044 15.8535C125.246 15.8535 124.275 16.2363 124.282 16.9336ZM144.804 13.543V14.7734H133.511V13.543H138.405V12.5176H134.946V9.23633H141.892V8.32031H134.905V7.13086H143.409V10.3438H136.45V11.3281H143.655V12.5176H139.909V13.543H144.804ZM134.769 16.7559V15.5527H143.478V19.1348H141.946V16.7559H134.769ZM145.46 15.4434C146.191 15.4434 147.094 15.4365 148.044 15.416V13.2012H146.048V8.01953H151.339V9.26367H147.538V11.9844H151.448V13.2012H149.493V15.3613C150.3 15.3271 151.093 15.2656 151.79 15.1836L151.872 16.2773C149.862 16.6396 147.292 16.6943 145.679 16.7012L145.46 15.4434ZM152.31 18.6152V7.08984H153.731V11.8477H154.88V6.85742H156.343V19.2168H154.88V13.0918H153.731V18.6152H152.31ZM169.017 16.4688V17.7129H157.724V16.4688H160.335V13.3447C159.351 12.7773 158.756 11.8887 158.763 10.7949C158.756 8.82617 160.684 7.52734 163.343 7.52734C166.016 7.52734 167.957 8.82617 167.95 10.7949C167.957 11.875 167.376 12.7432 166.419 13.3105V16.4688H169.017ZM160.253 10.7949C160.246 12.0596 161.497 12.8662 163.343 12.8594C165.182 12.8662 166.46 12.0596 166.46 10.7949C166.46 9.50977 165.182 8.72363 163.343 8.73047C161.497 8.72363 160.246 9.50977 160.253 10.7949ZM161.839 16.4688H164.874V13.8916C164.402 13.9941 163.89 14.0488 163.343 14.0488C162.81 14.0488 162.304 13.9941 161.839 13.8984V16.4688ZM171.327 18.1094C170.739 18.1094 170.254 17.6309 170.261 17.043C170.254 16.4688 170.739 15.9971 171.327 15.9902C171.895 15.9971 172.38 16.4688 172.38 17.043C172.38 17.6309 171.895 18.1094 171.327 18.1094Z" fill="black"/>
</svg>
